<svg xmlns="http://www.w3.org/2000/svg" xmlns:xlink="http://www.w3.org/1999/xlink" xml:lang="en" height="171.2pt" width="452.25199999999995pt" viewBox="-44.45199999999999 -130.6 452.25199999999995 171.2"><circle cx="1.102182119232618e-15" cy="-18.0" r="18.0" style="stroke:#FFFFFF;fill:none;stroke-width:2;stroke-dasharray:-;" /><polygon points="219.6,-54.0 219.59909371925187,-54.11423493961062 219.59637510515893,-54.22844112118609 219.59184484211764,-54.34258979393094 219.58550407059755,-54.456652221527264 219.57735438685395,-54.570599689368876 219.5673978425262,-54.684403511790116 219.55563694412103,-54.79803503928728 219.5420746523817,-54.911465665730994 219.52671438154272,-55.02466683556766 219.50955999847002,-55.13761005100812 219.4906158216879,-55.2502668792019 219.46988662029148,-55.362608959394954 219.44737761274638,-55.474608010069375 219.4230944655749,-55.586235836063096 219.3970432919295,-55.697464335667874 219.36923065005374,-55.80826550770377 219.33966354163158,-55.91861145856825 219.30834941002436,-56.028474409258294 219.27529613839732,-56.137826702363576 219.2405120477348,-56.24664080902911 219.2040058947456,-56.35488933588543 219.16578686965852,-56.46254503194481 219.12586459390874,-56.569580795461476 219.0842491177157,-56.675969680754356 219.04095091755298,-56.78168490499053 218.99598089351088,-56.88669985492762 218.94935036655252,-56.99098809361358 218.90107107566365,-57.09452336704204 218.8511551748976,-57.197279610761576 218.79961523031542,-57.299230956437356 218.74646421682257,-57.40035173836332 218.69171551490243,-57.50061649992337 218.63538290724793,-57.6 218.57748057529182,-57.698477219328524 218.51802309563647,-57.796023366795616 218.45702543638447,-57.892613885680305 218.39450295337033,-57.98822445983599 218.3304713862948,-58.08283101981195 218.2649468547624,-58.176409748912626 218.1979458542236,-58.26893708919341 218.129485251822,-58.3603897473912 218.05958228214806,-58.450744700788356 217.98825454290062,-58.53997920300856 217.9155199904566,-58.628070789743084 217.84139693535062,-58.71499728440605 217.7659040376654,-58.8007368037173 217.6890603023342,-58.88526776321135 217.61088507435647,-58.96856888267121 217.53139803392781,-59.05061919148552 217.4506191914855,-59.13139803392781 217.36856888267118,-59.21088507435651 217.28526776321135,-59.28906030233424 217.20073680371726,-59.36590403766543 217.11499728440603,-59.44139693535066 217.02807078974308,-59.515519990456646 216.93997920300853,-59.58825454290065 216.85074470078834,-59.65958228214807 216.76038974739117,-59.72948525182199 216.6689370891934,-59.79794585422363 216.5764097489126,-59.86494685476242 216.48283101981193,-59.9304713862948 216.38822445983598,-59.99450295337036 216.29261388568028,-60.05702543638451 216.1960233667956,-60.11802309563651 216.09847721932852,-60.17748057529184 215.99999999999997,-60.23538290724795 215.90061649992336,-60.29171551490246 215.8003517383633,-60.34646421682259 215.69923095643733,-60.39961523031545 215.59727961076155,-60.45115517489762 215.494523367042,-60.501071075663674 215.39098809361354,-60.54935036655253 215.2866998549276,-60.595980893510905 215.1816849049905,-60.640950917552985 215.07596968075435,-60.68424911771572 214.96958079546147,-60.72586459390877 214.8625450319448,-60.76578686965854 214.7548893358854,-60.804005894745615 214.6466408090291,-60.840512047734805 214.53782670236356,-60.87529613839733 214.42847440925829,-60.908349410024385 214.31861145856823,-60.93966354163158 214.20826550770374,-60.96923065005377 214.09746433566787,-60.9970432919295 213.9862358360631,-61.02309446557493 213.87460801006935,-61.04737761274641 213.76260895939492,-61.069886620291484 213.6502668792019,-61.0906158216879 213.5376100510081,-61.10955999847004 213.42466683556762,-61.12671438154271 213.311465665731,-61.14207465238172 213.19803503928728,-61.15563694412103 213.0844035117901,-61.167397842526206 212.97059968936887,-61.17735438685399 212.85665222152724,-61.185504070597574 212.74258979393093,-61.19184484211766 212.62844112118609,-61.19637510515893 212.51423493961062,-61.199093719251906 212.39999999999998,-61.199999999999996 172.79999999999998,-61.199999999999996 172.68576506038937,-61.199093719251906 172.5715588788139,-61.19637510515893 172.45741020606906,-61.19184484211766 172.34334777847272,-61.185504070597574 172.22940031063112,-61.17735438685399 172.11559648820986,-61.167397842526206 172.00196496071274,-61.15563694412103 171.888534334269,-61.14207465238172 171.77533316443234,-61.12671438154271 171.66238994899186,-61.10955999847004 171.5497331207981,-61.0906158216879 171.43739104060506,-61.069886620291484 171.32539198993064,-61.04737761274641 171.2137641639369,-61.02309446557493 171.10253566433212,-60.9970432919295 170.99173449229622,-60.96923065005377 170.88138854143173,-60.93966354163158 170.7715255907417,-60.908349410024385 170.66217329763643,-60.87529613839733 170.5533591909709,-60.840512047734805 170.44511066411457,-60.804005894745615 170.3374549680552,-60.76578686965854 170.23041920453852,-60.72586459390877 170.12403031924563,-60.68424911771572 170.01831509500948,-60.640950917552985 169.91330014507238,-60.595980893510905 169.80901190638642,-60.54935036655253 169.70547663295798,-60.501071075663674 169.6027203892384,-60.45115517489762 169.50076904356266,-60.39961523031545 169.39964826163668,-60.34646421682259 169.29938350007663,-60.29171551490246 169.20000000000002,-60.23538290724795 169.10152278067147,-60.17748057529184 169.00397663320436,-60.11802309563651 168.9073861143197,-60.05702543638451 168.81177554016398,-59.99450295337036 168.71716898018803,-59.9304713862948 168.6235902510874,-59.86494685476242 168.53106291080655,-59.79794585422363 168.4396102526088,-59.72948525182199 168.34925529921165,-59.659582282148065 168.26002079699145,-59.58825454290065 168.1719292102569,-59.515519990456646 168.08500271559393,-59.44139693535066 167.9992631962827,-59.36590403766543 167.91473223678864,-59.28906030233424 167.83143111732878,-59.21088507435651 167.7493808085145,-59.13139803392781 167.66860196607217,-59.05061919148552 167.58911492564349,-58.96856888267121 167.51093969766575,-58.88526776321135 167.43409596233457,-58.8007368037173 167.35860306464934,-58.71499728440605 167.28448000954336,-58.628070789743084 167.21174545709934,-58.53997920300856 167.14041771785193,-58.450744700788356 167.070514748178,-58.3603897473912 167.00205414577636,-58.26893708919341 166.9350531452376,-58.176409748912626 166.8695286137052,-58.08283101981195 166.80549704662965,-57.98822445983599 166.7429745636155,-57.892613885680305 166.6819769043635,-57.796023366795616 166.62251942470817,-57.698477219328524 166.56461709275203,-57.6 166.50828448509753,-57.50061649992337 166.45353578317741,-57.40035173836332 166.40038476968454,-57.299230956437356 166.3488448251024,-57.19727961076157 166.2989289243363,-57.09452336704204 166.25064963344744,-56.99098809361358 166.2040191064891,-56.88669985492762 166.15904908244698,-56.78168490499053 166.11575088228426,-56.675969680754356 166.07413540609122,-56.569580795461476 166.03421313034147,-56.46254503194481 165.99599410525437,-56.35488933588544 165.95948795226516,-56.24664080902911 165.92470386160267,-56.13782670236358 165.8916505899756,-56.028474409258294 165.8603364583684,-55.91861145856825 165.83076934994625,-55.80826550770377 165.8029567080705,-55.697464335667874 165.77690553442505,-55.586235836063096 165.7526223872536,-55.474608010069375 165.7301133797085,-55.36260895939496 165.7093841783121,-55.2502668792019 165.69044000152996,-55.13761005100812 165.67328561845727,-55.02466683556766 165.65792534761826,-54.911465665730994 165.64436305587896,-54.79803503928728 165.63260215747377,-54.684403511790116 165.622645613146,-54.570599689368876 165.61449592940244,-54.456652221527264 165.60815515788232,-54.34258979393094 165.60362489484106,-54.22844112118609 165.6009062807481,-54.11423493961062 165.6,-54.0 165.6,-14.399999999999997 165.6009062807481,-14.285765060389382 165.60362489484106,-14.171558878813912 165.60815515788232,-14.057410206069054 165.61449592940244,-13.943347778472733 165.622645613146,-13.82940031063112 165.63260215747377,-13.715596488209883 165.64436305587896,-13.601964960712717 165.65792534761826,-13.488534334269003 165.67328561845727,-13.375333164432345 165.69044000152996,-13.262389948991881 165.7093841783121,-13.149733120798102 165.7301133797085,-13.037391040605042 165.7526223872536,-12.925391989930624 165.77690553442505,-12.813764163936904 165.8029567080705,-12.702535664332121 165.83076934994625,-12.591734492296228 165.8603364583684,-12.481388541431748 165.8916505899756,-12.371525590741705 165.92470386160267,-12.262173297636416 165.95948795226516,-12.153359190970889 165.99599410525437,-12.04511066411456 166.03421313034147,-11.937454968055182 166.07413540609122,-11.83041920453852 166.11575088228426,-11.72403031924564 166.15904908244698,-11.618315095009473 166.2040191064891,-11.513300145072376 166.25064963344744,-11.409011906386413 166.2989289243363,-11.30547663295796 166.3488448251024,-11.202720389238424 166.40038476968454,-11.100769043562643 166.45353578317741,-10.99964826163668 166.50828448509753,-10.899383500076624 166.56461709275203,-10.799999999999995 166.62251942470817,-10.701522780671473 166.6819769043635,-10.603976633204379 166.7429745636155,-10.507386114319694 166.80549704662965,-10.411775540164005 166.8695286137052,-10.317168980188049 166.9350531452376,-10.223590251087371 167.00205414577636,-10.131062910806587 167.070514748178,-10.039610252608798 167.14041771785193,-9.94925529921164 167.21174545709934,-9.860020796991435 167.28448000954336,-9.771929210256914 167.35860306464934,-9.685002715593946 167.43409596233457,-9.599263196282697 167.51093969766575,-9.514732236788646 167.58911492564349,-9.43143111732879 167.66860196607217,-9.349380808514482 167.7493808085145,-9.268601966072183 167.83143111732878,-9.18911492564349 167.91473223678864,-9.110939697665758 167.9992631962827,-9.034095962334563 168.08500271559393,-8.958603064649338 168.1719292102569,-8.884480009543356 168.26002079699145,-8.811745457099345 168.34925529921165,-8.740417717851928 168.4396102526088,-8.670514748178006 168.53106291080655,-8.602054145776377 168.62359025108736,-8.53505314523758 168.71716898018803,-8.469528613705203 168.81177554016398,-8.405497046629643 168.9073861143197,-8.342974563615492 169.00397663320436,-8.281976904363495 169.10152278067147,-8.222519424708162 169.20000000000002,-8.164617092752037 169.29938350007663,-8.108284485097546 169.39964826163668,-8.053535783177407 169.50076904356266,-8.000384769684548 169.6027203892384,-7.948844825102378 169.70547663295798,-7.8989289243363245 169.80901190638642,-7.850649633447464 169.91330014507238,-7.804019106489096 170.01831509500948,-7.75904908244701 170.12403031924563,-7.715750882284275 170.23041920453852,-7.674135406091229 170.3374549680552,-7.634213130341456 170.44511066411457,-7.595994105254384 170.5533591909709,-7.55948795226519 170.66217329763643,-7.524703861602665 170.7715255907417,-7.491650589975615 170.88138854143173,-7.460336458368414 170.99173449229622,-7.430769349946232 171.10253566433212,-7.402956708070496 171.2137641639369,-7.376905534425066 171.32539198993064,-7.352622387253589 171.43739104060506,-7.330113379708509 171.5497331207981,-7.309384178312099 171.66238994899186,-7.290440001529958 171.77533316443234,-7.273285618457281 171.888534334269,-7.25792534761827 172.0019649607127,-7.244363055878967 172.1155964882099,-7.232602157473788 172.22940031063112,-7.222645613146012 172.34334777847272,-7.214495929402428 172.45741020606906,-7.208155157882339 172.5715588788139,-7.203624894841064 172.68576506038937,-7.200906280748096 172.79999999999998,-7.199999999999997 212.39999999999998,-7.199999999999998 212.51423493961062,-7.200906280748098 212.62844112118609,-7.203624894841066 212.74258979393093,-7.2081551578823415 212.85665222152724,-7.21449592940243 212.97059968936887,-7.222645613146013 213.0844035117901,-7.2326021574737895 213.19803503928728,-7.244363055878969 213.311465665731,-7.257925347618272 213.42466683556762,-7.273285618457283 213.5376100510081,-7.2904400015299595 213.6502668792019,-7.309384178312101 213.76260895939492,-7.330113379708511 213.87460801006935,-7.352622387253592 213.9862358360631,-7.376905534425068 214.09746433566787,-7.402956708070498 214.20826550770374,-7.4307693499462335 214.31861145856823,-7.460336458368415 214.42847440925829,-7.491650589975617 214.53782670236356,-7.524703861602667 214.6466408090291,-7.559487952265192 214.7548893358854,-7.595994105254385 214.8625450319448,-7.634213130341458 214.96958079546147,-7.674135406091231 215.07596968075435,-7.715750882284276 215.1816849049905,-7.759049082447012 215.2866998549276,-7.804019106489097 215.39098809361354,-7.850649633447466 215.494523367042,-7.898928924336325 215.59727961076155,-7.9488448251023796 215.69923095643733,-8.00038476968455 215.8003517383633,-8.053535783177407 215.90061649992336,-8.108284485097547 215.99999999999997,-8.16461709275204 216.09847721932852,-8.222519424708164 216.1960233667956,-8.281976904363495 216.29261388568028,-8.342974563615495 216.38822445983598,-8.405497046629645 216.48283101981193,-8.469528613705203 216.57640974891262,-8.535053145237582 216.6689370891934,-8.602054145776377 216.76038974739117,-8.670514748178007 216.85074470078834,-8.740417717851928 216.93997920300853,-8.811745457099349 217.02807078974308,-8.884480009543356 217.11499728440603,-8.958603064649338 217.20073680371726,-9.034095962334565 217.28526776321135,-9.11093969766576 217.36856888267118,-9.189114925643493 217.4506191914855,-9.268601966072186 217.53139803392781,-9.349380808514486 217.61088507435647,-9.431431117328794 217.6890603023342,-9.51473223678865 217.7659040376654,-9.599263196282699 217.84139693535062,-9.685002715593948 217.9155199904566,-9.771929210256916 217.98825454290062,-9.860020796991437 218.05958228214806,-9.949255299211641 218.129485251822,-10.039610252608798 218.1979458542236,-10.131062910806587 218.2649468547624,-10.223590251087371 218.3304713862948,-10.317168980188049 218.39450295337033,-10.411775540164005 218.45702543638447,-10.507386114319695 218.51802309563647,-10.603976633204383 218.57748057529182,-10.701522780671473 218.63538290724793,-10.799999999999999 218.69171551490243,-10.899383500076626 218.74646421682257,-10.999648261636683 218.79961523031542,-11.100769043562645 218.8511551748976,-11.202720389238426 218.90107107566365,-11.305476632957962 218.94935036655252,-11.409011906386418 218.99598089351088,-11.51330014507238 219.04095091755298,-11.618315095009473 219.0842491177157,-11.724030319245642 219.12586459390874,-11.83041920453852 219.16578686965852,-11.937454968055182 219.2040058947456,-12.045110664114564 219.2405120477348,-12.15335919097089 219.27529613839732,-12.26217329763642 219.30834941002436,-12.371525590741706 219.33966354163158,-12.481388541431748 219.36923065005374,-12.591734492296228 219.3970432919295,-12.702535664332123 219.4230944655749,-12.813764163936908 219.44737761274638,-12.925391989930628 219.46988662029148,-13.037391040605044 219.4906158216879,-13.1497331207981 219.50955999847002,-13.262389948991881 219.52671438154272,-13.375333164432346 219.5420746523817,-13.488534334269005 219.55563694412103,-13.601964960712719 219.5673978425262,-13.715596488209885 219.57735438685395,-13.829400310631122 219.58550407059755,-13.943347778472734 219.59184484211764,-14.057410206069056 219.59637510515893,-14.171558878813913 219.59909371925187,-14.285765060389382 219.6,-14.399999999999999 219.6,-54.0 " style="stroke:#FFFFFF;fill:none;stroke-width:2;stroke-dasharray:-;stroke-linecap:round;stroke-linejoin:round;" /><polygon points="173.70000000000002,-33.120000000000005 173.70000000000002,-55.800000000000004 211.5,-55.800000000000004 211.5,-33.120000000000005 " style="stroke:#FFFFFF;fill:none;stroke-width:1;stroke-dasharray:-;stroke-linecap:round;stroke-linejoin:round;" /><polygon points="356.4,9.000000000000007 356.5713524094159,8.99864057887786 356.7426616817791,8.994562657738408 356.9138846908964,8.987767263176494 357.08497833229086,8.97825610589636 357.25589953405324,8.966031580280985 357.4266052676851,8.951096763789321 357.5970525589309,8.933455416181554 357.7671984985965,8.913111978572598 357.9370002533514,8.89007157231408 358.1064150765121,8.864339997705066 358.2754003188028,8.835923732531853 358.4439134390924,8.80482993043724 358.611912015104,8.771066419119618 358.7793537540946,8.734641698362404 358.94619650350177,8.695564937894257 359.1123982615556,8.653845975080655 359.2779171878523,8.609495312447383 359.4427116138874,8.56252411503658 359.6067400535453,8.512944207596004 359.7699612135436,8.460768071602217 359.93233400382815,8.406008842118426 360.0938175479172,8.348680304487818 360.2543711931922,8.288796890863159 360.41395452113153,8.22637367657359 360.57252735748574,8.161426376329487 360.73004978239135,8.093971340266357 360.88648214042036,8.024025549828806 361.041785050563,7.9516066134955175 361.1959194161423,7.876732762346435 361.348846434656,7.799422845473179 361.5005276075449,7.719696325233892 361.650924749885,7.637573272353683 361.79999999999995,7.553074360871943 361.9477158289927,7.466220862937757 362.0940350501934,7.377034643454762 362.2389208285204,7.285538154576763 362.3823366897539,7.1917544300555365 362.5242465297179,7.0957070794422 362.6646146233689,6.997420282143632 362.8034056337901,6.896918781335439 362.9405846210867,6.794227877732994 363.0761170511825,6.6893734232221105 363.2099688045128,6.582381814350979 363.3421061846146,6.473279985684968 363.472495926609,6.362095403025995 363.6011052055759,6.248856056498156 363.727901644817,6.133590453501364 363.8528533240068,6.016327611534765 363.9759287872282,5.897097050891724 364.09709705089165,5.775928787228274 364.21632761153467,5.652853324006815 364.3335904535013,5.527901644817032 364.44885605649813,5.401105205575954 364.562095403026,5.272495926609083 364.6732799856849,5.1421061846146285 364.7823818143509,5.009968804512847 364.889373423222,4.876117051182541 364.99422787773295,4.740584621086805 365.0969187813354,4.603405633790121 365.1974202821436,4.464614623368943 365.29570707944214,4.324246529717929 365.39175443005547,4.182336689753994 365.4855381545767,4.0389208285204585 365.5770346434547,3.8940350501934304 365.66622086293773,3.747715828992793 365.7530743608719,3.6000000000000023 365.8375732723536,3.450924749885065 365.9196963252339,3.3005276075449768 365.99942284547313,3.1488464346560363 366.0767327623464,2.995919416142362 366.15160661349546,2.8417850505630566 366.22402554982875,2.6864821404203765 366.2939713402663,2.53004978239143 366.3614263763294,2.372527357485792 366.4263736765735,2.2139545211315403 366.4887968908631,2.0543711931922175 366.54868030448773,1.8938175479172243 366.60600884211834,1.7323340038281565 366.6607680716022,1.5699612135436638 366.7129442075959,1.4067400535453698 366.7625241150365,1.242711613887443 366.8094953124473,1.0779171878523806 366.8538459750806,0.9123982615556561 366.8955649378942,0.7461965035018154 366.9346416983623,0.5793537540946406 366.97106641911955,0.4119120151040595 367.00482993043715,0.24391343909243102 367.0359237325318,0.07540031880284923 367.06433999770496,-0.09358492348781924 367.090071572314,-0.2629997466485203 367.11311197857253,-0.43280150140350715 367.13345541618145,-0.6029474410690796 367.15109676378927,-0.7733947323148275 367.16603158028096,-0.9441004659466843 367.1782561058963,-1.1150216677091023 367.1877672631764,-1.2861153091035815 367.19456265773835,-1.4573383182208695 367.1986405788778,-1.6286475905840738 367.2,-1.799999999999999 367.2,-34.199999999999996 367.1986405788778,-34.37135240941593 367.19456265773835,-34.54266168177913 367.1877672631764,-34.713884690896414 367.1782561058963,-34.88497833229089 367.16603158028096,-35.05589953405331 367.15109676378927,-35.22660526768517 367.13345541618145,-35.397052558930916 367.11311197857253,-35.56719849859649 367.090071572314,-35.73700025335148 367.06433999770496,-35.906415076512175 367.0359237325318,-36.07540031880285 367.00482993043715,-36.24391343909243 366.97106641911955,-36.41191201510406 366.9346416983623,-36.57935375409464 366.8955649378942,-36.74619650350182 366.8538459750806,-36.91239826155566 366.8094953124473,-37.07791718785238 366.7625241150365,-37.24271161388744 366.7129442075959,-37.40674005354537 366.6607680716022,-37.569961213543664 366.60600884211834,-37.73233400382815 366.54868030448773,-37.89381754791722 366.4887968908631,-38.05437119319222 366.4263736765735,-38.21395452113154 366.3614263763294,-38.372527357485794 366.2939713402663,-38.53004978239143 366.22402554982875,-38.686482140420374 366.15160661349546,-38.841785050563054 366.0767327623464,-38.99591941614236 365.99942284547313,-39.148846434656036 365.9196963252339,-39.30052760754498 365.8375732723536,-39.45092474988506 365.7530743608719,-39.6 365.66622086293773,-39.747715828992796 365.5770346434547,-39.89403505019343 365.4855381545767,-40.03892082852045 365.39175443005547,-40.182336689753996 365.29570707944214,-40.324246529717925 365.1974202821436,-40.46461462336894 365.0969187813354,-40.60340563379012 364.99422787773295,-40.7405846210868 364.889373423222,-40.87611705118254 364.7823818143509,-41.009968804512845 364.6732799856849,-41.14210618461462 364.562095403026,-41.27249592660908 364.44885605649813,-41.40110520557595 364.3335904535013,-41.52790164481703 364.21632761153467,-41.652853324006806 364.09709705089165,-41.77592878722827 363.9759287872282,-41.89709705089172 363.8528533240068,-42.01632761153476 363.727901644817,-42.133590453501355 363.6011052055759,-42.248856056498155 363.472495926609,-42.36209540302599 363.3421061846146,-42.47327998568497 363.2099688045128,-42.58238181435098 363.0761170511825,-42.68937342322211 362.94058462108677,-42.794227877732986 362.8034056337901,-42.89691878133544 362.6646146233689,-42.99742028214363 362.5242465297179,-43.09570707944219 362.3823366897539,-43.19175443005553 362.2389208285204,-43.28553815457676 362.0940350501934,-43.37703464345476 361.9477158289927,-43.46622086293775 361.79999999999995,-43.55307436087194 361.650924749885,-43.637573272353684 361.5005276075449,-43.71969632523389 361.348846434656,-43.799422845473174 361.1959194161423,-43.87673276234643 361.041785050563,-43.951606613495514 360.88648214042036,-44.02402554982881 360.73004978239135,-44.09397134026635 360.57252735748574,-44.16142637632949 360.41395452113153,-44.22637367657359 360.2543711931922,-44.28879689086315 360.0938175479172,-44.348680304487814 359.93233400382815,-44.406008842118425 359.7699612135436,-44.46076807160222 359.6067400535453,-44.51294420759601 359.4427116138874,-44.56252411503658 359.2779171878523,-44.60949531244738 359.1123982615556,-44.65384597508066 358.94619650350177,-44.69556493789426 358.7793537540946,-44.734641698362395 358.611912015104,-44.77106641911961 358.44391343909234,-44.80482993043724 358.2754003188028,-44.835923732531846 358.1064150765121,-44.864339997705066 357.9370002533514,-44.89007157231407 357.7671984985965,-44.913111978572594 357.5970525589309,-44.93345541618155 357.4266052676851,-44.951096763789316 357.25589953405324,-44.96603158028098 357.08497833229086,-44.978256105896364 356.9138846908964,-44.987767263176494 356.74266168177905,-44.99456265773841 356.5713524094159,-44.998640578877854 356.4,-45.00000000000001 270.0,-45.0 269.82864759058407,-44.99864057887785 269.65733831822087,-44.99456265773839 269.4861153091036,-44.98776726317649 269.3150216677091,-44.97825610589635 269.1441004659467,-44.966031580280976 268.97339473231483,-44.951096763789316 268.8029474410691,-44.933455416181545 268.6328015014035,-44.91311197857259 268.4629997466485,-44.89007157231407 268.2935849234878,-44.86433999770506 268.1245996811972,-44.835923732531846 267.9560865609076,-44.804829930437236 267.7880879848959,-44.771066419119606 267.6206462459054,-44.734641698362395 267.4538034964982,-44.69556493789425 267.2876017384443,-44.65384597508064 267.1220828121476,-44.60949531244737 266.95728838611257,-44.562524115036574 266.79325994645467,-44.512944207596 266.63003878645634,-44.46076807160221 266.46766599617183,-44.40600884211842 266.3061824520828,-44.348680304487814 266.1456288068078,-44.288796890863146 265.98604547886845,-44.22637367657359 265.8274726425142,-44.16142637632948 265.6699502176086,-44.09397134026635 265.5135178595796,-44.0240255498288 265.35821494943696,-43.95160661349551 265.20408058385766,-43.87673276234642 265.05115356534395,-43.79942284547317 264.89947239245504,-43.71969632523388 264.7490752501149,-43.63757327235368 264.59999999999997,-43.55307436087193 264.4522841710072,-43.46622086293775 264.3059649498066,-43.37703464345475 264.16107917147957,-43.285538154576756 264.017663310246,-43.191754430055525 263.87575347028206,-43.09570707944219 263.73538537663103,-42.99742028214363 263.5965943662099,-42.89691878133544 263.4594153789132,-42.794227877732986 263.32388294881747,-42.68937342322211 263.19003119548717,-42.58238181435097 263.0578938153854,-42.47327998568497 262.92750407339093,-42.36209540302599 262.79889479442403,-42.24885605649815 262.672098355183,-42.133590453501355 262.5471466759932,-42.01632761153476 262.42407121277176,-41.897097050891716 262.3029029491083,-41.77592878722827 262.18367238846525,-41.652853324006806 262.0664095464987,-41.52790164481703 261.95114394350185,-41.40110520557595 261.837904596974,-41.27249592660908 261.72672001431505,-41.14210618461462 261.617618185649,-41.00996880451284 261.5106265767779,-40.87611705118254 261.405772122267,-40.740584621086796 261.3030812186646,-40.60340563379011 261.2025797178564,-40.46461462336894 261.1042929205578,-40.324246529717925 261.00824556994445,-40.182336689753996 260.91446184542326,-40.03892082852045 260.82296535654524,-39.89403505019343 260.73377913706224,-39.74771582899278 260.646925639128,-39.599999999999994 260.5624267276463,-39.45092474988506 260.4803036747661,-39.30052760754497 260.40057715452684,-39.14884643465603 260.32326723765357,-38.99591941614236 260.2483933865045,-38.841785050563054 260.17597445017117,-38.68648214042037 260.1060286597336,-38.53004978239143 260.0385736236705,-38.37252735748579 259.9736263234264,-38.213954521131534 259.91120310913686,-38.05437119319222 259.8513196955122,-37.89381754791722 259.7939911578816,-37.73233400382815 259.7392319283978,-37.56996121354366 259.687055792404,-37.40674005354537 259.63747588496346,-37.24271161388744 259.5905046875526,-37.07791718785238 259.54615402491936,-36.91239826155566 259.50443506210576,-36.74619650350182 259.4653583016376,-36.57935375409464 259.42893358088037,-36.41191201510405 259.39517006956277,-36.24391343909243 259.36407626746814,-36.07540031880285 259.33566000229496,-35.906415076512175 259.3099284276859,-35.73700025335148 259.2868880214274,-35.56719849859649 259.2665445838185,-35.397052558930916 259.2489032362107,-35.22660526768517 259.233968419719,-35.05589953405332 259.22174389410367,-34.88497833229089 259.2122327368235,-34.713884690896414 259.2054373422616,-34.54266168177913 259.20135942112216,-34.37135240941593 259.2,-34.199999999999996 259.2,-1.7999999999999983 259.20135942112216,-1.6286475905840734 259.2054373422616,-1.457338318220869 259.2122327368235,-1.2861153091035833 259.22174389410367,-1.1150216677090994 259.233968419719,-0.9441004659466814 259.2489032362107,-0.7733947323148246 259.2665445838185,-0.602947441069079 259.2868880214274,-0.4328015014035064 259.3099284276859,-0.26299974664851977 259.33566000229496,-0.09358492348782074 259.36407626746814,0.07540031880284723 259.39517006956277,0.24391343909243351 259.42893358088037,0.4119120151040623 259.4653583016376,0.5793537540946412 259.50443506210576,0.7461965035018159 259.54615402491936,0.9123982615556566 259.5905046875526,1.0779171878523786 259.63747588496346,1.242711613887441 259.687055792404,1.4067400535453722 259.7392319283978,1.5699612135436634 259.7939911578816,1.7323340038281558 259.8513196955122,1.8938175479172243 259.91120310913686,2.0543711931922175 259.9736263234264,2.213954521131538 260.0385736236705,2.3725273574857892 260.1060286597336,2.5300497823914316 260.17597445017117,2.6864821404203765 260.2483933865045,2.8417850505630557 260.32326723765357,2.995919416142362 260.40057715452684,3.148846434656034 260.4803036747661,3.3005276075449737 260.5624267276463,3.450924749885062 260.646925639128,3.600000000000004 260.73377913706224,3.747715828992788 260.82296535654524,3.8940350501934295 260.91446184542326,4.038920828520456 261.00824556994445,4.182336689753992 261.1042929205578,4.324246529717925 261.2025797178564,4.464614623368941 261.3030812186646,4.603405633790116 261.405772122267,4.7405846210868 261.5106265767779,4.87611705118254 261.617618185649,5.009968804512845 261.72672001431505,5.142106184614626 261.837904596974,5.27249592660908 261.95114394350185,5.401105205575951 262.0664095464987,5.527901644817028 262.18367238846525,5.652853324006809 262.3029029491083,5.775928787228272 262.42407121277176,5.8970970508917215 262.5471466759932,6.016327611534759 262.672098355183,6.133590453501361 262.79889479442403,6.248856056498152 262.92750407339093,6.3620954030259895 263.0578938153854,6.473279985684963 263.19003119548717,6.582381814350977 263.32388294881747,6.689373423222104 263.4594153789132,6.794227877732989 263.5965943662099,6.896918781335434 263.73538537663103,6.997420282143627 263.87575347028206,7.095707079442194 264.017663310246,7.19175443005553 264.16107917147957,7.285538154576755 264.3059649498066,7.377034643454754 264.4522841710072,7.466220862937753 264.59999999999997,7.553074360871939 264.7490752501149,7.637573272353679 264.89947239245504,7.719696325233887 265.05115356534395,7.799422845473174 265.20408058385766,7.876732762346429 265.35821494943696,7.9516066134955095 265.5135178595796,8.0240255498288 265.6699502176086,8.093971340266352 265.8274726425142,8.16142637632948 265.98604547886845,8.226373676573585 266.1456288068078,8.288796890863154 266.3061824520828,8.34868030448781 266.4676659961719,8.406008842118421 266.63003878645634,8.46076807160221 266.79325994645467,8.512944207595998 266.95728838611257,8.562524115036574 267.1220828121476,8.609495312447375 267.2876017384443,8.653845975080646 267.4538034964982,8.69556493789425 267.6206462459054,8.734641698362397 267.7880879848959,8.771066419119611 267.9560865609076,8.804829930437233 268.1245996811972,8.835923732531846 268.2935849234878,8.864339997705061 268.4629997466485,8.890071572314074 268.6328015014035,8.91311197857259 268.8029474410691,8.933455416181545 268.97339473231483,8.951096763789314 269.1441004659467,8.966031580280978 269.3150216677091,8.978256105896351 269.4861153091036,8.987767263176487 269.65733831822087,8.994562657738399 269.82864759058407,8.99864057887785 270.0,9.0 356.4,9.000000000000007 " style="stroke:#FFFFFF;fill:none;stroke-width:2;stroke-dasharray:-;stroke-linecap:round;stroke-linejoin:round;" /><polygon points="277.2,-71.99999999999999 277.3713524094159,-72.00135942112215 277.5426616817791,-72.00543734226159 277.7138846908964,-72.0122327368235 277.8849783322909,-72.02174389410364 278.0558995340533,-72.03396841971902 278.22660526768516,-72.04890323621069 278.3970525589309,-72.06654458381846 278.5671984985965,-72.0868880214274 278.7370002533515,-72.10992842768593 278.9064150765122,-72.13566000229494 279.07540031880285,-72.16407626746815 279.24391343909247,-72.19517006956276 279.41191201510406,-72.22893358088038 279.57935375409465,-72.2653583016376 279.74619650350184,-72.30443506210574 279.91239826155567,-72.34615402491936 280.0779171878524,-72.39050468755262 280.2427116138874,-72.43747588496343 280.4067400535454,-72.487055792404 280.56996121354365,-72.5392319283978 280.73233400382816,-72.59399115788158 280.8938175479172,-72.65131969551219 281.0543711931922,-72.71120310913685 281.21395452113154,-72.77362632342641 281.37252735748575,-72.83857362367053 281.5300497823914,-72.90602865973365 281.68648214042037,-72.97597445017121 281.84178505056303,-73.0483933865045 281.9959194161424,-73.12326723765358 282.14884643465604,-73.20057715452683 282.30052760754495,-73.28030367476612 282.4509247498851,-73.36242672764632 282.59999999999997,-73.44692563912807 282.7477158289928,-73.53377913706225 282.89403505019345,-73.62296535654525 283.0389208285205,-73.71446184542326 283.182336689754,-73.80824556994448 283.3242465297179,-73.90429292055781 283.4646146233689,-74.00257971785638 283.6034056337901,-74.10308121866457 283.7405846210868,-74.205772122267 283.8761170511825,-74.31062657677789 284.0099688045128,-74.41761818564903 284.14210618461465,-74.52672001431503 284.27249592660905,-74.63790459697401 284.40110520557596,-74.75114394350186 284.527901644817,-74.86640954649864 284.6528533240068,-74.98367238846525 284.7759287872282,-75.10290294910828 284.8970970508917,-75.22407121277173 285.01632761153473,-75.3471466759932 285.13359045350137,-75.47209835518296 285.24885605649814,-75.59889479442406 285.362095403026,-75.72750407339092 285.47327998568494,-75.85789381538538 285.582381814351,-75.99003119548718 285.6893734232221,-76.12388294881745 285.79422787773296,-76.2594153789132 285.89691878133544,-76.39659436620988 285.9974202821436,-76.53538537663106 286.09570707944215,-76.67575347028207 286.19175443005554,-76.817663310246 286.2855381545767,-76.96107917147955 286.37703464345475,-77.10596494980658 286.46622086293775,-77.2522841710072 286.5530743608719,-77.39999999999999 286.6375732723537,-77.54907525011494 286.7196963252339,-77.69947239245504 286.79942284547315,-77.85115356534396 286.8767327623464,-78.00408058385764 286.95160661349547,-78.15821494943694 287.02402554982876,-78.31351785957963 287.0939713402663,-78.46995021760858 287.1614263763295,-78.6274726425142 287.2263736765736,-78.78604547886846 287.2887968908631,-78.94562880680779 287.3486803044878,-79.10618245208278 287.4060088421184,-79.26766599617184 287.46076807160216,-79.43003878645635 287.512944207596,-79.59325994645462 287.5625241150365,-79.75728838611255 287.60949531244734,-79.92208281214762 287.6538459750806,-80.08760173844433 287.69556493789423,-80.25380349649818 287.73464169836234,-80.42064624590536 287.7710664191196,-80.58808798489594 287.8048299304372,-80.75608656090756 287.83592373253185,-80.92459968119715 287.86433999770503,-81.09358492348782 287.890071572314,-81.26299974664852 287.9131119785726,-81.4328015014035 287.9334554161815,-81.60294744106908 287.9510967637893,-81.77339473231481 287.96603158028097,-81.94410046594668 287.9782561058963,-82.1150216677091 287.98776726317647,-82.28611530910358 287.99456265773836,-82.45733831822086 287.9986405788778,-82.62864759058407 287.99999999999994,-82.8 288.0,-115.2 287.9986405788779,-115.37135240941593 287.9945626577384,-115.54266168177914 287.9877672631765,-115.71388469089642 287.9782561058963,-115.8849783322909 287.96603158028097,-116.05589953405332 287.95109676378934,-116.22660526768519 287.9334554161816,-116.39705255893092 287.9131119785726,-116.5671984985965 287.89007157231407,-116.73700025335148 287.8643399977051,-116.90641507651219 287.83592373253185,-117.07540031880285 287.8048299304372,-117.24391343909244 287.7710664191196,-117.41191201510406 287.7346416983624,-117.57935375409464 287.69556493789423,-117.74619650350182 287.6538459750807,-117.91239826155567 287.6094953124474,-118.07791718785238 287.5625241150366,-118.24271161388745 287.51294420759604,-118.40674005354538 287.4607680716022,-118.56996121354368 287.40600884211847,-118.73233400382816 287.34868030448786,-118.89381754791724 287.2887968908632,-119.05437119319222 287.2263736765736,-119.21395452113154 287.1614263763295,-119.3725273574858 287.09397134026636,-119.53004978239144 287.0240255498288,-119.68648214042038 286.9516066134955,-119.84178505056306 286.8767327623464,-119.99591941614236 286.7994228454732,-120.14884643465605 286.7196963252339,-120.30052760754498 286.6375732723537,-120.45092474988506 286.55307436087196,-120.60000000000001 286.46622086293775,-120.7477158289928 286.37703464345475,-120.89403505019342 286.2855381545768,-121.03892082852045 286.19175443005554,-121.182336689754 286.0957070794422,-121.32424652971794 285.9974202821436,-121.46461462336894 285.89691878133544,-121.60340563379013 285.794227877733,-121.74058462108681 285.6893734232221,-121.87611705118255 285.582381814351,-122.00996880451285 285.47327998568494,-122.14210618461462 285.362095403026,-122.27249592660908 285.2488560564982,-122.40110520557594 285.13359045350137,-122.52790164481704 285.01632761153473,-122.65285332400681 284.8970970508917,-122.77592878722827 284.7759287872283,-122.89709705089173 284.6528533240068,-123.01632761153476 284.52790164481706,-123.13359045350136 284.40110520557596,-123.24885605649816 284.2724959266091,-123.36209540302599 284.14210618461465,-123.47327998568497 284.0099688045129,-123.58238181435098 283.8761170511825,-123.68937342322211 283.7405846210868,-123.794227877733 283.60340563379015,-123.89691878133544 283.46461462336896,-123.99742028214364 283.3242465297179,-124.0957070794422 283.182336689754,-124.19175443005554 283.0389208285205,-124.28553815457676 282.89403505019345,-124.37703464345476 282.7477158289928,-124.46622086293775 282.6,-124.55307436087195 282.4509247498851,-124.63757327235369 282.300527607545,-124.71969632523388 282.14884643465604,-124.79942284547317 281.9959194161424,-124.87673276234644 281.8417850505631,-124.95160661349551 281.68648214042037,-125.02402554982879 281.5300497823914,-125.09397134026635 281.3725273574858,-125.1614263763295 281.21395452113154,-125.22637367657359 281.0543711931922,-125.28879689086315 280.8938175479172,-125.34868030448781 280.73233400382816,-125.40600884211842 280.56996121354365,-125.46076807160222 280.4067400535454,-125.512944207596 280.2427116138874,-125.56252411503658 280.0779171878524,-125.60949531244738 279.91239826155567,-125.65384597508066 279.74619650350184,-125.69556493789426 279.57935375409465,-125.7346416983624 279.41191201510406,-125.77106641911962 279.24391343909247,-125.80482993043724 279.07540031880285,-125.83592373253185 278.9064150765122,-125.86433999770506 278.7370002533515,-125.89007157231407 278.5671984985965,-125.9131119785726 278.3970525589309,-125.93345541618156 278.22660526768516,-125.95109676378931 278.0558995340533,-125.96603158028098 277.8849783322909,-125.97825610589636 277.7138846908964,-125.9877672631765 277.5426616817791,-125.99456265773841 277.3713524094159,-125.99864057887787 277.2,-126.0 190.79999999999998,-126.0 190.62864759058405,-125.99864057887787 190.45733831822088,-125.99456265773841 190.28611530910356,-125.9877672631765 190.1150216677091,-125.97825610589636 189.9441004659467,-125.96603158028098 189.77339473231484,-125.95109676378931 189.60294744106906,-125.93345541618156 189.4328015014035,-125.9131119785726 189.26299974664852,-125.89007157231407 189.0935849234878,-125.86433999770506 188.92459968119715,-125.83592373253185 188.75608656090756,-125.80482993043724 188.58808798489594,-125.77106641911962 188.42064624590537,-125.7346416983624 188.2538034964982,-125.69556493789426 188.08760173844433,-125.65384597508066 187.9220828121476,-125.6094953124474 187.75728838611255,-125.56252411503658 187.59325994645465,-125.512944207596 187.43003878645632,-125.46076807160222 187.26766599617181,-125.40600884211842 187.10618245208278,-125.34868030448781 186.9456288068078,-125.28879689086315 186.78604547886846,-125.22637367657359 186.6274726425142,-125.16142637632947 186.46995021760856,-125.09397134026635 186.31351785957963,-125.02402554982882 186.15821494943694,-124.95160661349551 186.00408058385764,-124.87673276234644 185.85115356534396,-124.79942284547317 185.69947239245502,-124.71969632523388 185.54907525011492,-124.63757327235369 185.39999999999998,-124.55307436087195 185.2522841710072,-124.46622086293775 185.10596494980658,-124.37703464345476 184.96107917147955,-124.28553815457676 184.81766331024602,-124.19175443005554 184.67575347028207,-124.0957070794422 184.53538537663104,-123.99742028214364 184.39659436620988,-123.89691878133544 184.2594153789132,-123.794227877733 184.12388294881745,-123.68937342322211 183.99003119548715,-123.58238181435098 183.85789381538538,-123.47327998568497 183.7275040733909,-123.36209540302599 183.59889479442404,-123.24885605649816 183.47209835518296,-123.13359045350136 183.34714667599317,-123.01632761153476 183.22407121277172,-122.89709705089173 183.10290294910828,-122.77592878722827 182.98367238846524,-122.65285332400681 182.86640954649863,-122.52790164481704 182.75114394350186,-122.40110520557594 182.63790459697398,-122.27249592660908 182.52672001431503,-122.14210618461463 182.41761818564902,-122.00996880451285 182.3106265767779,-121.87611705118255 182.205772122267,-121.74058462108681 182.10308121866458,-121.60340563379013 182.00257971785638,-121.46461462336896 181.9042929205578,-121.32424652971794 181.80824556994446,-121.182336689754 181.71446184542322,-121.03892082852047 181.62296535654525,-120.89403505019342 181.53377913706225,-120.7477158289928 181.44692563912804,-120.60000000000001 181.36242672764632,-120.45092474988506 181.28030367476612,-120.30052760754498 181.20057715452683,-120.14884643465605 181.12326723765355,-119.99591941614236 181.04839338650447,-119.84178505056306 180.97597445017118,-119.68648214042038 180.90602865973364,-119.53004978239144 180.8385736236705,-119.3725273574858 180.7736263234264,-119.21395452113154 180.71120310913685,-119.05437119319222 180.65131969551217,-118.89381754791724 180.59399115788156,-118.73233400382816 180.53923192839778,-118.56996121354368 180.487055792404,-118.40674005354538 180.43747588496345,-118.24271161388745 180.3905046875526,-118.07791718785239 180.34615402491934,-117.91239826155567 180.30443506210574,-117.74619650350182 180.2653583016376,-117.57935375409464 180.22893358088038,-117.41191201510406 180.19517006956278,-117.24391343909244 180.16407626746815,-117.07540031880285 180.13566000229494,-116.90641507651219 180.10992842768593,-116.73700025335148 180.08688802142743,-116.5671984985965 180.06654458381843,-116.39705255893094 180.0489032362107,-116.22660526768517 180.03396841971903,-116.05589953405332 180.02174389410365,-115.8849783322909 180.01223273682348,-115.71388469089642 180.0054373422616,-115.54266168177914 180.00135942112215,-115.37135240941593 180.0,-115.2 180.0,-82.8 180.00135942112215,-82.62864759058407 180.0054373422616,-82.45733831822086 180.01223273682348,-82.28611530910358 180.02174389410365,-82.1150216677091 180.03396841971903,-81.94410046594668 180.0489032362107,-81.77339473231481 180.06654458381843,-81.60294744106908 180.08688802142743,-81.4328015014035 180.10992842768593,-81.26299974664852 180.13566000229494,-81.09358492348782 180.16407626746815,-80.92459968119715 180.19517006956278,-80.75608656090756 180.22893358088038,-80.58808798489594 180.2653583016376,-80.42064624590536 180.30443506210574,-80.25380349649818 180.34615402491934,-80.08760173844433 180.3905046875526,-79.92208281214762 180.43747588496342,-79.75728838611255 180.487055792404,-79.59325994645462 180.53923192839778,-79.43003878645632 180.59399115788156,-79.26766599617184 180.65131969551217,-79.10618245208276 180.71120310913685,-78.94562880680778 180.7736263234264,-78.78604547886846 180.8385736236705,-78.6274726425142 180.90602865973364,-78.46995021760856 180.97597445017118,-78.31351785957962 181.04839338650447,-78.15821494943694 181.12326723765355,-78.00408058385764 181.20057715452683,-77.85115356534396 181.28030367476612,-77.69947239245502 181.36242672764632,-77.54907525011494 181.44692563912804,-77.39999999999999 181.53377913706225,-77.2522841710072 181.62296535654525,-77.10596494980658 181.71446184542322,-76.96107917147955 181.80824556994446,-76.817663310246 181.9042929205578,-76.67575347028206 182.00257971785638,-76.53538537663106 182.10308121866458,-76.39659436620987 182.205772122267,-76.25941537891319 182.3106265767779,-76.12388294881745 182.41761818564902,-75.99003119548715 182.52672001431503,-75.85789381538538 182.63790459697398,-75.72750407339092 182.75114394350183,-75.59889479442406 182.86640954649863,-75.47209835518296 182.98367238846524,-75.34714667599319 183.10290294910828,-75.22407121277173 183.22407121277172,-75.10290294910827 183.34714667599317,-74.98367238846524 183.47209835518296,-74.86640954649864 183.59889479442404,-74.75114394350184 183.7275040733909,-74.63790459697401 183.85789381538538,-74.52672001431503 183.99003119548715,-74.41761818564902 184.12388294881745,-74.31062657677789 184.2594153789132,-74.205772122267 184.39659436620988,-74.10308121866456 184.53538537663104,-74.00257971785636 184.67575347028205,-73.9042929205578 184.81766331024602,-73.80824556994446 184.96107917147955,-73.71446184542324 185.10596494980658,-73.62296535654524 185.2522841710072,-73.53377913706225 185.4,-73.44692563912805 185.54907525011492,-73.36242672764631 185.69947239245502,-73.28030367476612 185.85115356534396,-73.20057715452683 186.00408058385764,-73.12326723765356 186.15821494943694,-73.04839338650449 186.31351785957963,-72.97597445017118 186.46995021760856,-72.90602865973365 186.6274726425142,-72.83857362367053 186.78604547886846,-72.77362632342641 186.9456288068078,-72.71120310913685 187.10618245208278,-72.65131969551219 187.26766599617181,-72.59399115788158 187.43003878645632,-72.53923192839778 187.59325994645462,-72.487055792404 187.75728838611255,-72.43747588496342 187.9220828121476,-72.39050468755262 188.08760173844433,-72.34615402491934 188.2538034964982,-72.30443506210574 188.42064624590535,-72.2653583016376 188.58808798489594,-72.22893358088038 188.75608656090756,-72.19517006956276 188.92459968119715,-72.16407626746815 189.0935849234878,-72.13566000229494 189.26299974664852,-72.10992842768593 189.4328015014035,-72.0868880214274 189.60294744106906,-72.06654458381844 189.77339473231484,-72.04890323621069 189.9441004659467,-72.03396841971902 190.1150216677091,-72.02174389410364 190.28611530910356,-72.0122327368235 190.45733831822088,-72.00543734226159 190.62864759058408,-72.00135942112213 190.79999999999998,-71.99999999999999 277.2,-71.99999999999999 " style="stroke:#FFFFFF;fill:none;stroke-width:2;stroke-dasharray:-;stroke-linecap:round;stroke-linejoin:round;" /><path d="M 0.0,-0.0 L 0.0,-0.0 M 2.204364238465236e-15,-36.0 L 2.204364238465236e-15,-36.0" style="stroke:#FFFFFF;fill:none;stroke-width:2;stroke-dasharray:-;stroke-linecap:round;stroke-linejoin:round;" /><path d="M 9.000000000000002,-18.0 L 8.25,-19.863497124738156 L 7.500000000000002,-21.599999999999998 L 6.750000000000001,-23.091168824543143 L 6.000000000000002,-24.235382907247956 L 5.250000000000003,-24.95466594928129 L 4.500000000000002,-25.2 L 3.750000000000002,-24.954665949281292 L 3.0000000000000018,-24.23538290724796 L 2.2500000000000013,-23.09116882454314 L 1.500000000000002,-21.6 L 0.7500000000000016,-19.863497124738153 L 1.102182119232618e-15,-18.0 L -0.7499999999999983,-16.13650287526185 L -1.4999999999999978,-14.400000000000002 L -2.249999999999999,-12.908831175456855 L -2.9999999999999987,-11.764617092752044 L -3.7499999999999982,-11.045334050718708 L -4.499999999999999,-10.799999999999999 L -5.249999999999998,-11.045334050718706 L -5.999999999999997,-11.76461709275204 L -6.749999999999999,-12.908831175456857 L -7.499999999999998,-14.399999999999999 L -8.249999999999998,-16.136502875261847 L -8.999999999999998,-18.0" style="stroke:#FFFFFF;fill:none;stroke-width:2;stroke-dasharray:-;stroke-linecap:round;stroke-linejoin:round;" /><path d="M 2.204364238465236e-15,-36.0 L 3.3065463576978533e-15,-54.0 L 4.408728476930472e-15,-72.0" style="stroke:#FFFFFF;fill:none;stroke-width:2;stroke-dasharray:-;stroke-linecap:round;stroke-linejoin:round;" /><path d="M 4.408728476930472e-15,-72.0 L 18.000000000000004,-72.0 L 36.00000000000001,-72.0" style="stroke:#FFFFFF;fill:none;stroke-width:2;stroke-dasharray:-;stroke-linecap:round;stroke-linejoin:round;" /><path d="M 36.00000000000001,-72.0 L 72.0,-72.0 L 108.0,-72.0" style="stroke:#FFFFFF;fill:none;stroke-width:2;stroke-dasharray:-;stroke-linecap:round;stroke-linejoin:round;" /><path d="M 108.0,-72.0 L 126.0,-72.0 L 144.0,-72.0" style="stroke:#FFFFFF;fill:none;stroke-width:2;stroke-dasharray:-;stroke-linecap:round;stroke-linejoin:round;" /><path d="M 144.0,-72.0 L 144.0,-45.0 L 143.99999999999997,-18.0" style="stroke:#FFFFFF;fill:none;stroke-width:2;stroke-dasharray:-;stroke-linecap:round;stroke-linejoin:round;" /><path d="M 143.99999999999997,-18.0 L 162.0,-18.0 L 180.0,-18.0" style="stroke:#FFFFFF;fill:none;stroke-width:2;stroke-dasharray:-;stroke-linecap:round;stroke-linejoin:round;" /><path d="M 181.26,-33.120000000000005 L 181.26,-55.800000000000004" style="stroke:#666666;fill:none;stroke-width:0.3;stroke-dasharray:-;stroke-linecap:round;stroke-linejoin:round;" /><path d="M 188.82,-33.120000000000005 L 188.82,-55.800000000000004" style="stroke:#666666;fill:none;stroke-width:0.3;stroke-dasharray:-;stroke-linecap:round;stroke-linejoin:round;" /><path d="M 196.38,-33.120000000000005 L 196.38,-55.800000000000004" style="stroke:#666666;fill:none;stroke-width:0.3;stroke-dasharray:-;stroke-linecap:round;stroke-linejoin:round;" /><path d="M 203.94,-33.120000000000005 L 203.94,-55.800000000000004" style="stroke:#666666;fill:none;stroke-width:0.3;stroke-dasharray:-;stroke-linecap:round;stroke-linejoin:round;" /><path d="M 173.70000000000002,-40.68000000000001 L 211.5,-40.68000000000001" style="stroke:#666666;fill:none;stroke-width:0.3;stroke-dasharray:-;stroke-linecap:round;stroke-linejoin:round;" /><path d="M 173.70000000000002,-48.24 L 211.5,-48.24" style="stroke:#666666;fill:none;stroke-width:0.3;stroke-dasharray:-;stroke-linecap:round;stroke-linejoin:round;" /><path d="M 173.70000000000002,-44.46 L 175.68947368421053,-47.22156898558583 L 177.67894736842106,-49.683879121425626 L 179.66842105263157,-51.580100897622806 L 181.65789473684208,-52.70474926181401 L 183.64736842105265,-52.93595111302173 L 185.63684210526316,-52.24865214320127 L 187.6263157894737,-50.71733186027499 L 189.6157894736842,-48.50793257778031 L 191.60526315789474,-45.85987699033764 L 193.59473684210525,-43.06012300966236 L 195.58421052631576,-40.41206742221969 L 197.57368421052632,-38.20266813972502 L 199.56315789473683,-36.67134785679874 L 201.55263157894737,-35.98404888697828 L 203.54210526315788,-36.215250738186 L 205.5315789473684,-37.3398991023772 L 207.52105263157895,-39.23612087857438 L 209.51052631578946,-41.698431014414176 L 211.5,-44.46" style="stroke:#e0213b;fill:none;stroke-width:1;stroke-dasharray:-;stroke-linecap:round;stroke-linejoin:round;" /><path d="M 205.20000000000002,-18.0 L 232.20000000000002,-18.0 L 259.2,-18.0" style="stroke:#FFFFFF;fill:none;stroke-width:2;stroke-dasharray:-;stroke-linecap:round;stroke-linejoin:round;" /><path d="M 367.2,-18.0 L 385.2,-18.0 L 403.2,-18.0" style="stroke:#FFFFFF;fill:none;stroke-width:2;stroke-dasharray:-;stroke-linecap:round;stroke-linejoin:round;" /><path d="M 403.2,-18.0 L 403.2,-9.0 L 403.2,-0.0" style="stroke:#FFFFFF;fill:none;stroke-width:2;stroke-dasharray:-;stroke-linecap:round;stroke-linejoin:round;" /><path d="M 403.2,-0.0 L 403.2,18.0 L 403.2,36.0" style="stroke:#FFFFFF;fill:none;stroke-width:2;stroke-dasharray:-;stroke-linecap:round;stroke-linejoin:round;" /><path d="M 144.0,-72.0 L 144.0,-85.5 L 144.0,-99.0" style="stroke:#FFFFFF;fill:none;stroke-width:2;stroke-dasharray:-;stroke-linecap:round;stroke-linejoin:round;" /><path d="M 144.0,-99.0 L 162.0,-99.0 L 180.0,-99.0" style="stroke:#FFFFFF;fill:none;stroke-width:2;stroke-dasharray:-;stroke-linecap:round;stroke-linejoin:round;" /><path d="M 288.0,-99.0 L 345.59999999999997,-99.0 L 403.2,-99.0" style="stroke:#FFFFFF;fill:none;stroke-width:2;stroke-dasharray:-;stroke-linecap:round;stroke-linejoin:round;" /><path d="M 403.2,-99.0 L 403.2,-31.5 L 403.2,36.0" style="stroke:#FFFFFF;fill:none;stroke-width:2;stroke-dasharray:-;stroke-linecap:round;stroke-linejoin:round;" /><path d="M 403.2,36.0 L 201.6,35.99999999999998 L 0.0,35.99999999999995" style="stroke:#FFFFFF;fill:none;stroke-width:2;stroke-dasharray:-;stroke-linecap:round;stroke-linejoin:round;" /><path d="M 0.0,35.99999999999995 L 1.1021821192326163e-15,17.999999999999975 L 2.2043642384652327e-15,-0.0" style="stroke:#FFFFFF;fill:none;stroke-width:2;stroke-dasharray:-;stroke-linecap:round;stroke-linejoin:round;" /><text x="-21.599999999999998" y="-31.0" dominant-baseline="central" fill="#FFFFFF" font-size="13" font-family="sans" text-anchor="end"><tspan x="-21.599999999999998" dy="13">V<tspan baseline-shift="-2" font-size="smaller">s</tspan></tspan></text><text x="192.6" y="-77.8" dominant-baseline="ideographic" fill="#FFFFFF" font-size="13" font-family="sans" text-anchor="middle"><tspan x="192.6" dy="13">Measurement Device</tspan></text><text x="313.2" y="-31.0" dominant-baseline="central" fill="#FFFFFF" font-size="13" font-family="sans" text-anchor="middle"><tspan x="313.2" dy="13">Appliance A</tspan></text><text x="234.0" y="-112.0" dominant-baseline="central" fill="#FFFFFF" font-size="13" font-family="sans" text-anchor="middle"><tspan x="234.0" dy="13">Appliance A</tspan></text><circle cx="180.0" cy="-18.0" r="3.6" style="stroke:#FFFFFF;fill:none;stroke-width:1;stroke-dasharray:-;" /><circle cx="205.20000000000002" cy="-18.0" r="3.6" style="stroke:#FFFFFF;fill:none;stroke-width:1;stroke-dasharray:-;" /></svg>