<svg xmlns="http://www.w3.org/2000/svg" xmlns:xlink="http://www.w3.org/1999/xlink" xml:lang="en" height="189.2pt" width="301.052pt" viewBox="-44.45199999999999 -76.6 301.052 189.2"><circle cx="1.102182119232618e-15" cy="-18.0" r="18.0" style="stroke:#FFFFFF;fill:none;stroke-width:2;stroke-dasharray:-;" /><polygon points="97.2,35.99999999999999 97.37135240941593,35.99864057887784 97.54266168177914,35.99456265773839 97.71388469089642,35.98776726317648 97.8849783322909,35.97825610589634 98.05589953405332,35.96603158028097 98.22660526768519,35.9510967637893 98.39705255893094,35.93345541618154 98.5671984985965,35.91311197857258 98.73700025335148,35.89007157231406 98.90641507651219,35.86433999770505 99.07540031880285,35.83592373253184 99.24391343909244,35.80482993043722 99.41191201510406,35.7710664191196 99.57935375409464,35.73464169836239 99.74619650350182,35.69556493789424 99.91239826155567,35.653845975080635 100.07791718785238,35.609495312447365 100.24271161388745,35.56252411503657 100.40674005354538,35.51294420759599 100.56996121354368,35.4607680716022 100.73233400382816,35.40600884211841 100.89381754791724,35.3486803044878 101.05437119319222,35.28879689086314 101.21395452113154,35.22637367657357 101.3725273574858,35.16142637632947 101.53004978239144,35.09397134026634 101.68648214042038,35.02402554982879 101.84178505056306,34.9516066134955 101.99591941614236,34.876732762346414 102.14884643465605,34.79942284547316 102.30052760754498,34.719696325233876 102.45092474988506,34.63757327235367 102.60000000000001,34.553074360871925 102.7477158289928,34.46622086293774 102.89403505019342,34.37703464345474 103.03892082852045,34.28553815457674 103.182336689754,34.19175443005552 103.32424652971794,34.095707079442185 103.46461462336896,33.997420282143615 103.60340563379013,33.89691878133542 103.74058462108681,33.79422787773298 103.87611705118255,33.689373423222094 104.00996880451285,33.58238181435096 104.14210618461463,33.473279985684954 104.27249592660908,33.36209540302598 104.40110520557594,33.24885605649814 104.52790164481704,33.13359045350135 104.65285332400681,33.01632761153475 104.77592878722827,32.89709705089171 104.89709705089173,32.77592878722826 105.01632761153476,32.6528533240068 105.13359045350136,32.52790164481702 105.24885605649816,32.40110520557594 105.36209540302599,32.27249592660907 105.47327998568497,32.14210618461461 105.58238181435098,32.00996880451283 105.68937342322211,31.876117051182526 105.794227877733,31.74058462108679 105.89691878133544,31.603405633790103 105.99742028214364,31.46461462336893 106.0957070794422,31.324246529717914 106.19175443005554,31.18233668975398 106.28553815457676,31.038920828520446 106.37703464345476,30.894035050193416 106.46622086293775,30.747715828992774 106.55307436087195,30.599999999999987 106.63757327235369,30.45092474988505 106.71969632523388,30.30052760754496 106.79942284547317,30.148846434656022 106.87673276234644,29.99591941614235 106.95160661349551,29.841785050563043 107.02402554982882,29.686482140420363 107.09397134026635,29.530049782391416 107.1614263763295,29.372527357485776 107.22637367657359,29.213954521131527 107.28879689086315,29.054371193192207 107.34868030448781,28.893817547917212 107.40600884211842,28.732334003828143 107.46076807160222,28.56996121354365 107.512944207596,28.40674005354536 107.56252411503658,28.242711613887426 107.6094953124474,28.077917187852368 107.65384597508066,27.912398261555644 107.69556493789426,27.746196503501807 107.7346416983624,27.57935375409463 107.77106641911962,27.411912015104047 107.80482993043724,27.243913439092424 107.83592373253185,27.07540031880284 107.86433999770506,26.906415076512168 107.89007157231407,26.737000253351468 107.9131119785726,26.567198498596483 107.93345541618156,26.39705255893091 107.95109676378931,26.226605267685162 107.96603158028098,26.055899534053303 107.97825610589636,25.884978332290885 107.9877672631765,25.713884690896407 107.99456265773841,25.542661681779123 107.99864057887787,25.371352409415916 108.0,25.19999999999999 108.0,10.799999999999994 107.99864057887787,10.628647590584068 107.99456265773841,10.457338318220863 107.9877672631765,10.286115309103577 107.97825610589636,10.115021667709097 107.96603158028098,9.94410046594668 107.95109676378931,9.77339473231482 107.93345541618156,9.602947441069073 107.9131119785726,9.432801501403501 107.89007157231407,9.262999746648514 107.86433999770506,9.093584923487814 107.83592373253185,8.924599681197147 107.80482993043724,8.756086560907564 107.77106641911962,8.588087984895935 107.7346416983624,8.420646245905356 107.69556493789426,8.25380349649818 107.65384597508066,8.08760173844434 107.60949531244738,7.922082812147617 107.56252411503658,7.757288386112554 107.512944207596,7.593259946454626 107.46076807160222,7.430038786456334 107.40600884211842,7.267665996171841 107.34868030448781,7.106182452082772 107.28879689086315,6.945628806807779 107.22637367657359,6.786045478868457 107.16142637632947,6.627472642514206 107.09397134026635,6.469950217608567 107.02402554982879,6.313517859579621 106.95160661349551,6.158214949436942 106.87673276234644,6.004080583857634 106.79942284547317,5.851153565343963 106.71969632523388,5.699472392455022 106.63757327235369,5.549075250114933 106.55307436087195,5.399999999999996 106.46622086293775,5.252284171007207 106.37703464345476,5.105964949806568 106.28553815457676,4.961079171479541 106.19175443005554,4.817663310246005 106.0957070794422,4.675753470282071 105.99742028214364,4.535385376631054 105.89691878133544,4.396594366209879 105.794227877733,4.259415378913196 105.68937342322211,4.123882948817459 105.58238181435097,3.990031195487152 105.47327998568497,3.8578938153853706 105.36209540302599,3.7275040733909166 105.24885605649816,3.5988947944240466 105.13359045350136,3.472098355182967 105.01632761153476,3.3471466759931854 104.89709705089173,3.2240712127717264 104.77592878722827,3.1029029491082767 104.65285332400681,2.983672388465238 104.52790164481704,2.866409546498636 104.40110520557594,2.751143943501846 104.27249592660908,2.637904596974007 104.14210618461462,2.5267200143150323 104.00996880451285,2.4176181856490224 103.87611705118255,2.310626576777891 103.74058462108681,2.205772122267009 103.60340563379013,2.103081218664563 103.46461462336894,2.0025797178563702 103.32424652971794,1.904292920557803 103.182336689754,1.8082455699444653 103.03892082852045,1.714461845423239 102.89403505019342,1.6229653565452402 102.7477158289928,1.533779137062245 102.60000000000001,1.4469256391280592 102.45092474988506,1.3624267276463187 102.30052760754498,1.2803036747661096 102.14884643465605,1.2005771545268225 101.99591941614236,1.123267237653569 101.84178505056306,1.0483933865044865 101.68648214042038,0.9759744501711984 101.53004978239144,0.9060286597336444 101.3725273574858,0.8385736236705177 101.21395452113154,0.7736263234264127 101.05437119319222,0.7112031091368449 100.89381754791724,0.6513196955121854 100.73233400382816,0.5939911578815771 100.56996121354368,0.5392319283977849 100.40674005354538,0.48705579240399777 100.24271161388745,0.4374758849634248 100.07791718785239,0.39050468755262235 99.91239826155567,0.3461540249193493 99.74619650350182,0.30443506210574656 99.57935375409464,0.2653583016375991 99.41191201510406,0.22893358088038518 99.24391343909244,0.19517006956276317 99.07540031880285,0.16407626746815018 98.90641507651219,0.1356600022949377 98.73700025335148,0.10992842768592381 98.5671984985965,0.08688802142740593 98.39705255893094,0.06654458381845108 98.22660526768519,0.048903236210682044 98.05589953405332,0.03396841971901865 97.8849783322909,0.02174389410364408 97.71388469089642,0.012232736823510004 97.54266168177914,0.005437342261596312 97.37135240941593,0.0013594211221452657 97.2,-3.9968028886505635e-15 46.8,-5.995204332975845e-15 46.62864759058407,0.0013594211221432673 46.45733831822086,0.0054373422615943134 46.28611530910358,0.012232736823508006 46.1150216677091,0.02174389410364208 45.944100465946676,0.03396841971901665 45.77339473231482,0.048903236210680046 45.60294744106908,0.06654458381844908 45.4328015014035,0.08688802142740393 45.26299974664851,0.10992842768591982 45.09358492348782,0.1356600022949357 44.924599681197144,0.16407626746814818 44.75608656090756,0.19517006956276117 44.588087984895935,0.22893358088038318 44.42064624590535,0.2653583016375971 44.25380349649818,0.30443506210574456 44.08760173844434,0.3461540249193473 43.922082812147615,0.39050468755261836 43.75728838611255,0.4374758849634228 43.59325994645462,0.48705579240399577 43.430038786456336,0.5392319283977829 43.26766599617184,0.5939911578815751 43.10618245208277,0.6513196955121834 42.94562880680778,0.7112031091368409 42.78604547886846,0.7736263234264087 42.627472642514206,0.8385736236705157 42.46995021760856,0.9060286597336424 42.31351785957962,0.9759744501711944 42.158214949436946,1.0483933865044845 42.00408058385763,1.123267237653567 41.851153565343964,1.2005771545268205 41.69947239245502,1.2803036747661076 41.54907525011494,1.3624267276463147 41.39999999999999,1.4469256391280592 41.252284171007204,1.533779137062241 41.10596494980657,1.6229653565452402 40.96107917147954,1.714461845423239 40.817663310246,1.8082455699444633 40.675753470282075,1.9042929205578 40.535385376631055,2.002579717856367 40.39659436620988,2.1030812186645598 40.2594153789132,2.205772122267005 40.12388294881746,2.3106265767778895 39.990031195487155,2.4176181856490206 39.85789381538537,2.5267200143150315 39.72750407339092,2.6379045969740047 39.59889479442405,2.751143943501842 39.47209835518297,2.866409546498633 39.34714667599319,2.983672388465235 39.22407121277172,3.1029029491082767 39.10290294910828,3.2240712127717255 38.98367238846523,3.3471466759931845 38.86640954649863,3.472098355182966 38.751143943501845,3.5988947944240426 38.63790459697401,3.7275040733909135 38.52672001431503,3.857893815385368 38.41761818564902,3.990031195487152 38.31062657677789,4.123882948817454 38.20577212226701,4.259415378913195 38.103081218664556,4.396594366209878 38.002579717856364,4.535385376631052 37.90429292055779,4.675753470282069 37.80824556994447,4.817663310246002 37.71446184542324,4.961079171479538 37.62296535654524,5.105964949806564 37.53377913706224,5.252284171007206 37.44692563912806,5.399999999999995 37.362426727646316,5.549075250114932 37.28030367476611,5.699472392455021 37.200577154526826,5.85115356534396 37.123267237653565,6.004080583857636 37.048393386504486,6.158214949436938 36.97597445017119,6.313517859579621 36.90602865973365,6.469950217608563 36.83857362367051,6.6274726425142045 36.77362632342641,6.786045478868456 36.71120310913685,6.945628806807776 36.651319695512186,7.10618245208277 36.593991157881575,7.267665996171838 36.53923192839778,7.430038786456335 36.487055792404,7.593259946454622 36.43747588496342,7.757288386112553 36.39050468755262,7.9220828121476154 36.34615402491934,8.087601738444338 36.30443506210574,8.253803496498179 36.265358301637605,8.420646245905353 36.22893358088039,8.588087984895937 36.195170069562764,8.75608656090756 36.164076267468154,8.924599681197147 36.135660002294934,9.093584923487814 36.10992842768593,9.262999746648514 36.086888021427406,9.432801501403501 36.06654458381845,9.602947441069073 36.048903236210684,9.773394732314824 36.03396841971902,9.944100465946676 36.021743894103636,10.115021667709097 36.012232736823506,10.286115309103577 36.00543734226159,10.457338318220863 36.001359421122146,10.628647590584068 35.99999999999999,10.799999999999992 35.99999999999999,25.2 36.001359421122146,25.37135240941592 36.00543734226159,25.542661681779126 36.012232736823506,25.71388469089641 36.02174389410364,25.884978332290896 36.03396841971902,26.055899534053314 36.048903236210684,26.22660526768517 36.06654458381845,26.397052558930913 36.086888021427406,26.56719849859649 36.10992842768593,26.737000253351475 36.135660002294934,26.90641507651217 36.164076267468154,27.075400318802842 36.195170069562764,27.243913439092424 36.22893358088039,27.411912015104058 36.265358301637605,27.579353754094637 36.30443506210574,27.74619650350181 36.34615402491934,27.91239826155565 36.39050468755262,28.07791718785237 36.43747588496342,28.242711613887437 36.487055792404,28.406740053545363 36.53923192839779,28.56996121354366 36.593991157881575,28.73233400382815 36.651319695512186,28.89381754791722 36.71120310913685,29.05437119319221 36.77362632342641,29.213954521131534 36.83857362367051,29.372527357485783 36.90602865973365,29.530049782391423 36.97597445017119,29.686482140420367 37.048393386504486,29.841785050563047 37.12326723765357,29.995919416142357 37.200577154526826,30.14884643465603 37.28030367476611,30.30052760754497 37.362426727646316,30.450924749885054 37.44692563912806,30.599999999999994 37.53377913706225,30.747715828992785 37.62296535654524,30.89403505019342 37.71446184542324,31.03892082852045 37.80824556994447,31.182336689753985 37.90429292055781,31.324246529717918 38.00257971785637,31.464614623368934 38.10308121866456,31.60340563379011 38.205772122267014,31.740584621086796 38.31062657677789,31.876117051182533 38.41761818564903,32.00996880451284 38.52672001431503,32.14210618461461 38.63790459697401,32.272495926609075 38.751143943501845,32.401105205575945 38.866409546498645,32.52790164481702 38.98367238846524,32.6528533240068 39.10290294910828,32.77592878722826 39.22407121277173,32.89709705089171 39.34714667599319,33.01632761153475 39.47209835518297,33.133590453501355 39.59889479442405,33.24885605649814 39.72750407339092,33.36209540302598 39.85789381538537,33.473279985684954 39.990031195487155,33.58238181435097 40.12388294881746,33.689373423222094 40.2594153789132,33.79422787773298 40.39659436620988,33.89691878133543 40.535385376631055,33.99742028214362 40.675753470282075,34.095707079442185 40.817663310246004,34.191754430055525 40.96107917147955,34.28553815457675 41.10596494980657,34.37703464345475 41.252284171007204,34.466220862937746 41.4,34.55307436087193 41.54907525011494,34.63757327235367 41.69947239245503,34.719696325233876 41.851153565343964,34.79942284547316 42.00408058385764,34.87673276234642 42.158214949436946,34.9516066134955 42.313517859579626,35.02402554982879 42.46995021760857,35.09397134026634 42.627472642514206,35.16142637632947 42.78604547886846,35.22637367657358 42.94562880680778,35.288796890863146 43.10618245208278,35.3486803044878 43.26766599617184,35.40600884211841 43.430038786456336,35.4607680716022 43.59325994645462,35.51294420759599 43.75728838611255,35.56252411503657 43.922082812147615,35.609495312447365 44.08760173844434,35.65384597508064 44.25380349649818,35.69556493789424 44.42064624590535,35.73464169836239 44.58808798489594,35.7710664191196 44.75608656090757,35.80482993043722 44.924599681197144,35.83592373253184 45.09358492348782,35.86433999770505 45.26299974664851,35.89007157231406 45.4328015014035,35.91311197857258 45.60294744106908,35.93345541618154 45.77339473231482,35.9510967637893 45.944100465946676,35.96603158028097 46.1150216677091,35.97825610589634 46.28611530910358,35.98776726317648 46.45733831822086,35.99456265773839 46.62864759058407,35.99864057887784 46.8,35.99999999999999 97.2,35.99999999999999 " style="stroke:#FFFFFF;fill:none;stroke-width:2;stroke-dasharray:-;stroke-linecap:round;stroke-linejoin:round;" /><polygon points="241.20000000000002,36.0 241.37135240941595,35.99864057887785 241.54266168177912,35.9945626577384 241.71388469089644,35.98776726317649 241.8849783322909,35.97825610589635 242.0558995340533,35.966031580280976 242.22660526768516,35.95109676378931 242.39705255893094,35.933455416181545 242.5671984985965,35.91311197857259 242.73700025335148,35.89007157231407 242.9064150765122,35.86433999770506 243.07540031880288,35.835923732531846 243.24391343909244,35.804829930437236 243.41191201510406,35.771066419119606 243.57935375409465,35.734641698362395 243.7461965035018,35.69556493789425 243.91239826155567,35.65384597508064 244.0779171878524,35.60949531244737 244.24271161388745,35.562524115036574 244.40674005354538,35.512944207596 244.56996121354368,35.46076807160221 244.73233400382819,35.40600884211842 244.89381754791722,35.34868030448781 245.0543711931922,35.288796890863146 245.21395452113154,35.22637367657358 245.3725273574858,35.16142637632948 245.53004978239144,35.09397134026635 245.68648214042037,35.0240255498288 245.84178505056306,34.95160661349551 245.99591941614236,34.87673276234642 246.14884643465604,34.79942284547317 246.30052760754498,34.71969632523388 246.45092474988508,34.63757327235368 246.60000000000002,34.55307436087193 246.7477158289928,34.466220862937746 246.89403505019342,34.37703464345475 247.03892082852045,34.285538154576756 247.18233668975398,34.191754430055525 247.32424652971793,34.09570707944219 247.46461462336896,33.99742028214362 247.60340563379012,33.89691878133543 247.7405846210868,33.794227877732986 247.87611705118255,33.68937342322211 248.00996880451285,33.58238181435097 248.14210618461462,33.47327998568496 248.2724959266091,33.36209540302599 248.40110520557596,33.24885605649815 248.52790164481704,33.133590453501355 248.65285332400683,33.016327611534756 248.77592878722828,32.897097050891716 248.89709705089172,32.77592878722827 249.01632761153476,32.652853324006806 249.13359045350137,32.52790164481703 249.24885605649817,32.401105205575945 249.36209540302602,32.272495926609075 249.47327998568497,32.14210618461462 249.58238181435098,32.00996880451284 249.6893734232221,31.876117051182533 249.794227877733,31.7405846210868 249.89691878133542,31.60340563379011 249.99742028214362,31.464614623368938 250.0957070794422,31.32424652971792 250.19175443005554,31.18233668975399 250.28553815457678,31.038920828520453 250.37703464345475,30.894035050193423 250.46622086293775,30.747715828992785 250.55307436087196,30.599999999999994 250.63757327235368,30.450924749885058 250.71969632523388,30.30052760754497 250.79942284547317,30.14884643465603 250.87673276234645,29.995919416142357 250.95160661349553,29.84178505056305 251.02402554982882,29.68648214042037 251.09397134026636,29.530049782391426 251.1614263763295,29.372527357485783 251.2263736765736,29.213954521131534 251.28879689086315,29.054371193192214 251.34868030448783,28.89381754791722 251.40600884211844,28.73233400382815 251.46076807160222,28.56996121354366 251.512944207596,28.406740053545366 251.56252411503658,28.242711613887437 251.6094953124474,28.07791718785238 251.65384597508066,27.912398261555655 251.69556493789426,27.746196503501814 251.7346416983624,27.579353754094637 251.77106641911962,27.411912015104058 251.80482993043722,27.24391343909243 251.83592373253185,27.075400318802846 251.86433999770506,26.906415076512175 251.89007157231407,26.737000253351475 251.91311197857257,26.56719849859649 251.93345541618157,26.397052558930916 251.9510967637893,26.22660526768517 251.96603158028097,26.055899534053314 251.97825610589635,25.884978332290896 251.98776726317652,25.713884690896414 251.9945626577384,25.54266168177913 251.99864057887785,25.371352409415923 252.0,25.2 252.0,10.8 251.99864057887785,10.628647590584075 251.9945626577384,10.45733831822087 251.98776726317652,10.286115309103586 251.97825610589635,10.115021667709104 251.96603158028097,9.944100465946686 251.9510967637893,9.773394732314829 251.93345541618157,9.602947441069082 251.91311197857257,9.432801501403508 251.89007157231407,9.262999746648523 251.86433999770506,9.093584923487823 251.83592373253185,8.924599681197154 251.80482993043722,8.756086560907573 251.77106641911962,8.588087984895942 251.7346416983624,8.420646245905363 251.69556493789426,8.253803496498188 251.65384597508066,8.087601738444347 251.6094953124474,7.922082812147625 251.56252411503655,7.757288386112562 251.512944207596,7.593259946454634 251.46076807160222,7.430038786456342 251.40600884211844,7.267665996171849 251.34868030448783,7.1061824520827805 251.28879689086315,6.945628806807787 251.2263736765736,6.786045478868465 251.1614263763295,6.627472642514214 251.09397134026636,6.4699502176085755 251.02402554982882,6.31351785957963 250.95160661349553,6.15821494943695 250.87673276234645,6.004080583857642 250.79942284547317,5.851153565343971 250.71969632523388,5.69947239245503 250.63757327235368,5.5490752501149405 250.55307436087196,5.400000000000004 250.46622086293775,5.252284171007215 250.37703464345475,5.105964949806576 250.28553815457678,4.961079171479549 250.19175443005554,4.817663310246013 250.0957070794422,4.675753470282079 249.99742028214362,4.535385376631062 249.89691878133542,4.396594366209887 249.794227877733,4.259415378913204 249.6893734232221,4.123882948817467 249.58238181435098,3.99003119548716 249.47327998568497,3.8578938153853786 249.36209540302602,3.7275040733909246 249.24885605649814,3.5988947944240546 249.13359045350137,3.472098355182975 249.01632761153476,3.3471466759931934 248.89709705089172,3.2240712127717344 248.77592878722828,3.1029029491082847 248.65285332400683,2.983672388465246 248.52790164481704,2.866409546498644 248.40110520557596,2.751143943501854 248.2724959266091,2.637904596974015 248.14210618461462,2.5267200143150403 248.00996880451285,2.4176181856490304 247.87611705118255,2.310626576777899 247.7405846210868,2.205772122267017 247.60340563379012,2.103081218664571 247.46461462336896,2.0025797178563782 247.32424652971793,1.904292920557811 247.18233668975398,1.8082455699444733 247.03892082852045,1.714461845423247 246.89403505019342,1.6229653565452482 246.7477158289928,1.5337791370622529 246.60000000000002,1.4469256391280672 246.45092474988508,1.3624267276463267 246.30052760754498,1.2803036747661176 246.14884643465604,1.2005771545268304 245.99591941614236,1.123267237653577 245.84178505056306,1.0483933865044945 245.68648214042037,0.9759744501712064 245.53004978239144,0.9060286597336524 245.3725273574858,0.8385736236705257 245.21395452113154,0.7736263234264207 245.0543711931922,0.7112031091368529 244.89381754791722,0.6513196955121934 244.73233400382816,0.5939911578815851 244.56996121354368,0.5392319283977929 244.40674005354538,0.48705579240400576 244.24271161388745,0.4374758849634328 244.0779171878524,0.39050468755263035 243.91239826155567,0.3461540249193573 243.7461965035018,0.30443506210575455 243.57935375409465,0.2653583016376071 243.41191201510406,0.22893358088039317 243.24391343909244,0.19517006956277116 243.07540031880288,0.16407626746815818 242.9064150765122,0.13566000229494568 242.7370002533515,0.1099284276859318 242.5671984985965,0.08688802142741392 242.39705255893094,0.06654458381845907 242.22660526768516,0.04890323621069004 242.0558995340533,0.033968419719026643 241.8849783322909,0.021743894103652073 241.71388469089644,0.012232736823517998 241.54266168177912,0.0054373422616043054 241.37135240941595,0.0013594211221532593 241.20000000000002,3.9968028886505635e-15 190.79999999999998,3.9968028886505635e-15 190.62864759058405,0.0013594211221532593 190.45733831822088,0.0054373422616043054 190.28611530910356,0.012232736823517998 190.1150216677091,0.021743894103652073 189.9441004659467,0.033968419719026643 189.77339473231484,0.04890323621069004 189.60294744106906,0.06654458381845907 189.4328015014035,0.08688802142741392 189.26299974664852,0.10992842768592981 189.0935849234878,0.13566000229494568 188.92459968119715,0.16407626746815818 188.75608656090756,0.19517006956277116 188.58808798489594,0.22893358088039317 188.42064624590537,0.2653583016376071 188.2538034964982,0.30443506210575455 188.08760173844433,0.3461540249193573 187.9220828121476,0.39050468755262835 187.75728838611255,0.4374758849634328 187.59325994645465,0.48705579240400576 187.43003878645632,0.5392319283977929 187.26766599617181,0.5939911578815851 187.10618245208278,0.6513196955121934 186.9456288068078,0.7112031091368509 186.78604547886846,0.7736263234264187 186.6274726425142,0.8385736236705257 186.46995021760856,0.9060286597336524 186.31351785957963,0.9759744501712044 186.15821494943694,1.0483933865044945 186.00408058385764,1.123267237653577 185.85115356534396,1.2005771545268304 185.69947239245502,1.2803036747661176 185.54907525011492,1.3624267276463247 185.39999999999998,1.4469256391280692 185.2522841710072,1.5337791370622509 185.10596494980658,1.6229653565452502 184.96107917147955,1.714461845423249 184.81766331024602,1.8082455699444733 184.67575347028207,1.9042929205578099 184.53538537663104,2.0025797178563773 184.39659436620988,2.10308121866457 184.2594153789132,2.2057721222670152 184.12388294881745,2.3106265767778997 183.99003119548715,2.4176181856490304 183.85789381538538,2.5267200143150417 183.7275040733909,2.637904596974015 183.59889479442404,2.7511439435018517 183.47209835518296,2.8664095464986428 183.34714667599317,2.9836723884652447 183.22407121277172,3.1029029491082865 183.10290294910828,3.2240712127717357 182.98367238846524,3.3471466759931947 182.86640954649863,3.4720983551829763 182.75114394350186,3.598894794424053 182.63790459697398,3.7275040733909237 182.52672001431503,3.8578938153853777 182.41761818564902,3.9900311954871617 182.3106265767779,4.123882948817464 182.205772122267,4.2594153789132045 182.10308121866458,4.396594366209888 182.00257971785638,4.535385376631062 181.9042929205578,4.675753470282079 181.80824556994446,4.817663310246012 181.71446184542322,4.961079171479548 181.62296535654525,5.105964949806575 181.53377913706225,5.252284171007216 181.44692563912804,5.400000000000005 181.36242672764632,5.549075250114942 181.28030367476612,5.69947239245503 181.20057715452683,5.85115356534397 181.12326723765355,6.004080583857646 181.04839338650447,6.158214949436948 180.97597445017118,6.3135178595796315 180.90602865973364,6.469950217608573 180.8385736236705,6.627472642514214 180.7736263234264,6.786045478868465 180.71120310913685,6.945628806807787 180.65131969551217,7.1061824520827805 180.59399115788156,7.267665996171848 180.53923192839778,7.430038786456345 180.487055792404,7.593259946454632 180.43747588496345,7.757288386112562 180.3905046875526,7.922082812147625 180.34615402491934,8.087601738444347 180.30443506210574,8.253803496498188 180.2653583016376,8.420646245905363 180.22893358088038,8.588087984895946 180.19517006956278,8.756086560907569 180.16407626746815,8.924599681197156 180.13566000229494,9.093584923487825 180.10992842768593,9.262999746648525 180.08688802142743,9.43280150140351 180.06654458381843,9.602947441069082 180.0489032362107,9.773394732314832 180.03396841971903,9.944100465946685 180.02174389410365,10.115021667709108 180.01223273682348,10.286115309103588 180.0054373422616,10.457338318220874 180.00135942112215,10.628647590584077 180.0,10.8 180.0,25.200000000000003 180.00135942112215,25.371352409415923 180.0054373422616,25.54266168177913 180.01223273682348,25.713884690896414 180.02174389410365,25.8849783322909 180.03396841971903,26.055899534053317 180.0489032362107,26.226605267685173 180.06654458381843,26.397052558930923 180.08688802142743,26.567198498596493 180.10992842768593,26.73700025335148 180.13566000229494,26.906415076512175 180.16407626746815,27.075400318802846 180.19517006956278,27.243913439092434 180.22893358088038,27.41191201510406 180.2653583016376,27.57935375409464 180.30443506210574,27.746196503501814 180.34615402491934,27.91239826155566 180.3905046875526,28.07791718785238 180.43747588496342,28.24271161388744 180.487055792404,28.40674005354537 180.53923192839778,28.569961213543664 180.59399115788156,28.732334003828154 180.65131969551217,28.893817547917223 180.71120310913685,29.054371193192218 180.7736263234264,29.213954521131537 180.8385736236705,29.372527357485787 180.90602865973364,29.53004978239143 180.97597445017118,29.686482140420374 181.04839338650447,29.841785050563054 181.12326723765355,29.99591941614236 181.20057715452683,30.148846434656033 181.28030367476612,30.300527607544975 181.36242672764632,30.45092474988506 181.44692563912804,30.6 181.53377913706225,30.74771582899279 181.62296535654525,30.89403505019343 181.71446184542322,31.038920828520457 181.80824556994446,31.182336689753992 181.9042929205578,31.324246529717925 182.00257971785638,31.464614623368938 182.10308121866458,31.603405633790118 182.205772122267,31.7405846210868 182.3106265767779,31.87611705118254 182.41761818564902,32.009968804512845 182.52672001431503,32.142106184614626 182.63790459697398,32.27249592660908 182.75114394350183,32.40110520557595 182.86640954649863,32.52790164481703 182.98367238846524,32.652853324006806 183.10290294910828,32.775928787228274 183.22407121277172,32.89709705089172 183.34714667599317,33.01632761153476 183.47209835518296,33.133590453501355 183.59889479442404,33.24885605649815 183.7275040733909,33.36209540302599 183.85789381538538,33.47327998568497 183.99003119548715,33.58238181435098 184.12388294881745,33.68937342322211 184.2594153789132,33.794227877732986 184.39659436620988,33.89691878133544 184.53538537663104,33.99742028214363 184.67575347028205,34.09570707944219 184.81766331024602,34.19175443005553 184.96107917147955,34.28553815457676 185.10596494980658,34.377034643454756 185.2522841710072,34.46622086293775 185.4,34.55307436087194 185.54907525011492,34.63757327235368 185.69947239245502,34.71969632523388 185.85115356534396,34.799422845473174 186.00408058385764,34.87673276234643 186.15821494943694,34.95160661349551 186.31351785957963,35.0240255498288 186.46995021760856,35.09397134026635 186.6274726425142,35.16142637632948 186.78604547886846,35.22637367657359 186.9456288068078,35.28879689086315 187.10618245208278,35.348680304487814 187.26766599617181,35.406008842118425 187.43003878645632,35.46076807160221 187.59325994645462,35.512944207596 187.75728838611255,35.562524115036574 187.9220828121476,35.60949531244737 188.08760173844433,35.65384597508065 188.2538034964982,35.695564937894254 188.42064624590535,35.734641698362395 188.58808798489594,35.77106641911961 188.75608656090756,35.804829930437236 188.92459968119715,35.835923732531846 189.0935849234878,35.86433999770506 189.26299974664852,35.89007157231407 189.4328015014035,35.913111978572594 189.60294744106906,35.933455416181545 189.77339473231484,35.951096763789316 189.9441004659467,35.966031580280976 190.1150216677091,35.97825610589636 190.28611530910356,35.98776726317649 190.45733831822088,35.9945626577384 190.62864759058408,35.998640578877854 190.79999999999998,36.0 241.20000000000002,36.0 " style="stroke:#FFFFFF;fill:none;stroke-width:2;stroke-dasharray:-;stroke-linecap:round;stroke-linejoin:round;" /><path d="M 0.0,-0.0 L 0.0,-0.0 M 2.204364238465236e-15,-36.0 L 2.204364238465236e-15,-36.0" style="stroke:#FFFFFF;fill:none;stroke-width:2;stroke-dasharray:-;stroke-linecap:round;stroke-linejoin:round;" /><path d="M 9.000000000000002,-18.0 L 8.25,-19.863497124738156 L 7.500000000000002,-21.599999999999998 L 6.750000000000001,-23.091168824543143 L 6.000000000000002,-24.235382907247956 L 5.250000000000003,-24.95466594928129 L 4.500000000000002,-25.2 L 3.750000000000002,-24.954665949281292 L 3.0000000000000018,-24.23538290724796 L 2.2500000000000013,-23.09116882454314 L 1.500000000000002,-21.6 L 0.7500000000000016,-19.863497124738153 L 1.102182119232618e-15,-18.0 L -0.7499999999999983,-16.13650287526185 L -1.4999999999999978,-14.400000000000002 L -2.249999999999999,-12.908831175456855 L -2.9999999999999987,-11.764617092752044 L -3.7499999999999982,-11.045334050718708 L -4.499999999999999,-10.799999999999999 L -5.249999999999998,-11.045334050718706 L -5.999999999999997,-11.76461709275204 L -6.749999999999999,-12.908831175456857 L -7.499999999999998,-14.399999999999999 L -8.249999999999998,-16.136502875261847 L -8.999999999999998,-18.0" style="stroke:#FFFFFF;fill:none;stroke-width:2;stroke-dasharray:-;stroke-linecap:round;stroke-linejoin:round;" /><path d="M 2.204364238465236e-15,-36.0 L 3.3065463576978533e-15,-54.0 L 4.408728476930472e-15,-72.0" style="stroke:#FFFFFF;fill:none;stroke-width:2;stroke-dasharray:-;stroke-linecap:round;stroke-linejoin:round;" /><path d="M 4.408728476930472e-15,-72.0 L 18.000000000000004,-72.0 L 36.00000000000001,-72.0" style="stroke:#FFFFFF;fill:none;stroke-width:2;stroke-dasharray:-;stroke-linecap:round;stroke-linejoin:round;" /><path d="M 36.00000000000001,-72.0 L 72.0,-72.0 L 108.0,-72.0" style="stroke:#FFFFFF;fill:none;stroke-width:2;stroke-dasharray:-;stroke-linecap:round;stroke-linejoin:round;" /><path d="M 108.0,-72.0 L 126.0,-72.0 L 144.0,-72.0" style="stroke:#FFFFFF;fill:none;stroke-width:2;stroke-dasharray:-;stroke-linecap:round;stroke-linejoin:round;" /><path d="M 144.0,-72.0 L 144.0,-54.0 L 144.0,-36.0" style="stroke:#FFFFFF;fill:none;stroke-width:2;stroke-dasharray:-;stroke-linecap:round;stroke-linejoin:round;" /><path d="M 144.0,-36.0 L 108.0,-36.00000000000001 L 72.0,-36.00000000000001" style="stroke:#FFFFFF;fill:none;stroke-width:2;stroke-dasharray:-;stroke-linecap:round;stroke-linejoin:round;" /><path d="M 72.0,-36.00000000000001 L 72.0,-18.000000000000007 L 71.99999999999999,-7.993605777301127e-15" style="stroke:#FFFFFF;fill:none;stroke-width:2;stroke-dasharray:-;stroke-linecap:round;stroke-linejoin:round;" /><path d="M 71.99999999999999,35.99999999999999 L 71.99999999999999,53.99999999999999 L 71.99999999999999,71.99999999999999" style="stroke:#FFFFFF;fill:none;stroke-width:2;stroke-dasharray:-;stroke-linecap:round;stroke-linejoin:round;" /><path d="M 71.99999999999999,71.99999999999999 L 107.99999999999999,71.99999999999999 L 143.99999999999997,71.99999999999999" style="stroke:#FFFFFF;fill:none;stroke-width:2;stroke-dasharray:-;stroke-linecap:round;stroke-linejoin:round;" /><path d="M 144.0,-36.0 L 180.0,-36.0 L 216.0,-36.0" style="stroke:#FFFFFF;fill:none;stroke-width:2;stroke-dasharray:-;stroke-linecap:round;stroke-linejoin:round;" /><path d="M 216.0,-36.0 L 216.0,-18.0 L 216.0,-0.0" style="stroke:#FFFFFF;fill:none;stroke-width:2;stroke-dasharray:-;stroke-linecap:round;stroke-linejoin:round;" /><path d="M 216.0,36.0 L 216.0,54.0 L 216.0,72.0" style="stroke:#FFFFFF;fill:none;stroke-width:2;stroke-dasharray:-;stroke-linecap:round;stroke-linejoin:round;" /><path d="M 216.0,72.0 L 180.0,71.99999999999999 L 144.0,71.99999999999999" style="stroke:#FFFFFF;fill:none;stroke-width:2;stroke-dasharray:-;stroke-linecap:round;stroke-linejoin:round;" /><path d="M 144.0,71.99999999999999 L 144.0,90.0 L 144.0,108.0" style="stroke:#FFFFFF;fill:none;stroke-width:2;stroke-dasharray:-;stroke-linecap:round;stroke-linejoin:round;" /><path d="M 144.0,108.0 L 72.0,107.99999999999999 L 0.0,107.99999999999999" style="stroke:#FFFFFF;fill:none;stroke-width:2;stroke-dasharray:-;stroke-linecap:round;stroke-linejoin:round;" /><path d="M 0.0,107.99999999999999 L 3.306546357697853e-15,53.99999999999999 L 6.613092715395706e-15,-0.0" style="stroke:#FFFFFF;fill:none;stroke-width:2;stroke-dasharray:-;stroke-linecap:round;stroke-linejoin:round;" /><text x="-21.599999999999998" y="-31.0" dominant-baseline="central" fill="#FFFFFF" font-size="13" font-family="sans" text-anchor="end"><tspan x="-21.599999999999998" dy="13">V<tspan baseline-shift="-2" font-size="smaller">s</tspan></tspan></text><text x="71.99999999999999" y="4.999999999999993" dominant-baseline="central" fill="#FFFFFF" font-size="13" font-family="sans" text-anchor="middle"><tspan x="71.99999999999999" dy="13">Appliance A</tspan></text><text x="216.0" y="5.0" dominant-baseline="central" fill="#FFFFFF" font-size="13" font-family="sans" text-anchor="middle"><tspan x="216.0" dy="13">Appliance B</tspan></text></svg>