<?xml version="1.0" encoding="utf-8" standalone="no"?>
<!DOCTYPE svg PUBLIC "-//W3C//DTD SVG 1.1//EN"
  "http://www.w3.org/Graphics/SVG/1.1/DTD/svg11.dtd">
<svg xmlns:xlink="http://www.w3.org/1999/xlink" width="219.42pt" height="119.97pt" viewBox="0 0 219.42 119.97" xmlns="http://www.w3.org/2000/svg" version="1.1">
 <metadata>
  <rdf:RDF xmlns:dc="http://purl.org/dc/elements/1.1/" xmlns:cc="http://creativecommons.org/ns#" xmlns:rdf="http://www.w3.org/1999/02/22-rdf-syntax-ns#">
   <cc:Work>
    <dc:type rdf:resource="http://purl.org/dc/dcmitype/StillImage"/>
    <dc:date>2025-12-22T18:33:33.020144</dc:date>
    <dc:format>image/svg+xml</dc:format>
    <dc:creator>
     <cc:Agent>
      <dc:title>Matplotlib v3.10.8, https://matplotlib.org/</dc:title>
     </cc:Agent>
    </dc:creator>
   </cc:Work>
  </rdf:RDF>
 </metadata>
 <defs>
  <style type="text/css">*{stroke-linejoin: round; stroke-linecap: butt}</style>
 </defs>
 <g id="figure_1">
  <g id="patch_1">
   <path d="M 0 119.97 
L 219.42 119.97 
L 219.42 0 
L 0 0 
L 0 119.97 
z
" style="fill: none"/>
  </g>
  <g id="axes_1">
   <g id="patch_2">
    <path d="M 25.56 79.11 
C 29.617607 79.11 33.509572 77.497895 36.378734 74.628734 
C 39.247895 71.759572 40.86 67.867607 40.86 63.81 
C 40.86 59.752393 39.247895 55.860428 36.378734 52.991266 
C 33.509572 50.122105 29.617607 48.51 25.56 48.51 
C 21.502393 48.51 17.610428 50.122105 14.741266 52.991266 
C 11.872105 55.860428 10.26 59.752393 10.26 63.81 
C 10.26 67.867607 11.872105 71.759572 14.741266 74.628734 
C 17.610428 77.497895 21.502393 79.11 25.56 79.11 
L 25.56 79.11 
z
" clip-path="url(#p539b7c9234)" style="fill: none; stroke: #000000; stroke-width: 2; stroke-linejoin: miter"/>
   </g>
   <g id="patch_3">
    <path d="M 25.56 79.11 
C 29.617607 79.11 33.509572 77.497895 36.378734 74.628734 
C 39.247895 71.759572 40.86 67.867607 40.86 63.81 
C 40.86 59.752393 39.247895 55.860428 36.378734 52.991266 
C 33.509572 50.122105 29.617607 48.51 25.56 48.51 
C 21.502393 48.51 17.610428 50.122105 14.741266 52.991266 
C 11.872105 55.860428 10.26 59.752393 10.26 63.81 
C 10.26 67.867607 11.872105 71.759572 14.741266 74.628734 
C 17.610428 77.497895 21.502393 79.11 25.56 79.11 
L 25.56 79.11 
z
" clip-path="url(#p539b7c9234)" style="fill: none; stroke: #000000; stroke-width: 2; stroke-linejoin: miter"/>
   </g>
   <g id="line2d_1">
    <path d="M 25.56 109.71 
L 25.56 79.11 
L 25.56 79.11 
M 25.56 48.51 
L 25.56 48.51 
L 25.56 17.91 
" clip-path="url(#p539b7c9234)" style="fill: none; stroke: #000000; stroke-width: 2; stroke-linecap: round"/>
   </g>
   <g id="line2d_2">
    <path d="M 33.21 63.81 
L 32.5725 62.226027 
L 31.935 60.75 
L 31.2975 59.482506 
L 30.66 58.509925 
L 30.0225 57.898534 
L 29.385 57.69 
L 28.7475 57.898534 
L 28.11 58.509925 
L 27.4725 59.482506 
L 26.835 60.75 
L 26.1975 62.226027 
L 25.56 63.81 
L 24.9225 65.393973 
L 24.285 66.87 
L 23.6475 68.137494 
L 23.01 69.110075 
L 22.3725 69.721466 
L 21.735 69.93 
L 21.0975 69.721466 
L 20.46 69.110075 
L 19.8225 68.137494 
L 19.185 66.87 
L 18.5475 65.393973 
L 17.91 63.81 
" clip-path="url(#p539b7c9234)" style="fill: none; stroke: #000000; stroke-width: 2; stroke-linecap: round"/>
   </g>
   <g id="line2d_3">
    <path d="M 25.56 17.91 
L 56.16 17.91 
L 58.71 10.26 
L 63.81 25.56 
L 68.91 10.26 
L 74.01 25.56 
L 79.11 10.26 
L 84.21 25.56 
L 86.76 17.91 
L 117.36 17.91 
" clip-path="url(#p539b7c9234)" style="fill: none; stroke: #000000; stroke-width: 2; stroke-linecap: round"/>
   </g>
   <g id="line2d_4">
    <path d="M 117.36 17.91 
L 160.506 17.91 
M 160.506 10.26 
L 160.506 25.56 
M 166.014 10.26 
L 166.014 25.56 
M 166.014 17.91 
L 209.16 17.91 
" clip-path="url(#p539b7c9234)" style="fill: none; stroke: #000000; stroke-width: 2; stroke-linecap: round"/>
   </g>
   <g id="line2d_5">
    <path d="M 209.16 17.91 
L 209.16 63.81 
L 209.16 109.71 
" clip-path="url(#p539b7c9234)" style="fill: none; stroke: #000000; stroke-width: 2; stroke-linecap: round"/>
   </g>
   <g id="line2d_6">
    <path d="M 209.16 109.71 
L 163.26 109.71 
L 117.36 109.71 
" clip-path="url(#p539b7c9234)" style="fill: none; stroke: #000000; stroke-width: 2; stroke-linecap: round"/>
   </g>
   <g id="line2d_7">
    <path d="M 117.36 109.71 
L 71.46 109.71 
L 25.56 109.71 
" clip-path="url(#p539b7c9234)" style="fill: none; stroke: #000000; stroke-width: 2; stroke-linecap: round"/>
   </g>
   <g id="line2d_8">
    <path d="M 25.56 109.71 
L 25.56 79.11 
L 25.56 79.11 
M 25.56 48.51 
L 25.56 48.51 
L 25.56 17.91 
" clip-path="url(#p539b7c9234)" style="fill: none; stroke: #000000; stroke-width: 2; stroke-linecap: round"/>
   </g>
   <g id="line2d_9">
    <path d="M 33.21 63.81 
L 32.5725 62.226027 
L 31.935 60.75 
L 31.2975 59.482506 
L 30.66 58.509925 
L 30.0225 57.898534 
L 29.385 57.69 
L 28.7475 57.898534 
L 28.11 58.509925 
L 27.4725 59.482506 
L 26.835 60.75 
L 26.1975 62.226027 
L 25.56 63.81 
L 24.9225 65.393973 
L 24.285 66.87 
L 23.6475 68.137494 
L 23.01 69.110075 
L 22.3725 69.721466 
L 21.735 69.93 
L 21.0975 69.721466 
L 20.46 69.110075 
L 19.8225 68.137494 
L 19.185 66.87 
L 18.5475 65.393973 
L 17.91 63.81 
" clip-path="url(#p539b7c9234)" style="fill: none; stroke: #000000; stroke-width: 2; stroke-linecap: round"/>
   </g>
   <g id="line2d_10">
    <path d="M 25.56 17.91 
L 56.16 17.91 
L 58.71 10.26 
L 63.81 25.56 
L 68.91 10.26 
L 74.01 25.56 
L 79.11 10.26 
L 84.21 25.56 
L 86.76 17.91 
L 117.36 17.91 
" clip-path="url(#p539b7c9234)" style="fill: none; stroke: #000000; stroke-width: 2; stroke-linecap: round"/>
   </g>
   <g id="line2d_11">
    <path d="M 117.36 17.91 
L 160.506 17.91 
M 160.506 10.26 
L 160.506 25.56 
M 166.014 10.26 
L 166.014 25.56 
M 166.014 17.91 
L 209.16 17.91 
" clip-path="url(#p539b7c9234)" style="fill: none; stroke: #000000; stroke-width: 2; stroke-linecap: round"/>
   </g>
   <g id="line2d_12">
    <path d="M 209.16 17.91 
L 209.16 63.81 
L 209.16 109.71 
" clip-path="url(#p539b7c9234)" style="fill: none; stroke: #000000; stroke-width: 2; stroke-linecap: round"/>
   </g>
   <g id="line2d_13">
    <path d="M 209.16 109.71 
L 163.26 109.71 
L 117.36 109.71 
" clip-path="url(#p539b7c9234)" style="fill: none; stroke: #000000; stroke-width: 2; stroke-linecap: round"/>
   </g>
   <g id="line2d_14">
    <path d="M 117.36 109.71 
L 71.46 109.71 
L 25.56 109.71 
" clip-path="url(#p539b7c9234)" style="fill: none; stroke: #000000; stroke-width: 2; stroke-linecap: round"/>
   </g>
  </g>
 </g>
 <defs>
  <clipPath id="p539b7c9234">
   <rect x="7.2" y="7.2" width="205.02" height="105.57"/>
  </clipPath>
 </defs>
</svg>
