<svg xmlns="http://www.w3.org/2000/svg" xmlns:xlink="http://www.w3.org/1999/xlink" xml:lang="en" height="203.99999999999997pt" width="434.25199999999995pt" viewBox="-44.45199999999999 -163.39999999999998 434.25199999999995 203.99999999999997"><circle cx="1.102182119232618e-15" cy="-18.0" r="18.0" style="stroke:#FFFFFF;fill:none;stroke-width:2;stroke-dasharray:-;" /><polygon points="219.6,-135.0 219.59909371925187,-135.1142349396106 219.59637510515893,-135.22844112118608 219.59184484211764,-135.34258979393096 219.58550407059755,-135.45665222152726 219.57735438685395,-135.57059968936886 219.5673978425262,-135.68440351179012 219.55563694412103,-135.79803503928727 219.5420746523817,-135.911465665731 219.52671438154272,-136.02466683556764 219.50955999847002,-136.13761005100812 219.4906158216879,-136.2502668792019 219.46988662029148,-136.36260895939495 219.44737761274638,-136.47460801006937 219.4230944655749,-136.58623583606308 219.3970432919295,-136.69746433566786 219.36923065005374,-136.80826550770377 219.33966354163158,-136.91861145856825 219.30834941002436,-137.0284744092583 219.27529613839732,-137.13782670236358 219.2405120477348,-137.24664080902912 219.2040058947456,-137.35488933588545 219.16578686965852,-137.4625450319448 219.12586459390874,-137.5695807954615 219.0842491177157,-137.67596968075435 219.04095091755298,-137.78168490499053 218.99598089351088,-137.88669985492763 218.94935036655252,-137.9909880936136 218.90107107566365,-138.09452336704203 218.8511551748976,-138.19727961076157 218.79961523031542,-138.29923095643736 218.74646421682257,-138.40035173836333 218.69171551490243,-138.50061649992338 218.63538290724793,-138.6 218.57748057529182,-138.69847721932854 218.51802309563647,-138.79602336679562 218.45702543638447,-138.8926138856803 218.39450295337033,-138.988224459836 218.3304713862948,-139.08283101981195 218.2649468547624,-139.17640974891262 218.1979458542236,-139.2689370891934 218.129485251822,-139.3603897473912 218.05958228214806,-139.45074470078836 217.98825454290062,-139.53997920300856 217.9155199904566,-139.62807078974308 217.84139693535062,-139.71499728440605 217.7659040376654,-139.8007368037173 217.6890603023342,-139.88526776321135 217.61088507435647,-139.9685688826712 217.53139803392781,-140.0506191914855 217.4506191914855,-140.1313980339278 217.36856888267118,-140.2108850743565 217.28526776321135,-140.28906030233424 217.20073680371726,-140.36590403766544 217.11499728440603,-140.44139693535067 217.02807078974308,-140.51551999045665 216.93997920300853,-140.58825454290064 216.85074470078834,-140.65958228214805 216.76038974739117,-140.72948525182198 216.6689370891934,-140.79794585422363 216.5764097489126,-140.86494685476242 216.48283101981193,-140.9304713862948 216.38822445983598,-140.99450295337036 216.29261388568028,-141.0570254363845 216.1960233667956,-141.11802309563652 216.09847721932852,-141.17748057529184 215.99999999999997,-141.23538290724795 215.90061649992336,-141.29171551490245 215.8003517383633,-141.3464642168226 215.69923095643733,-141.39961523031545 215.59727961076155,-141.45115517489762 215.494523367042,-141.50107107566367 215.39098809361354,-141.54935036655255 215.2866998549276,-141.5959808935109 215.1816849049905,-141.640950917553 215.07596968075435,-141.68424911771572 214.96958079546147,-141.72586459390877 214.8625450319448,-141.76578686965854 214.7548893358854,-141.80400589474561 214.6466408090291,-141.8405120477348 214.53782670236356,-141.87529613839732 214.42847440925829,-141.90834941002439 214.31861145856823,-141.93966354163157 214.20826550770374,-141.96923065005376 214.09746433566787,-141.99704329192951 213.9862358360631,-142.02309446557493 213.87460801006935,-142.0473776127464 213.76260895939492,-142.06988662029147 213.6502668792019,-142.0906158216879 213.5376100510081,-142.10955999847005 213.42466683556762,-142.1267143815427 213.311465665731,-142.14207465238172 213.19803503928728,-142.15563694412103 213.0844035117901,-142.1673978425262 212.97059968936887,-142.17735438685398 212.85665222152724,-142.18550407059757 212.74258979393093,-142.19184484211766 212.62844112118609,-142.19637510515892 212.51423493961062,-142.1990937192519 212.39999999999998,-142.20000000000002 172.79999999999998,-142.20000000000002 172.68576506038937,-142.1990937192519 172.5715588788139,-142.19637510515892 172.45741020606906,-142.19184484211766 172.34334777847272,-142.18550407059757 172.22940031063112,-142.17735438685398 172.11559648820986,-142.1673978425262 172.00196496071274,-142.15563694412103 171.888534334269,-142.14207465238172 171.77533316443234,-142.1267143815427 171.66238994899186,-142.10955999847005 171.5497331207981,-142.0906158216879 171.43739104060506,-142.06988662029147 171.32539198993064,-142.0473776127464 171.2137641639369,-142.02309446557493 171.10253566433212,-141.99704329192951 170.99173449229622,-141.96923065005376 170.88138854143173,-141.93966354163157 170.7715255907417,-141.90834941002439 170.66217329763643,-141.87529613839732 170.5533591909709,-141.8405120477348 170.44511066411457,-141.80400589474561 170.3374549680552,-141.76578686965854 170.23041920453852,-141.72586459390877 170.12403031924563,-141.68424911771572 170.01831509500948,-141.640950917553 169.91330014507238,-141.5959808935109 169.80901190638642,-141.54935036655255 169.70547663295798,-141.50107107566367 169.6027203892384,-141.45115517489762 169.50076904356266,-141.39961523031545 169.39964826163668,-141.3464642168226 169.29938350007663,-141.29171551490245 169.20000000000002,-141.23538290724795 169.10152278067147,-141.17748057529184 169.00397663320436,-141.11802309563652 168.9073861143197,-141.0570254363845 168.81177554016398,-140.99450295337036 168.71716898018803,-140.9304713862948 168.6235902510874,-140.86494685476242 168.53106291080655,-140.79794585422363 168.4396102526088,-140.72948525182198 168.34925529921165,-140.65958228214805 168.26002079699145,-140.58825454290064 168.1719292102569,-140.51551999045665 168.08500271559393,-140.44139693535067 167.9992631962827,-140.36590403766544 167.91473223678864,-140.28906030233424 167.83143111732878,-140.2108850743565 167.7493808085145,-140.1313980339278 167.66860196607217,-140.0506191914855 167.58911492564349,-139.9685688826712 167.51093969766575,-139.88526776321135 167.43409596233457,-139.8007368037173 167.35860306464934,-139.71499728440605 167.28448000954336,-139.62807078974308 167.21174545709934,-139.53997920300856 167.14041771785193,-139.45074470078836 167.070514748178,-139.3603897473912 167.00205414577636,-139.2689370891934 166.9350531452376,-139.17640974891262 166.8695286137052,-139.08283101981195 166.80549704662965,-138.988224459836 166.7429745636155,-138.8926138856803 166.6819769043635,-138.79602336679562 166.62251942470817,-138.69847721932854 166.56461709275203,-138.6 166.50828448509753,-138.50061649992338 166.45353578317741,-138.40035173836333 166.40038476968454,-138.29923095643736 166.3488448251024,-138.19727961076157 166.2989289243363,-138.09452336704203 166.25064963344744,-137.99098809361357 166.2040191064891,-137.88669985492763 166.15904908244698,-137.78168490499053 166.11575088228426,-137.67596968075435 166.07413540609122,-137.5695807954615 166.03421313034147,-137.4625450319448 165.99599410525437,-137.35488933588545 165.95948795226516,-137.24664080902912 165.92470386160267,-137.13782670236358 165.8916505899756,-137.0284744092583 165.8603364583684,-136.91861145856825 165.83076934994625,-136.80826550770377 165.8029567080705,-136.69746433566786 165.77690553442505,-136.58623583606308 165.7526223872536,-136.47460801006937 165.7301133797085,-136.36260895939495 165.7093841783121,-136.2502668792019 165.69044000152996,-136.13761005100812 165.67328561845727,-136.02466683556764 165.65792534761826,-135.911465665731 165.64436305587896,-135.79803503928727 165.63260215747377,-135.68440351179012 165.622645613146,-135.57059968936886 165.61449592940244,-135.45665222152726 165.60815515788232,-135.34258979393096 165.60362489484106,-135.22844112118608 165.6009062807481,-135.11423493961064 165.6,-135.0 165.6,-95.4 165.6009062807481,-95.28576506038941 165.60362489484106,-95.17155887881393 165.60815515788232,-95.05741020606906 165.61449592940244,-94.94334777847274 165.622645613146,-94.82940031063114 165.63260215747377,-94.7155964882099 165.64436305587896,-94.60196496071273 165.65792534761826,-94.48853433426902 165.67328561845727,-94.37533316443236 165.69044000152996,-94.26238994899188 165.7093841783121,-94.14973312079812 165.7301133797085,-94.03739104060506 165.7526223872536,-93.92539198993063 165.77690553442505,-93.81376416393692 165.8029567080705,-93.70253566433215 165.83076934994625,-93.59173449229624 165.8603364583684,-93.48138854143176 165.8916505899756,-93.37152559074173 165.92470386160267,-93.26217329763642 165.95948795226516,-93.1533591909709 165.99599410525437,-93.04511066411457 166.03421313034147,-92.9374549680552 166.07413540609122,-92.83041920453853 166.11575088228426,-92.72403031924566 166.15904908244698,-92.61831509500949 166.2040191064891,-92.51330014507239 166.25064963344744,-92.40901190638643 166.2989289243363,-92.30547663295798 166.3488448251024,-92.20272038923844 166.40038476968454,-92.10076904356266 166.45353578317741,-91.9996482616367 166.50828448509753,-91.89938350007664 166.56461709275203,-91.80000000000001 166.62251942470817,-91.7015227806715 166.6819769043635,-91.6039766332044 166.7429745636155,-91.50738611431971 166.80549704662965,-91.41177554016402 166.8695286137052,-91.31716898018806 166.9350531452376,-91.22359025108739 167.00205414577636,-91.1310629108066 167.070514748178,-91.03961025260881 167.14041771785193,-90.94925529921166 167.21174545709934,-90.86002079699145 167.28448000954336,-90.77192921025693 167.35860306464934,-90.68500271559395 167.43409596233457,-90.5992631962827 167.51093969766575,-90.51473223678867 167.58911492564349,-90.4314311173288 167.66860196607217,-90.3493808085145 167.7493808085145,-90.2686019660722 167.83143111732878,-90.18911492564351 167.91473223678864,-90.11093969766577 167.9992631962827,-90.03409596233458 168.08500271559393,-89.95860306464935 168.1719292102569,-89.88448000954337 168.26002079699145,-89.81174545709936 168.34925529921165,-89.74041771785195 168.4396102526088,-89.67051474817802 168.53106291080655,-89.60205414577639 168.62359025108736,-89.5350531452376 168.71716898018803,-89.46952861370522 168.81177554016398,-89.40549704662966 168.9073861143197,-89.34297456361551 169.00397663320436,-89.2819769043635 169.10152278067147,-89.22251942470818 169.20000000000002,-89.16461709275205 169.29938350007663,-89.10828448509757 169.39964826163668,-89.05353578317742 169.50076904356266,-89.00038476968456 169.6027203892384,-88.9488448251024 169.70547663295798,-88.89892892433633 169.80901190638642,-88.85064963344747 169.91330014507238,-88.80401910648911 170.01831509500948,-88.75904908244702 170.12403031924563,-88.7157508822843 170.23041920453852,-88.67413540609124 170.3374549680552,-88.63421313034148 170.44511066411457,-88.5959941052544 170.5533591909709,-88.55948795226521 170.66217329763643,-88.52470386160269 170.7715255907417,-88.49165058997563 170.88138854143173,-88.46033645836843 170.99173449229622,-88.43076934994625 171.10253566433212,-88.40295670807052 171.2137641639369,-88.37690553442508 171.32539198993064,-88.3526223872536 171.43739104060506,-88.33011337970854 171.5497331207981,-88.30938417831211 171.66238994899186,-88.29044000152997 171.77533316443234,-88.2732856184573 171.888534334269,-88.25792534761828 172.0019649607127,-88.24436305587898 172.1155964882099,-88.23260215747379 172.22940031063112,-88.22264561314603 172.34334777847272,-88.21449592940245 172.45741020606906,-88.20815515788236 172.5715588788139,-88.20362489484108 172.68576506038937,-88.20090628074811 172.79999999999998,-88.2 212.39999999999998,-88.2 212.51423493961062,-88.20090628074811 212.62844112118609,-88.20362489484108 212.74258979393093,-88.20815515788236 212.85665222152724,-88.21449592940245 212.97059968936887,-88.22264561314603 213.0844035117901,-88.23260215747379 213.19803503928728,-88.24436305587898 213.311465665731,-88.25792534761828 213.42466683556762,-88.2732856184573 213.5376100510081,-88.29044000152997 213.6502668792019,-88.30938417831211 213.76260895939492,-88.33011337970854 213.87460801006935,-88.3526223872536 213.9862358360631,-88.37690553442508 214.09746433566787,-88.40295670807052 214.20826550770374,-88.43076934994625 214.31861145856823,-88.46033645836843 214.42847440925829,-88.49165058997563 214.53782670236356,-88.52470386160269 214.6466408090291,-88.55948795226521 214.7548893358854,-88.59599410525439 214.8625450319448,-88.63421313034148 214.96958079546147,-88.67413540609124 215.07596968075435,-88.7157508822843 215.1816849049905,-88.75904908244702 215.2866998549276,-88.80401910648911 215.39098809361354,-88.85064963344747 215.494523367042,-88.89892892433633 215.59727961076155,-88.9488448251024 215.69923095643733,-89.00038476968456 215.8003517383633,-89.05353578317742 215.90061649992336,-89.10828448509757 215.99999999999997,-89.16461709275205 216.09847721932852,-89.22251942470818 216.1960233667956,-89.2819769043635 216.29261388568028,-89.34297456361551 216.38822445983598,-89.40549704662966 216.48283101981193,-89.46952861370522 216.57640974891262,-89.5350531452376 216.6689370891934,-89.60205414577639 216.76038974739117,-89.67051474817802 216.85074470078834,-89.74041771785195 216.93997920300853,-89.81174545709936 217.02807078974308,-89.88448000954337 217.11499728440603,-89.95860306464935 217.20073680371726,-90.03409596233458 217.28526776321135,-90.11093969766577 217.36856888267118,-90.18911492564351 217.4506191914855,-90.2686019660722 217.53139803392781,-90.3493808085145 217.61088507435647,-90.4314311173288 217.6890603023342,-90.51473223678867 217.7659040376654,-90.5992631962827 217.84139693535062,-90.68500271559395 217.9155199904566,-90.77192921025693 217.98825454290062,-90.86002079699145 218.05958228214806,-90.94925529921166 218.129485251822,-91.03961025260881 218.1979458542236,-91.1310629108066 218.2649468547624,-91.22359025108739 218.3304713862948,-91.31716898018806 218.39450295337033,-91.41177554016402 218.45702543638447,-91.50738611431971 218.51802309563647,-91.6039766332044 218.57748057529182,-91.7015227806715 218.63538290724793,-91.80000000000001 218.69171551490243,-91.89938350007664 218.74646421682257,-91.9996482616367 218.79961523031542,-92.10076904356266 218.8511551748976,-92.20272038923844 218.90107107566365,-92.30547663295798 218.94935036655252,-92.40901190638643 218.99598089351088,-92.51330014507239 219.04095091755298,-92.61831509500949 219.0842491177157,-92.72403031924566 219.12586459390874,-92.83041920453853 219.16578686965852,-92.93745496805519 219.2040058947456,-93.04511066411457 219.2405120477348,-93.1533591909709 219.27529613839732,-93.26217329763642 219.30834941002436,-93.37152559074173 219.33966354163158,-93.48138854143176 219.36923065005374,-93.59173449229624 219.3970432919295,-93.70253566433215 219.4230944655749,-93.81376416393692 219.44737761274638,-93.92539198993063 219.46988662029148,-94.03739104060506 219.4906158216879,-94.14973312079812 219.50955999847002,-94.26238994899188 219.52671438154272,-94.37533316443236 219.5420746523817,-94.48853433426902 219.55563694412103,-94.60196496071273 219.5673978425262,-94.7155964882099 219.57735438685395,-94.82940031063114 219.58550407059755,-94.94334777847274 219.59184484211764,-95.05741020606906 219.59637510515893,-95.17155887881393 219.59909371925187,-95.28576506038941 219.6,-95.4 219.6,-135.0 " style="stroke:#FFFFFF;fill:none;stroke-width:2;stroke-dasharray:-;stroke-linecap:round;stroke-linejoin:round;" /><polygon points="173.70000000000002,-114.12000000000002 173.70000000000002,-136.79999999999998 211.5,-136.79999999999998 211.5,-114.12000000000002 " style="stroke:#FFFFFF;fill:none;stroke-width:1;stroke-dasharray:-;stroke-linecap:round;stroke-linejoin:round;" /><polygon points="338.4,-71.99999999999999 338.5713524094159,-72.00135942112213 338.7426616817791,-72.00543734226159 338.9138846908964,-72.0122327368235 339.08497833229086,-72.02174389410364 339.25589953405324,-72.03396841971902 339.4266052676851,-72.04890323621069 339.5970525589309,-72.06654458381844 339.7671984985965,-72.0868880214274 339.9370002533514,-72.10992842768593 340.1064150765121,-72.13566000229494 340.2754003188028,-72.16407626746815 340.44391343909234,-72.19517006956276 340.611912015104,-72.22893358088038 340.7793537540946,-72.2653583016376 340.94619650350177,-72.30443506210574 341.1123982615556,-72.34615402491934 341.2779171878523,-72.39050468755262 341.4427116138874,-72.43747588496342 341.6067400535453,-72.487055792404 341.7699612135436,-72.53923192839778 341.93233400382815,-72.59399115788158 342.0938175479172,-72.65131969551219 342.2543711931922,-72.71120310913685 342.41395452113153,-72.77362632342641 342.57252735748574,-72.83857362367053 342.73004978239135,-72.90602865973365 342.88648214042036,-72.97597445017121 343.041785050563,-73.04839338650449 343.1959194161423,-73.12326723765356 343.348846434656,-73.20057715452683 343.5005276075449,-73.28030367476612 343.650924749885,-73.36242672764631 343.79999999999995,-73.44692563912805 343.9477158289927,-73.53377913706225 344.0940350501934,-73.62296535654524 344.2389208285204,-73.71446184542324 344.3823366897539,-73.80824556994446 344.5242465297179,-73.9042929205578 344.6646146233689,-74.00257971785636 344.8034056337901,-74.10308121866456 344.9405846210867,-74.205772122267 345.0761170511825,-74.31062657677789 345.2099688045128,-74.41761818564902 345.3421061846146,-74.52672001431503 345.472495926609,-74.63790459697401 345.6011052055759,-74.75114394350184 345.727901644817,-74.86640954649864 345.8528533240068,-74.98367238846524 345.9759287872282,-75.10290294910827 346.09709705089165,-75.22407121277173 346.21632761153467,-75.34714667599319 346.3335904535013,-75.47209835518296 346.44885605649813,-75.59889479442406 346.562095403026,-75.72750407339092 346.6732799856849,-75.85789381538538 346.7823818143509,-75.99003119548715 346.889373423222,-76.12388294881745 346.99422787773295,-76.25941537891319 347.0969187813354,-76.39659436620987 347.1974202821436,-76.53538537663106 347.29570707944214,-76.67575347028206 347.39175443005547,-76.817663310246 347.4855381545767,-76.96107917147955 347.5770346434547,-77.10596494980658 347.66622086293773,-77.2522841710072 347.7530743608719,-77.39999999999999 347.8375732723536,-77.54907525011494 347.9196963252339,-77.69947239245502 347.99942284547313,-77.85115356534395 348.0767327623464,-78.00408058385764 348.15160661349546,-78.15821494943694 348.22402554982875,-78.31351785957962 348.2939713402663,-78.46995021760856 348.3614263763294,-78.6274726425142 348.4263736765735,-78.78604547886846 348.4887968908631,-78.94562880680778 348.54868030448773,-79.10618245208276 348.60600884211834,-79.26766599617184 348.6607680716022,-79.43003878645632 348.7129442075959,-79.59325994645462 348.7625241150365,-79.75728838611255 348.8094953124473,-79.92208281214762 348.85384597508056,-80.08760173844433 348.8955649378942,-80.25380349649818 348.9346416983623,-80.42064624590536 348.97106641911955,-80.58808798489594 349.00482993043715,-80.75608656090756 349.0359237325318,-80.92459968119715 349.06433999770496,-81.09358492348782 349.090071572314,-81.26299974664852 349.11311197857253,-81.4328015014035 349.13345541618145,-81.60294744106908 349.15109676378927,-81.77339473231481 349.16603158028096,-81.94410046594668 349.1782561058963,-82.1150216677091 349.1877672631764,-82.28611530910358 349.19456265773835,-82.45733831822086 349.1986405788778,-82.62864759058407 349.2,-82.8 349.2,-115.2 349.1986405788778,-115.37135240941593 349.19456265773835,-115.54266168177914 349.1877672631764,-115.71388469089642 349.1782561058963,-115.8849783322909 349.16603158028096,-116.05589953405332 349.15109676378927,-116.22660526768519 349.13345541618145,-116.39705255893092 349.11311197857253,-116.5671984985965 349.090071572314,-116.73700025335148 349.06433999770496,-116.90641507651219 349.0359237325318,-117.07540031880285 349.00482993043715,-117.24391343909244 348.97106641911955,-117.41191201510406 348.9346416983623,-117.57935375409464 348.8955649378942,-117.74619650350182 348.85384597508056,-117.91239826155567 348.8094953124473,-118.07791718785238 348.7625241150365,-118.24271161388745 348.7129442075959,-118.40674005354538 348.6607680716022,-118.56996121354368 348.60600884211834,-118.73233400382816 348.54868030448773,-118.89381754791724 348.4887968908631,-119.05437119319222 348.4263736765735,-119.21395452113154 348.3614263763294,-119.3725273574858 348.2939713402663,-119.53004978239144 348.22402554982875,-119.68648214042038 348.15160661349546,-119.84178505056306 348.0767327623464,-119.99591941614236 347.99942284547313,-120.14884643465605 347.9196963252339,-120.30052760754498 347.8375732723536,-120.45092474988506 347.7530743608719,-120.60000000000001 347.66622086293773,-120.7477158289928 347.5770346434547,-120.89403505019342 347.4855381545767,-121.03892082852045 347.39175443005547,-121.182336689754 347.29570707944214,-121.32424652971794 347.1974202821436,-121.46461462336894 347.0969187813354,-121.60340563379013 346.99422787773295,-121.74058462108681 346.889373423222,-121.87611705118255 346.7823818143509,-122.00996880451285 346.6732799856849,-122.14210618461462 346.562095403026,-122.27249592660908 346.44885605649813,-122.40110520557594 346.3335904535013,-122.52790164481704 346.21632761153467,-122.65285332400681 346.09709705089165,-122.77592878722827 345.9759287872282,-122.89709705089173 345.8528533240068,-123.01632761153476 345.727901644817,-123.13359045350136 345.6011052055759,-123.24885605649816 345.472495926609,-123.36209540302599 345.3421061846146,-123.47327998568497 345.2099688045128,-123.58238181435098 345.0761170511825,-123.68937342322211 344.9405846210867,-123.794227877733 344.8034056337901,-123.89691878133544 344.6646146233689,-123.99742028214364 344.5242465297179,-124.0957070794422 344.3823366897539,-124.19175443005554 344.2389208285204,-124.28553815457676 344.0940350501934,-124.37703464345476 343.9477158289927,-124.46622086293775 343.79999999999995,-124.55307436087195 343.650924749885,-124.63757327235369 343.5005276075449,-124.71969632523388 343.348846434656,-124.79942284547317 343.1959194161423,-124.87673276234644 343.041785050563,-124.95160661349551 342.88648214042036,-125.02402554982879 342.73004978239135,-125.09397134026635 342.57252735748574,-125.1614263763295 342.41395452113153,-125.22637367657359 342.2543711931922,-125.28879689086315 342.0938175479172,-125.34868030448781 341.93233400382815,-125.40600884211842 341.7699612135436,-125.46076807160222 341.6067400535453,-125.512944207596 341.4427116138874,-125.56252411503658 341.2779171878523,-125.60949531244738 341.1123982615556,-125.65384597508066 340.94619650350177,-125.69556493789426 340.7793537540946,-125.7346416983624 340.611912015104,-125.77106641911962 340.44391343909234,-125.80482993043724 340.2754003188028,-125.83592373253185 340.1064150765121,-125.86433999770506 339.9370002533514,-125.89007157231407 339.7671984985965,-125.9131119785726 339.5970525589309,-125.93345541618156 339.4266052676851,-125.95109676378931 339.25589953405324,-125.96603158028098 339.08497833229086,-125.97825610589636 338.9138846908964,-125.9877672631765 338.74266168177905,-125.99456265773841 338.5713524094159,-125.99864057887787 338.4,-126.0 252.0,-126.0 251.82864759058407,-125.99864057887787 251.65733831822087,-125.99456265773841 251.48611530910358,-125.9877672631765 251.31502166770912,-125.97825610589636 251.14410046594668,-125.96603158028098 250.97339473231483,-125.95109676378931 250.80294744106908,-125.93345541618156 250.63280150140352,-125.9131119785726 250.46299974664853,-125.89007157231407 250.2935849234878,-125.86433999770506 250.12459968119717,-125.83592373253185 249.95608656090758,-125.80482993043724 249.78808798489592,-125.77106641911962 249.6206462459054,-125.7346416983624 249.45380349649818,-125.69556493789426 249.28760173844435,-125.65384597508066 249.12208281214762,-125.6094953124474 248.95728838611257,-125.56252411503658 248.79325994645464,-125.512944207596 248.63003878645634,-125.46076807160222 248.46766599617183,-125.40600884211842 248.3061824520828,-125.34868030448781 248.1456288068078,-125.28879689086315 247.98604547886848,-125.22637367657359 247.8274726425142,-125.16142637632947 247.66995021760857,-125.09397134026635 247.51351785957965,-125.02402554982882 247.35821494943693,-124.95160661349551 247.20408058385766,-124.87673276234644 247.05115356534398,-124.79942284547317 246.899472392455,-124.71969632523388 246.7490752501149,-124.63757327235369 246.6,-124.55307436087195 246.45228417100722,-124.46622086293775 246.30596494980657,-124.37703464345476 246.16107917147954,-124.28553815457676 246.017663310246,-124.19175443005554 245.8757534702821,-124.0957070794422 245.73538537663106,-123.99742028214364 245.59659436620987,-123.89691878133544 245.4594153789132,-123.794227877733 245.32388294881747,-123.68937342322211 245.19003119548714,-123.58238181435098 245.0578938153854,-123.47327998568497 244.9275040733909,-123.36209540302599 244.79889479442403,-123.24885605649816 244.67209835518295,-123.13359045350136 244.5471466759932,-123.01632761153476 244.42407121277174,-122.89709705089173 244.30290294910827,-122.77592878722827 244.18367238846525,-122.65285332400681 244.06640954649865,-122.52790164481704 243.95114394350188,-122.40110520557594 243.837904596974,-122.27249592660908 243.72672001431505,-122.14210618461463 243.61761818564904,-122.00996880451285 243.5106265767779,-121.87611705118255 243.405772122267,-121.74058462108681 243.30308121866457,-121.60340563379013 243.2025797178564,-121.46461462336896 243.1042929205578,-121.32424652971794 243.00824556994445,-121.182336689754 242.91446184542326,-121.03892082852047 242.82296535654524,-120.89403505019342 242.73377913706224,-120.7477158289928 242.64692563912806,-120.60000000000001 242.5624267276463,-120.45092474988506 242.4803036747661,-120.30052760754498 242.40057715452684,-120.14884643465605 242.32326723765357,-119.99591941614236 242.2483933865045,-119.84178505056306 242.1759744501712,-119.68648214042038 242.10602865973365,-119.53004978239144 242.03857362367052,-119.3725273574858 241.9736263234264,-119.21395452113154 241.91120310913686,-119.05437119319222 241.8513196955122,-118.89381754791724 241.79399115788158,-118.73233400382816 241.7392319283978,-118.56996121354368 241.68705579240398,-118.40674005354538 241.63747588496344,-118.24271161388745 241.59050468755262,-118.07791718785239 241.54615402491936,-117.91239826155567 241.50443506210576,-117.74619650350182 241.4653583016376,-117.57935375409464 241.42893358088037,-117.41191201510406 241.39517006956277,-117.24391343909244 241.36407626746814,-117.07540031880285 241.33566000229493,-116.90641507651219 241.30992842768592,-116.73700025335148 241.2868880214274,-116.5671984985965 241.26654458381844,-116.39705255893094 241.24890323621068,-116.22660526768517 241.23396841971902,-116.05589953405332 241.22174389410367,-115.8849783322909 241.21223273682352,-115.71388469089642 241.2054373422616,-115.54266168177914 241.20135942112213,-115.37135240941593 241.20000000000002,-115.2 241.20000000000002,-82.8 241.20135942112213,-82.62864759058407 241.2054373422616,-82.45733831822086 241.21223273682352,-82.28611530910358 241.22174389410367,-82.1150216677091 241.23396841971902,-81.94410046594668 241.24890323621068,-81.77339473231481 241.26654458381844,-81.60294744106908 241.2868880214274,-81.4328015014035 241.30992842768592,-81.26299974664852 241.33566000229493,-81.09358492348782 241.36407626746814,-80.92459968119715 241.39517006956277,-80.75608656090756 241.42893358088037,-80.58808798489594 241.4653583016376,-80.42064624590536 241.50443506210576,-80.25380349649818 241.54615402491936,-80.08760173844433 241.59050468755262,-79.92208281214762 241.63747588496344,-79.75728838611255 241.68705579240398,-79.59325994645462 241.7392319283978,-79.43003878645632 241.79399115788158,-79.26766599617184 241.8513196955122,-79.10618245208276 241.91120310913686,-78.94562880680778 241.9736263234264,-78.78604547886846 242.03857362367052,-78.6274726425142 242.10602865973365,-78.46995021760856 242.1759744501712,-78.31351785957962 242.2483933865045,-78.15821494943694 242.32326723765357,-78.00408058385764 242.40057715452684,-77.85115356534396 242.4803036747661,-77.69947239245502 242.5624267276463,-77.54907525011494 242.64692563912806,-77.39999999999999 242.73377913706224,-77.2522841710072 242.82296535654524,-77.10596494980658 242.91446184542323,-76.96107917147955 243.00824556994445,-76.817663310246 243.1042929205578,-76.67575347028206 243.2025797178564,-76.53538537663106 243.30308121866457,-76.39659436620987 243.405772122267,-76.25941537891319 243.5106265767779,-76.12388294881745 243.61761818564904,-75.99003119548715 243.72672001431505,-75.85789381538538 243.837904596974,-75.72750407339092 243.95114394350185,-75.59889479442406 244.06640954649865,-75.47209835518296 244.18367238846525,-75.34714667599319 244.30290294910827,-75.22407121277173 244.42407121277174,-75.10290294910827 244.5471466759932,-74.98367238846524 244.67209835518295,-74.86640954649864 244.79889479442403,-74.75114394350184 244.9275040733909,-74.63790459697401 245.0578938153854,-74.52672001431503 245.19003119548714,-74.41761818564902 245.32388294881747,-74.31062657677789 245.4594153789132,-74.205772122267 245.59659436620987,-74.10308121866456 245.73538537663106,-74.00257971785636 245.87575347028206,-73.9042929205578 246.017663310246,-73.80824556994446 246.16107917147954,-73.71446184542324 246.30596494980657,-73.62296535654524 246.45228417100722,-73.53377913706225 246.60000000000002,-73.44692563912805 246.7490752501149,-73.36242672764631 246.899472392455,-73.28030367476612 247.05115356534398,-73.20057715452683 247.20408058385766,-73.12326723765356 247.35821494943693,-73.04839338650449 247.51351785957965,-72.97597445017118 247.66995021760857,-72.90602865973365 247.8274726425142,-72.83857362367053 247.98604547886848,-72.77362632342641 248.1456288068078,-72.71120310913685 248.3061824520828,-72.65131969551219 248.46766599617183,-72.59399115788158 248.63003878645634,-72.53923192839778 248.7932599464546,-72.487055792404 248.95728838611257,-72.43747588496342 249.12208281214762,-72.39050468755262 249.28760173844435,-72.34615402491934 249.45380349649818,-72.30443506210574 249.62064624590533,-72.2653583016376 249.78808798489592,-72.22893358088038 249.95608656090758,-72.19517006956276 250.12459968119717,-72.16407626746815 250.2935849234878,-72.13566000229494 250.46299974664853,-72.10992842768593 250.63280150140352,-72.0868880214274 250.80294744106908,-72.06654458381844 250.97339473231483,-72.04890323621069 251.14410046594668,-72.03396841971902 251.31502166770912,-72.02174389410364 251.48611530910358,-72.0122327368235 251.65733831822087,-72.00543734226159 251.8286475905841,-72.00135942112213 252.0,-71.99999999999999 338.4,-71.99999999999999 " style="stroke:#FFFFFF;fill:none;stroke-width:2;stroke-dasharray:-;stroke-linecap:round;stroke-linejoin:round;" /><polygon points="295.2,9.000000000000007 295.3713524094159,8.99864057887786 295.5426616817791,8.994562657738408 295.7138846908964,8.987767263176494 295.88497833229087,8.97825610589636 296.0558995340533,8.966031580280985 296.22660526768516,8.951096763789321 296.3970525589309,8.933455416181554 296.5671984985965,8.913111978572598 296.7370002533514,8.89007157231408 296.9064150765122,8.864339997705066 297.0754003188028,8.835923732531853 297.24391343909247,8.80482993043724 297.411912015104,8.771066419119618 297.5793537540946,8.734641698362404 297.7461965035018,8.695564937894257 297.9123982615556,8.653845975080655 298.07791718785234,8.609495312447383 298.2427116138874,8.56252411503658 298.4067400535453,8.512944207596004 298.5699612135436,8.460768071602217 298.73233400382816,8.406008842118426 298.8938175479172,8.348680304487818 299.0543711931922,8.288796890863159 299.21395452113154,8.22637367657359 299.37252735748575,8.161426376329487 299.53004978239136,8.093971340266357 299.68648214042037,8.024025549828806 299.84178505056303,7.9516066134955175 299.9959194161423,7.876732762346435 300.14884643465604,7.799422845473179 300.30052760754495,7.719696325233892 300.4509247498851,7.637573272353683 300.59999999999997,7.553074360871943 300.74771582899274,7.466220862937757 300.89403505019345,7.377034643454762 301.0389208285205,7.285538154576763 301.182336689754,7.1917544300555365 301.3242465297179,7.0957070794422 301.4646146233689,6.997420282143632 301.6034056337901,6.896918781335439 301.7405846210867,6.794227877732994 301.8761170511825,6.6893734232221105 302.0099688045128,6.582381814350979 302.1421061846146,6.473279985684968 302.27249592660905,6.362095403025995 302.4011052055759,6.248856056498156 302.527901644817,6.133590453501364 302.6528533240068,6.016327611534765 302.7759287872282,5.897097050891724 302.89709705089166,5.775928787228274 303.01632761153473,5.652853324006815 303.1335904535013,5.527901644817032 303.24885605649814,5.401105205575954 303.362095403026,5.272495926609083 303.47327998568494,5.1421061846146285 303.5823818143509,5.009968804512847 303.6893734232221,4.876117051182541 303.79422787773296,4.740584621086805 303.8969187813354,4.603405633790121 303.9974202821436,4.464614623368943 304.09570707944215,4.324246529717929 304.19175443005554,4.182336689753994 304.2855381545767,4.0389208285204585 304.37703464345475,3.8940350501934304 304.46622086293775,3.747715828992793 304.5530743608719,3.6000000000000023 304.6375732723536,3.450924749885065 304.7196963252339,3.3005276075449768 304.79942284547315,3.1488464346560363 304.8767327623464,2.995919416142362 304.95160661349547,2.8417850505630566 305.02402554982876,2.6864821404203765 305.0939713402663,2.53004978239143 305.1614263763294,2.372527357485792 305.22637367657353,2.2139545211315403 305.2887968908631,2.0543711931922175 305.34868030448774,1.8938175479172243 305.40600884211835,1.7323340038281565 305.4607680716022,1.5699612135436638 305.512944207596,1.4067400535453698 305.5625241150365,1.242711613887443 305.60949531244734,1.0779171878523806 305.6538459750807,0.9123982615556561 305.69556493789423,0.7461965035018154 305.73464169836234,0.5793537540946406 305.7710664191196,0.4119120151040595 305.8048299304372,0.24391343909243102 305.83592373253185,0.07540031880284923 305.864339997705,-0.09358492348781924 305.890071572314,-0.2629997466485203 305.9131119785726,-0.43280150140350715 305.9334554161815,-0.6029474410690796 305.95109676378934,-0.7733947323148275 305.96603158028097,-0.9441004659466843 305.9782561058963,-1.1150216677091023 305.98776726317647,-1.2861153091035815 305.99456265773836,-1.4573383182208695 305.9986405788778,-1.6286475905840738 306.0,-1.799999999999999 306.0,-34.199999999999996 305.9986405788778,-34.37135240941593 305.99456265773836,-34.54266168177913 305.98776726317647,-34.713884690896414 305.9782561058963,-34.88497833229089 305.96603158028097,-35.05589953405331 305.95109676378934,-35.22660526768517 305.9334554161815,-35.397052558930916 305.9131119785726,-35.56719849859649 305.890071572314,-35.73700025335148 305.864339997705,-35.906415076512175 305.83592373253185,-36.07540031880285 305.8048299304372,-36.24391343909243 305.7710664191196,-36.41191201510406 305.73464169836234,-36.57935375409464 305.69556493789423,-36.74619650350182 305.6538459750807,-36.91239826155566 305.60949531244734,-37.07791718785238 305.5625241150365,-37.24271161388744 305.512944207596,-37.40674005354537 305.4607680716022,-37.569961213543664 305.40600884211835,-37.73233400382815 305.34868030448774,-37.89381754791722 305.2887968908631,-38.05437119319222 305.22637367657353,-38.21395452113154 305.1614263763294,-38.372527357485794 305.0939713402663,-38.53004978239143 305.02402554982876,-38.686482140420374 304.95160661349547,-38.841785050563054 304.8767327623464,-38.99591941614236 304.79942284547315,-39.148846434656036 304.7196963252339,-39.30052760754498 304.6375732723536,-39.45092474988506 304.5530743608719,-39.6 304.46622086293775,-39.747715828992796 304.37703464345475,-39.89403505019343 304.2855381545767,-40.03892082852045 304.19175443005554,-40.182336689753996 304.09570707944215,-40.324246529717925 303.9974202821436,-40.46461462336894 303.8969187813354,-40.60340563379012 303.79422787773296,-40.7405846210868 303.6893734232221,-40.87611705118254 303.5823818143509,-41.009968804512845 303.47327998568494,-41.14210618461462 303.362095403026,-41.27249592660908 303.24885605649814,-41.40110520557595 303.1335904535013,-41.52790164481703 303.01632761153473,-41.652853324006806 302.89709705089166,-41.77592878722827 302.7759287872282,-41.89709705089172 302.6528533240068,-42.01632761153476 302.527901644817,-42.133590453501355 302.4011052055759,-42.248856056498155 302.27249592660905,-42.36209540302599 302.1421061846146,-42.47327998568497 302.0099688045128,-42.58238181435098 301.8761170511825,-42.68937342322211 301.7405846210868,-42.794227877732986 301.6034056337901,-42.89691878133544 301.4646146233689,-42.99742028214363 301.3242465297179,-43.09570707944219 301.182336689754,-43.19175443005553 301.0389208285205,-43.28553815457676 300.89403505019345,-43.37703464345476 300.74771582899274,-43.46622086293775 300.59999999999997,-43.55307436087194 300.4509247498851,-43.637573272353684 300.30052760754495,-43.71969632523389 300.14884643465604,-43.799422845473174 299.9959194161423,-43.87673276234643 299.84178505056303,-43.951606613495514 299.68648214042037,-44.02402554982881 299.53004978239136,-44.09397134026635 299.37252735748575,-44.16142637632949 299.21395452113154,-44.22637367657359 299.0543711931922,-44.28879689086315 298.8938175479172,-44.348680304487814 298.73233400382816,-44.406008842118425 298.5699612135436,-44.46076807160222 298.4067400535453,-44.51294420759601 298.2427116138874,-44.56252411503658 298.07791718785234,-44.60949531244738 297.9123982615556,-44.65384597508066 297.7461965035018,-44.69556493789426 297.5793537540946,-44.734641698362395 297.411912015104,-44.77106641911961 297.24391343909235,-44.80482993043724 297.0754003188028,-44.835923732531846 296.9064150765122,-44.864339997705066 296.7370002533514,-44.89007157231407 296.5671984985965,-44.913111978572594 296.3970525589309,-44.93345541618155 296.22660526768516,-44.951096763789316 296.0558995340533,-44.96603158028098 295.88497833229087,-44.978256105896364 295.7138846908964,-44.987767263176494 295.54266168177907,-44.99456265773841 295.3713524094159,-44.998640578877854 295.2,-45.00000000000001 208.79999999999998,-45.0 208.62864759058405,-44.99864057887785 208.45733831822088,-44.99456265773839 208.28611530910356,-44.98776726317649 208.1150216677091,-44.97825610589635 207.9441004659467,-44.966031580280976 207.77339473231484,-44.951096763789316 207.60294744106906,-44.933455416181545 207.4328015014035,-44.91311197857259 207.26299974664852,-44.89007157231407 207.0935849234878,-44.86433999770506 206.92459968119715,-44.835923732531846 206.75608656090756,-44.804829930437236 206.58808798489594,-44.771066419119606 206.42064624590537,-44.734641698362395 206.2538034964982,-44.69556493789425 206.08760173844433,-44.65384597508064 205.9220828121476,-44.60949531244737 205.75728838611255,-44.562524115036574 205.59325994645465,-44.512944207596 205.43003878645632,-44.46076807160221 205.26766599617181,-44.40600884211842 205.10618245208278,-44.348680304487814 204.9456288068078,-44.288796890863146 204.78604547886846,-44.22637367657359 204.6274726425142,-44.16142637632948 204.46995021760856,-44.09397134026635 204.31351785957963,-44.0240255498288 204.15821494943694,-43.95160661349551 204.00408058385764,-43.87673276234642 203.85115356534396,-43.79942284547317 203.69947239245502,-43.71969632523388 203.54907525011492,-43.63757327235368 203.39999999999998,-43.55307436087193 203.2522841710072,-43.46622086293775 203.10596494980658,-43.37703464345475 202.96107917147955,-43.285538154576756 202.81766331024602,-43.191754430055525 202.67575347028207,-43.09570707944219 202.53538537663104,-42.99742028214363 202.39659436620988,-42.89691878133544 202.2594153789132,-42.794227877732986 202.12388294881745,-42.68937342322211 201.99003119548715,-42.58238181435097 201.85789381538538,-42.47327998568497 201.7275040733909,-42.36209540302599 201.59889479442404,-42.24885605649815 201.47209835518296,-42.133590453501355 201.34714667599317,-42.01632761153476 201.22407121277172,-41.897097050891716 201.10290294910828,-41.77592878722827 200.98367238846524,-41.652853324006806 200.86640954649863,-41.52790164481703 200.75114394350186,-41.40110520557595 200.63790459697398,-41.27249592660908 200.52672001431503,-41.14210618461462 200.41761818564902,-41.00996880451284 200.3106265767779,-40.87611705118254 200.205772122267,-40.740584621086796 200.10308121866458,-40.60340563379011 200.00257971785638,-40.46461462336894 199.9042929205578,-40.324246529717925 199.80824556994446,-40.182336689753996 199.71446184542322,-40.03892082852045 199.62296535654525,-39.89403505019343 199.53377913706225,-39.74771582899278 199.44692563912804,-39.599999999999994 199.36242672764632,-39.45092474988506 199.28030367476612,-39.30052760754497 199.20057715452683,-39.14884643465603 199.12326723765355,-38.99591941614236 199.04839338650447,-38.841785050563054 198.97597445017118,-38.68648214042037 198.90602865973364,-38.53004978239143 198.8385736236705,-38.37252735748579 198.7736263234264,-38.213954521131534 198.71120310913685,-38.05437119319222 198.65131969551217,-37.89381754791722 198.59399115788156,-37.73233400382815 198.53923192839778,-37.56996121354366 198.487055792404,-37.40674005354537 198.43747588496345,-37.24271161388744 198.3905046875526,-37.07791718785238 198.34615402491934,-36.91239826155566 198.30443506210574,-36.74619650350182 198.2653583016376,-36.57935375409464 198.22893358088038,-36.41191201510405 198.19517006956278,-36.24391343909243 198.16407626746815,-36.07540031880285 198.13566000229494,-35.906415076512175 198.10992842768593,-35.73700025335148 198.08688802142743,-35.56719849859649 198.06654458381843,-35.397052558930916 198.0489032362107,-35.22660526768517 198.03396841971903,-35.05589953405332 198.02174389410365,-34.88497833229089 198.01223273682348,-34.713884690896414 198.0054373422616,-34.54266168177913 198.00135942112215,-34.37135240941593 198.0,-34.199999999999996 198.0,-1.7999999999999983 198.00135942112215,-1.6286475905840734 198.0054373422616,-1.457338318220869 198.01223273682348,-1.2861153091035833 198.02174389410365,-1.1150216677090994 198.03396841971903,-0.9441004659466814 198.0489032362107,-0.7733947323148246 198.06654458381843,-0.602947441069079 198.08688802142743,-0.4328015014035064 198.10992842768593,-0.26299974664851977 198.13566000229494,-0.09358492348782074 198.16407626746815,0.07540031880284723 198.19517006956278,0.24391343909243351 198.2289335808804,0.4119120151040623 198.2653583016376,0.5793537540946412 198.30443506210574,0.7461965035018159 198.34615402491934,0.9123982615556566 198.3905046875526,1.0779171878523786 198.43747588496345,1.242711613887441 198.487055792404,1.4067400535453722 198.53923192839778,1.5699612135436634 198.59399115788156,1.7323340038281558 198.65131969551217,1.8938175479172243 198.71120310913685,2.0543711931922175 198.7736263234264,2.213954521131538 198.8385736236705,2.3725273574857892 198.90602865973364,2.5300497823914316 198.97597445017118,2.6864821404203765 199.04839338650447,2.8417850505630557 199.12326723765355,2.995919416142362 199.20057715452683,3.148846434656034 199.28030367476612,3.3005276075449737 199.36242672764632,3.450924749885062 199.44692563912807,3.600000000000004 199.53377913706225,3.747715828992788 199.62296535654525,3.8940350501934295 199.71446184542322,4.038920828520456 199.80824556994446,4.182336689753992 199.9042929205578,4.324246529717925 200.00257971785638,4.464614623368941 200.10308121866458,4.603405633790116 200.205772122267,4.7405846210868 200.3106265767779,4.87611705118254 200.41761818564902,5.009968804512845 200.52672001431503,5.142106184614626 200.63790459697398,5.27249592660908 200.75114394350186,5.401105205575951 200.86640954649863,5.527901644817028 200.98367238846524,5.652853324006809 201.10290294910828,5.775928787228272 201.22407121277172,5.8970970508917215 201.34714667599317,6.016327611534759 201.47209835518296,6.133590453501361 201.59889479442404,6.248856056498152 201.7275040733909,6.3620954030259895 201.85789381538538,6.473279985684963 201.99003119548718,6.582381814350977 202.12388294881745,6.689373423222104 202.2594153789132,6.794227877732989 202.39659436620988,6.896918781335434 202.53538537663104,6.997420282143627 202.67575347028207,7.095707079442194 202.81766331024602,7.19175443005553 202.96107917147955,7.285538154576755 203.10596494980658,7.377034643454754 203.2522841710072,7.466220862937753 203.39999999999998,7.553074360871939 203.54907525011492,7.637573272353679 203.69947239245502,7.719696325233887 203.85115356534396,7.799422845473174 204.00408058385764,7.876732762346429 204.15821494943694,7.9516066134955095 204.31351785957963,8.0240255498288 204.46995021760856,8.093971340266352 204.6274726425142,8.16142637632948 204.78604547886846,8.226373676573585 204.9456288068078,8.288796890863154 205.10618245208278,8.34868030448781 205.26766599617184,8.406008842118421 205.43003878645632,8.46076807160221 205.59325994645465,8.512944207595998 205.75728838611255,8.562524115036574 205.9220828121476,8.609495312447375 206.08760173844433,8.653845975080646 206.2538034964982,8.69556493789425 206.42064624590537,8.734641698362397 206.58808798489594,8.771066419119611 206.75608656090756,8.804829930437233 206.92459968119715,8.835923732531846 207.0935849234878,8.864339997705061 207.26299974664852,8.890071572314074 207.4328015014035,8.91311197857259 207.60294744106906,8.933455416181545 207.77339473231484,8.951096763789314 207.9441004659467,8.966031580280978 208.1150216677091,8.978256105896351 208.2861153091036,8.987767263176487 208.45733831822088,8.994562657738399 208.62864759058405,8.99864057887785 208.79999999999998,9.0 295.2,9.000000000000007 " style="stroke:#FFFFFF;fill:none;stroke-width:2;stroke-dasharray:-;stroke-linecap:round;stroke-linejoin:round;" /><path d="M 0.0,-0.0 L 0.0,-0.0 M 2.204364238465236e-15,-36.0 L 2.204364238465236e-15,-36.0" style="stroke:#FFFFFF;fill:none;stroke-width:2;stroke-dasharray:-;stroke-linecap:round;stroke-linejoin:round;" /><path d="M 9.000000000000002,-18.0 L 8.25,-19.863497124738156 L 7.500000000000002,-21.599999999999998 L 6.750000000000001,-23.091168824543143 L 6.000000000000002,-24.235382907247956 L 5.250000000000003,-24.95466594928129 L 4.500000000000002,-25.2 L 3.750000000000002,-24.954665949281292 L 3.0000000000000018,-24.23538290724796 L 2.2500000000000013,-23.09116882454314 L 1.500000000000002,-21.6 L 0.7500000000000016,-19.863497124738153 L 1.102182119232618e-15,-18.0 L -0.7499999999999983,-16.13650287526185 L -1.4999999999999978,-14.400000000000002 L -2.249999999999999,-12.908831175456855 L -2.9999999999999987,-11.764617092752044 L -3.7499999999999982,-11.045334050718708 L -4.499999999999999,-10.799999999999999 L -5.249999999999998,-11.045334050718706 L -5.999999999999997,-11.76461709275204 L -6.749999999999999,-12.908831175456857 L -7.499999999999998,-14.399999999999999 L -8.249999999999998,-16.136502875261847 L -8.999999999999998,-18.0" style="stroke:#FFFFFF;fill:none;stroke-width:2;stroke-dasharray:-;stroke-linecap:round;stroke-linejoin:round;" /><path d="M 2.204364238465236e-15,-36.0 L 3.3065463576978533e-15,-54.0 L 4.408728476930472e-15,-72.0" style="stroke:#FFFFFF;fill:none;stroke-width:2;stroke-dasharray:-;stroke-linecap:round;stroke-linejoin:round;" /><path d="M 4.408728476930472e-15,-72.0 L 18.000000000000004,-72.0 L 36.00000000000001,-72.0" style="stroke:#FFFFFF;fill:none;stroke-width:2;stroke-dasharray:-;stroke-linecap:round;stroke-linejoin:round;" /><path d="M 36.00000000000001,-72.0 L 72.0,-72.0 L 108.0,-72.0" style="stroke:#FFFFFF;fill:none;stroke-width:2;stroke-dasharray:-;stroke-linecap:round;stroke-linejoin:round;" /><path d="M 108.0,-72.0 L 126.0,-72.0 L 144.0,-72.0" style="stroke:#FFFFFF;fill:none;stroke-width:2;stroke-dasharray:-;stroke-linecap:round;stroke-linejoin:round;" /><path d="M 144.0,-72.0 L 144.0,-85.5 L 144.0,-99.0" style="stroke:#FFFFFF;fill:none;stroke-width:2;stroke-dasharray:-;stroke-linecap:round;stroke-linejoin:round;" /><path d="M 144.0,-99.0 L 162.0,-99.0 L 180.0,-99.0" style="stroke:#FFFFFF;fill:none;stroke-width:2;stroke-dasharray:-;stroke-linecap:round;stroke-linejoin:round;" /><path d="M 181.26,-114.12000000000002 L 181.26,-136.79999999999998" style="stroke:#666666;fill:none;stroke-width:0.3;stroke-dasharray:-;stroke-linecap:round;stroke-linejoin:round;" /><path d="M 188.82,-114.12000000000002 L 188.82,-136.79999999999998" style="stroke:#666666;fill:none;stroke-width:0.3;stroke-dasharray:-;stroke-linecap:round;stroke-linejoin:round;" /><path d="M 196.38,-114.12000000000002 L 196.38,-136.79999999999998" style="stroke:#666666;fill:none;stroke-width:0.3;stroke-dasharray:-;stroke-linecap:round;stroke-linejoin:round;" /><path d="M 203.94,-114.12000000000002 L 203.94,-136.79999999999998" style="stroke:#666666;fill:none;stroke-width:0.3;stroke-dasharray:-;stroke-linecap:round;stroke-linejoin:round;" /><path d="M 173.70000000000002,-121.67999999999999 L 211.5,-121.67999999999999" style="stroke:#666666;fill:none;stroke-width:0.3;stroke-dasharray:-;stroke-linecap:round;stroke-linejoin:round;" /><path d="M 173.70000000000002,-129.24 L 211.5,-129.24" style="stroke:#666666;fill:none;stroke-width:0.3;stroke-dasharray:-;stroke-linecap:round;stroke-linejoin:round;" /><path d="M 173.70000000000002,-125.46000000000001 L 175.68947368421053,-128.22156898558583 L 177.67894736842106,-130.68387912142563 L 179.66842105263157,-132.5801008976228 L 181.65789473684208,-133.70474926181402 L 183.64736842105265,-133.93595111302173 L 185.63684210526316,-133.24865214320127 L 187.6263157894737,-131.717331860275 L 189.6157894736842,-129.5079325777803 L 191.60526315789474,-126.85987699033765 L 193.59473684210525,-124.06012300966236 L 195.58421052631576,-121.41206742221969 L 197.57368421052632,-119.20266813972502 L 199.56315789473683,-117.67134785679875 L 201.55263157894737,-116.98404888697829 L 203.54210526315788,-117.215250738186 L 205.5315789473684,-118.3398991023772 L 207.52105263157895,-120.23612087857438 L 209.51052631578946,-122.69843101441417 L 211.5,-125.46000000000001" style="stroke:#e0213b;fill:none;stroke-width:1;stroke-dasharray:-;stroke-linecap:round;stroke-linejoin:round;" /><path d="M 205.20000000000002,-99.0 L 223.20000000000002,-99.0 L 241.20000000000002,-99.0" style="stroke:#FFFFFF;fill:none;stroke-width:2;stroke-dasharray:-;stroke-linecap:round;stroke-linejoin:round;" /><path d="M 349.2,-99.0 L 367.2,-99.0 L 385.2,-99.0" style="stroke:#FFFFFF;fill:none;stroke-width:2;stroke-dasharray:-;stroke-linecap:round;stroke-linejoin:round;" /><path d="M 385.2,-99.0 L 385.2,-49.5 L 385.2,-0.0" style="stroke:#FFFFFF;fill:none;stroke-width:2;stroke-dasharray:-;stroke-linecap:round;stroke-linejoin:round;" /><path d="M 385.2,-0.0 L 385.2,18.0 L 385.2,36.0" style="stroke:#FFFFFF;fill:none;stroke-width:2;stroke-dasharray:-;stroke-linecap:round;stroke-linejoin:round;" /><path d="M 144.0,-72.0 L 144.0,-45.0 L 143.99999999999997,-18.0" style="stroke:#FFFFFF;fill:none;stroke-width:2;stroke-dasharray:-;stroke-linecap:round;stroke-linejoin:round;" /><path d="M 143.99999999999997,-18.0 L 171.0,-18.0 L 198.0,-18.0" style="stroke:#FFFFFF;fill:none;stroke-width:2;stroke-dasharray:-;stroke-linecap:round;stroke-linejoin:round;" /><path d="M 306.0,-18.0 L 345.59999999999997,-18.0 L 385.2,-18.0" style="stroke:#FFFFFF;fill:none;stroke-width:2;stroke-dasharray:-;stroke-linecap:round;stroke-linejoin:round;" /><path d="M 385.2,-18.0 L 385.2,9.0 L 385.2,36.0" style="stroke:#FFFFFF;fill:none;stroke-width:2;stroke-dasharray:-;stroke-linecap:round;stroke-linejoin:round;" /><path d="M 385.2,36.0 L 192.6,35.99999999999998 L 0.0,35.99999999999995" style="stroke:#FFFFFF;fill:none;stroke-width:2;stroke-dasharray:-;stroke-linecap:round;stroke-linejoin:round;" /><path d="M 0.0,35.99999999999995 L 1.1021821192326163e-15,17.999999999999975 L 2.2043642384652327e-15,-0.0" style="stroke:#FFFFFF;fill:none;stroke-width:2;stroke-dasharray:-;stroke-linecap:round;stroke-linejoin:round;" /><text x="-21.599999999999998" y="-31.0" dominant-baseline="central" fill="#FFFFFF" font-size="13" font-family="sans" text-anchor="end"><tspan x="-21.599999999999998" dy="13">V<tspan baseline-shift="-2" font-size="smaller">s</tspan></tspan></text><text x="192.6" y="-158.79999999999998" dominant-baseline="ideographic" fill="#FFFFFF" font-size="13" font-family="sans" text-anchor="middle"><tspan x="192.6" dy="13">Measurement Device</tspan></text><text x="295.2" y="-112.0" dominant-baseline="central" fill="#FFFFFF" font-size="13" font-family="sans" text-anchor="middle"><tspan x="295.2" dy="13">Appliance A</tspan></text><text x="252.0" y="-31.0" dominant-baseline="central" fill="#FFFFFF" font-size="13" font-family="sans" text-anchor="middle"><tspan x="252.0" dy="13">Appliance A</tspan></text><circle cx="180.0" cy="-99.0" r="3.6" style="stroke:#FFFFFF;fill:none;stroke-width:1;stroke-dasharray:-;" /><circle cx="205.20000000000002" cy="-99.0" r="3.6" style="stroke:#FFFFFF;fill:none;stroke-width:1;stroke-dasharray:-;" /></svg>