<svg xmlns="http://www.w3.org/2000/svg" xmlns:xlink="http://www.w3.org/1999/xlink" xml:lang="en" height="171.2pt" width="373.052pt" viewBox="-44.45199999999999 -130.6 373.052 171.2"><circle cx="1.102182119232618e-15" cy="-18.0" r="18.0" style="stroke:#FFFFFF;fill:none;stroke-width:2;stroke-dasharray:-;" /><polygon points="277.2,-71.99999999999999 277.3713524094159,-72.00135942112215 277.5426616817791,-72.00543734226159 277.7138846908964,-72.0122327368235 277.8849783322909,-72.02174389410364 278.0558995340533,-72.03396841971902 278.22660526768516,-72.04890323621069 278.3970525589309,-72.06654458381846 278.5671984985965,-72.0868880214274 278.7370002533515,-72.10992842768593 278.9064150765122,-72.13566000229494 279.07540031880285,-72.16407626746815 279.24391343909247,-72.19517006956276 279.41191201510406,-72.22893358088038 279.57935375409465,-72.2653583016376 279.74619650350184,-72.30443506210574 279.91239826155567,-72.34615402491936 280.0779171878524,-72.39050468755262 280.2427116138874,-72.43747588496343 280.4067400535454,-72.487055792404 280.56996121354365,-72.5392319283978 280.73233400382816,-72.59399115788158 280.8938175479172,-72.65131969551219 281.0543711931922,-72.71120310913685 281.21395452113154,-72.77362632342641 281.37252735748575,-72.83857362367053 281.5300497823914,-72.90602865973365 281.68648214042037,-72.97597445017121 281.84178505056303,-73.0483933865045 281.9959194161424,-73.12326723765358 282.14884643465604,-73.20057715452683 282.30052760754495,-73.28030367476612 282.4509247498851,-73.36242672764632 282.59999999999997,-73.44692563912807 282.7477158289928,-73.53377913706225 282.89403505019345,-73.62296535654525 283.0389208285205,-73.71446184542326 283.182336689754,-73.80824556994448 283.3242465297179,-73.90429292055781 283.4646146233689,-74.00257971785638 283.6034056337901,-74.10308121866457 283.7405846210868,-74.205772122267 283.8761170511825,-74.31062657677789 284.0099688045128,-74.41761818564903 284.14210618461465,-74.52672001431503 284.27249592660905,-74.63790459697401 284.40110520557596,-74.75114394350186 284.527901644817,-74.86640954649864 284.6528533240068,-74.98367238846525 284.7759287872282,-75.10290294910828 284.8970970508917,-75.22407121277173 285.01632761153473,-75.3471466759932 285.13359045350137,-75.47209835518296 285.24885605649814,-75.59889479442406 285.362095403026,-75.72750407339092 285.47327998568494,-75.85789381538538 285.582381814351,-75.99003119548718 285.6893734232221,-76.12388294881745 285.79422787773296,-76.2594153789132 285.89691878133544,-76.39659436620988 285.9974202821436,-76.53538537663106 286.09570707944215,-76.67575347028207 286.19175443005554,-76.817663310246 286.2855381545767,-76.96107917147955 286.37703464345475,-77.10596494980658 286.46622086293775,-77.2522841710072 286.5530743608719,-77.39999999999999 286.6375732723537,-77.54907525011494 286.7196963252339,-77.69947239245504 286.79942284547315,-77.85115356534396 286.8767327623464,-78.00408058385764 286.95160661349547,-78.15821494943694 287.02402554982876,-78.31351785957963 287.0939713402663,-78.46995021760858 287.1614263763295,-78.6274726425142 287.2263736765736,-78.78604547886846 287.2887968908631,-78.94562880680779 287.3486803044878,-79.10618245208278 287.4060088421184,-79.26766599617184 287.46076807160216,-79.43003878645635 287.512944207596,-79.59325994645462 287.5625241150365,-79.75728838611255 287.60949531244734,-79.92208281214762 287.6538459750806,-80.08760173844433 287.69556493789423,-80.25380349649818 287.73464169836234,-80.42064624590536 287.7710664191196,-80.58808798489594 287.8048299304372,-80.75608656090756 287.83592373253185,-80.92459968119715 287.86433999770503,-81.09358492348782 287.890071572314,-81.26299974664852 287.9131119785726,-81.4328015014035 287.9334554161815,-81.60294744106908 287.9510967637893,-81.77339473231481 287.96603158028097,-81.94410046594668 287.9782561058963,-82.1150216677091 287.98776726317647,-82.28611530910358 287.99456265773836,-82.45733831822086 287.9986405788778,-82.62864759058407 287.99999999999994,-82.8 288.0,-115.2 287.9986405788779,-115.37135240941593 287.9945626577384,-115.54266168177914 287.9877672631765,-115.71388469089642 287.9782561058963,-115.8849783322909 287.96603158028097,-116.05589953405332 287.95109676378934,-116.22660526768519 287.9334554161816,-116.39705255893092 287.9131119785726,-116.5671984985965 287.89007157231407,-116.73700025335148 287.8643399977051,-116.90641507651219 287.83592373253185,-117.07540031880285 287.8048299304372,-117.24391343909244 287.7710664191196,-117.41191201510406 287.7346416983624,-117.57935375409464 287.69556493789423,-117.74619650350182 287.6538459750807,-117.91239826155567 287.6094953124474,-118.07791718785238 287.5625241150366,-118.24271161388745 287.51294420759604,-118.40674005354538 287.4607680716022,-118.56996121354368 287.40600884211847,-118.73233400382816 287.34868030448786,-118.89381754791724 287.2887968908632,-119.05437119319222 287.2263736765736,-119.21395452113154 287.1614263763295,-119.3725273574858 287.09397134026636,-119.53004978239144 287.0240255498288,-119.68648214042038 286.9516066134955,-119.84178505056306 286.8767327623464,-119.99591941614236 286.7994228454732,-120.14884643465605 286.7196963252339,-120.30052760754498 286.6375732723537,-120.45092474988506 286.55307436087196,-120.60000000000001 286.46622086293775,-120.7477158289928 286.37703464345475,-120.89403505019342 286.2855381545768,-121.03892082852045 286.19175443005554,-121.182336689754 286.0957070794422,-121.32424652971794 285.9974202821436,-121.46461462336894 285.89691878133544,-121.60340563379013 285.794227877733,-121.74058462108681 285.6893734232221,-121.87611705118255 285.582381814351,-122.00996880451285 285.47327998568494,-122.14210618461462 285.362095403026,-122.27249592660908 285.2488560564982,-122.40110520557594 285.13359045350137,-122.52790164481704 285.01632761153473,-122.65285332400681 284.8970970508917,-122.77592878722827 284.7759287872283,-122.89709705089173 284.6528533240068,-123.01632761153476 284.52790164481706,-123.13359045350136 284.40110520557596,-123.24885605649816 284.2724959266091,-123.36209540302599 284.14210618461465,-123.47327998568497 284.0099688045129,-123.58238181435098 283.8761170511825,-123.68937342322211 283.7405846210868,-123.794227877733 283.60340563379015,-123.89691878133544 283.46461462336896,-123.99742028214364 283.3242465297179,-124.0957070794422 283.182336689754,-124.19175443005554 283.0389208285205,-124.28553815457676 282.89403505019345,-124.37703464345476 282.7477158289928,-124.46622086293775 282.6,-124.55307436087195 282.4509247498851,-124.63757327235369 282.300527607545,-124.71969632523388 282.14884643465604,-124.79942284547317 281.9959194161424,-124.87673276234644 281.8417850505631,-124.95160661349551 281.68648214042037,-125.02402554982879 281.5300497823914,-125.09397134026635 281.3725273574858,-125.1614263763295 281.21395452113154,-125.22637367657359 281.0543711931922,-125.28879689086315 280.8938175479172,-125.34868030448781 280.73233400382816,-125.40600884211842 280.56996121354365,-125.46076807160222 280.4067400535454,-125.512944207596 280.2427116138874,-125.56252411503658 280.0779171878524,-125.60949531244738 279.91239826155567,-125.65384597508066 279.74619650350184,-125.69556493789426 279.57935375409465,-125.7346416983624 279.41191201510406,-125.77106641911962 279.24391343909247,-125.80482993043724 279.07540031880285,-125.83592373253185 278.9064150765122,-125.86433999770506 278.7370002533515,-125.89007157231407 278.5671984985965,-125.9131119785726 278.3970525589309,-125.93345541618156 278.22660526768516,-125.95109676378931 278.0558995340533,-125.96603158028098 277.8849783322909,-125.97825610589636 277.7138846908964,-125.9877672631765 277.5426616817791,-125.99456265773841 277.3713524094159,-125.99864057887787 277.2,-126.0 190.79999999999998,-126.0 190.62864759058405,-125.99864057887787 190.45733831822088,-125.99456265773841 190.28611530910356,-125.9877672631765 190.1150216677091,-125.97825610589636 189.9441004659467,-125.96603158028098 189.77339473231484,-125.95109676378931 189.60294744106906,-125.93345541618156 189.4328015014035,-125.9131119785726 189.26299974664852,-125.89007157231407 189.0935849234878,-125.86433999770506 188.92459968119715,-125.83592373253185 188.75608656090756,-125.80482993043724 188.58808798489594,-125.77106641911962 188.42064624590537,-125.7346416983624 188.2538034964982,-125.69556493789426 188.08760173844433,-125.65384597508066 187.9220828121476,-125.6094953124474 187.75728838611255,-125.56252411503658 187.59325994645465,-125.512944207596 187.43003878645632,-125.46076807160222 187.26766599617181,-125.40600884211842 187.10618245208278,-125.34868030448781 186.9456288068078,-125.28879689086315 186.78604547886846,-125.22637367657359 186.6274726425142,-125.16142637632947 186.46995021760856,-125.09397134026635 186.31351785957963,-125.02402554982882 186.15821494943694,-124.95160661349551 186.00408058385764,-124.87673276234644 185.85115356534396,-124.79942284547317 185.69947239245502,-124.71969632523388 185.54907525011492,-124.63757327235369 185.39999999999998,-124.55307436087195 185.2522841710072,-124.46622086293775 185.10596494980658,-124.37703464345476 184.96107917147955,-124.28553815457676 184.81766331024602,-124.19175443005554 184.67575347028207,-124.0957070794422 184.53538537663104,-123.99742028214364 184.39659436620988,-123.89691878133544 184.2594153789132,-123.794227877733 184.12388294881745,-123.68937342322211 183.99003119548715,-123.58238181435098 183.85789381538538,-123.47327998568497 183.7275040733909,-123.36209540302599 183.59889479442404,-123.24885605649816 183.47209835518296,-123.13359045350136 183.34714667599317,-123.01632761153476 183.22407121277172,-122.89709705089173 183.10290294910828,-122.77592878722827 182.98367238846524,-122.65285332400681 182.86640954649863,-122.52790164481704 182.75114394350186,-122.40110520557594 182.63790459697398,-122.27249592660908 182.52672001431503,-122.14210618461463 182.41761818564902,-122.00996880451285 182.3106265767779,-121.87611705118255 182.205772122267,-121.74058462108681 182.10308121866458,-121.60340563379013 182.00257971785638,-121.46461462336896 181.9042929205578,-121.32424652971794 181.80824556994446,-121.182336689754 181.71446184542322,-121.03892082852047 181.62296535654525,-120.89403505019342 181.53377913706225,-120.7477158289928 181.44692563912804,-120.60000000000001 181.36242672764632,-120.45092474988506 181.28030367476612,-120.30052760754498 181.20057715452683,-120.14884643465605 181.12326723765355,-119.99591941614236 181.04839338650447,-119.84178505056306 180.97597445017118,-119.68648214042038 180.90602865973364,-119.53004978239144 180.8385736236705,-119.3725273574858 180.7736263234264,-119.21395452113154 180.71120310913685,-119.05437119319222 180.65131969551217,-118.89381754791724 180.59399115788156,-118.73233400382816 180.53923192839778,-118.56996121354368 180.487055792404,-118.40674005354538 180.43747588496345,-118.24271161388745 180.3905046875526,-118.07791718785239 180.34615402491934,-117.91239826155567 180.30443506210574,-117.74619650350182 180.2653583016376,-117.57935375409464 180.22893358088038,-117.41191201510406 180.19517006956278,-117.24391343909244 180.16407626746815,-117.07540031880285 180.13566000229494,-116.90641507651219 180.10992842768593,-116.73700025335148 180.08688802142743,-116.5671984985965 180.06654458381843,-116.39705255893094 180.0489032362107,-116.22660526768517 180.03396841971903,-116.05589953405332 180.02174389410365,-115.8849783322909 180.01223273682348,-115.71388469089642 180.0054373422616,-115.54266168177914 180.00135942112215,-115.37135240941593 180.0,-115.2 180.0,-82.8 180.00135942112215,-82.62864759058407 180.0054373422616,-82.45733831822086 180.01223273682348,-82.28611530910358 180.02174389410365,-82.1150216677091 180.03396841971903,-81.94410046594668 180.0489032362107,-81.77339473231481 180.06654458381843,-81.60294744106908 180.08688802142743,-81.4328015014035 180.10992842768593,-81.26299974664852 180.13566000229494,-81.09358492348782 180.16407626746815,-80.92459968119715 180.19517006956278,-80.75608656090756 180.22893358088038,-80.58808798489594 180.2653583016376,-80.42064624590536 180.30443506210574,-80.25380349649818 180.34615402491934,-80.08760173844433 180.3905046875526,-79.92208281214762 180.43747588496342,-79.75728838611255 180.487055792404,-79.59325994645462 180.53923192839778,-79.43003878645632 180.59399115788156,-79.26766599617184 180.65131969551217,-79.10618245208276 180.71120310913685,-78.94562880680778 180.7736263234264,-78.78604547886846 180.8385736236705,-78.6274726425142 180.90602865973364,-78.46995021760856 180.97597445017118,-78.31351785957962 181.04839338650447,-78.15821494943694 181.12326723765355,-78.00408058385764 181.20057715452683,-77.85115356534396 181.28030367476612,-77.69947239245502 181.36242672764632,-77.54907525011494 181.44692563912804,-77.39999999999999 181.53377913706225,-77.2522841710072 181.62296535654525,-77.10596494980658 181.71446184542322,-76.96107917147955 181.80824556994446,-76.817663310246 181.9042929205578,-76.67575347028206 182.00257971785638,-76.53538537663106 182.10308121866458,-76.39659436620987 182.205772122267,-76.25941537891319 182.3106265767779,-76.12388294881745 182.41761818564902,-75.99003119548715 182.52672001431503,-75.85789381538538 182.63790459697398,-75.72750407339092 182.75114394350183,-75.59889479442406 182.86640954649863,-75.47209835518296 182.98367238846524,-75.34714667599319 183.10290294910828,-75.22407121277173 183.22407121277172,-75.10290294910827 183.34714667599317,-74.98367238846524 183.47209835518296,-74.86640954649864 183.59889479442404,-74.75114394350184 183.7275040733909,-74.63790459697401 183.85789381538538,-74.52672001431503 183.99003119548715,-74.41761818564902 184.12388294881745,-74.31062657677789 184.2594153789132,-74.205772122267 184.39659436620988,-74.10308121866456 184.53538537663104,-74.00257971785636 184.67575347028205,-73.9042929205578 184.81766331024602,-73.80824556994446 184.96107917147955,-73.71446184542324 185.10596494980658,-73.62296535654524 185.2522841710072,-73.53377913706225 185.4,-73.44692563912805 185.54907525011492,-73.36242672764631 185.69947239245502,-73.28030367476612 185.85115356534396,-73.20057715452683 186.00408058385764,-73.12326723765356 186.15821494943694,-73.04839338650449 186.31351785957963,-72.97597445017118 186.46995021760856,-72.90602865973365 186.6274726425142,-72.83857362367053 186.78604547886846,-72.77362632342641 186.9456288068078,-72.71120310913685 187.10618245208278,-72.65131969551219 187.26766599617181,-72.59399115788158 187.43003878645632,-72.53923192839778 187.59325994645462,-72.487055792404 187.75728838611255,-72.43747588496342 187.9220828121476,-72.39050468755262 188.08760173844433,-72.34615402491934 188.2538034964982,-72.30443506210574 188.42064624590535,-72.2653583016376 188.58808798489594,-72.22893358088038 188.75608656090756,-72.19517006956276 188.92459968119715,-72.16407626746815 189.0935849234878,-72.13566000229494 189.26299974664852,-72.10992842768593 189.4328015014035,-72.0868880214274 189.60294744106906,-72.06654458381844 189.77339473231484,-72.04890323621069 189.9441004659467,-72.03396841971902 190.1150216677091,-72.02174389410364 190.28611530910356,-72.0122327368235 190.45733831822088,-72.00543734226159 190.62864759058408,-72.00135942112213 190.79999999999998,-71.99999999999999 277.2,-71.99999999999999 " style="stroke:#FFFFFF;fill:none;stroke-width:2;stroke-dasharray:-;stroke-linecap:round;stroke-linejoin:round;" /><polygon points="277.2,9.000000000000007 277.3713524094159,8.998640578877858 277.5426616817791,8.994562657738408 277.71388469089646,8.987767263176492 277.8849783322909,8.978256105896358 278.0558995340533,8.966031580280983 278.22660526768516,8.95109676378932 278.3970525589309,8.933455416181548 278.5671984985965,8.913111978572594 278.7370002533515,8.890071572314078 278.9064150765122,8.864339997705063 279.07540031880285,8.83592373253185 279.24391343909247,8.804829930437235 279.41191201510406,8.771066419119613 279.57935375409465,8.734641698362399 279.74619650350184,8.695564937894252 279.91239826155567,8.65384597508065 280.0779171878524,8.609495312447375 280.2427116138874,8.562524115036574 280.4067400535454,8.512944207595998 280.56996121354365,8.46076807160221 280.73233400382816,8.40600884211842 280.8938175479172,8.348680304487809 281.0543711931922,8.288796890863152 281.21395452113154,8.226373676573582 281.37252735748575,8.161426376329477 281.5300497823914,8.09397134026635 281.68648214042037,8.024025549828796 281.84178505056303,7.951606613495505 281.9959194161424,7.876732762346425 282.14884643465604,7.7994228454731696 282.30052760754495,7.719696325233882 282.4509247498851,7.637573272353675 282.59999999999997,7.553074360871935 282.7477158289928,7.466220862937747 282.89403505019345,7.37703464345475 283.0389208285205,7.285538154576751 283.182336689754,7.191754430055526 283.3242465297179,7.095707079442189 283.4646146233689,6.99742028214362 283.6034056337901,6.896918781335427 283.7405846210868,6.794227877732982 283.8761170511825,6.689373423222098 284.0099688045128,6.582381814350968 284.14210618461465,6.473279985684957 284.27249592660905,6.362095403025984 284.40110520557596,6.248856056498144 284.527901644817,6.133590453501354 284.6528533240068,6.016327611534752 284.7759287872283,5.897097050891713 284.8970970508917,5.775928787228263 285.01632761153473,5.652853324006802 285.13359045350137,5.527901644817021 285.24885605649814,5.401105205575943 285.362095403026,5.272495926609071 285.47327998568494,5.142106184614617 285.582381814351,5.009968804512837 285.6893734232221,4.87611705118253 285.79422787773296,4.740584621086794 285.89691878133544,4.603405633790111 285.9974202821436,4.4646146233689326 286.09570707944215,4.324246529717917 286.19175443005554,4.182336689753985 286.2855381545767,4.038920828520447 286.37703464345475,3.8940350501934193 286.46622086293775,3.7477158289927823 286.5530743608719,3.5999999999999943 286.6375732723537,3.450924749885054 286.7196963252339,3.3005276075449665 286.79942284547315,3.148846434656025 286.8767327623464,2.995919416142354 286.95160661349547,2.8417850505630478 287.02402554982876,2.6864821404203676 287.0939713402663,2.530049782391421 287.1614263763295,2.372527357485783 287.2263736765736,2.2139545211315315 287.2887968908631,2.0543711931922104 287.3486803044878,1.8938175479172175 287.4060088421184,1.732334003828149 287.4607680716022,1.569961213543655 287.512944207596,1.406740053545363 287.5625241150366,1.2427116138874355 287.60949531244734,1.0779171878523734 287.6538459750806,0.9123982615556512 287.69556493789423,0.7461965035018104 287.73464169836234,0.5793537540946336 287.7710664191196,0.4119120151040548 287.8048299304372,0.24391343909242627 287.83592373253185,0.07540031880284448 287.86433999770503,-0.09358492348782374 287.890071572314,-0.26299974664852255 287.9131119785726,-0.43280150140351165 287.9334554161815,-0.6029474410690843 287.9510967637893,-0.7733947323148299 287.96603158028097,-0.9441004659466867 287.9782561058963,-1.1150216677091047 287.98776726317647,-1.2861153091035842 287.99456265773836,-1.4573383182208717 287.9986405788778,-1.628647590584076 287.99999999999994,-1.8000000000000012 288.0,-34.199999999999996 287.9986405788779,-34.37135240941593 287.9945626577384,-34.54266168177913 287.9877672631765,-34.713884690896414 287.9782561058963,-34.88497833229089 287.96603158028097,-35.05589953405331 287.95109676378934,-35.22660526768517 287.9334554161816,-35.397052558930916 287.9131119785726,-35.56719849859649 287.89007157231407,-35.73700025335148 287.8643399977051,-35.906415076512175 287.83592373253185,-36.07540031880285 287.8048299304372,-36.24391343909243 287.7710664191196,-36.41191201510406 287.7346416983624,-36.57935375409464 287.69556493789423,-36.74619650350181 287.6538459750807,-36.91239826155566 287.6094953124474,-37.07791718785238 287.5625241150366,-37.24271161388744 287.51294420759604,-37.40674005354537 287.4607680716022,-37.569961213543664 287.40600884211847,-37.73233400382815 287.34868030448786,-37.89381754791722 287.2887968908632,-38.05437119319221 287.2263736765736,-38.213954521131534 287.1614263763295,-38.372527357485794 287.09397134026636,-38.53004978239143 287.0240255498288,-38.686482140420374 286.9516066134955,-38.841785050563054 286.8767327623464,-38.99591941614236 286.7994228454732,-39.14884643465603 286.7196963252339,-39.30052760754497 286.6375732723537,-39.45092474988506 286.55307436087196,-39.599999999999994 286.46622086293775,-39.74771582899278 286.37703464345475,-39.89403505019342 286.2855381545768,-40.03892082852045 286.19175443005554,-40.182336689753996 286.0957070794422,-40.32424652971792 285.9974202821436,-40.46461462336894 285.89691878133544,-40.60340563379011 285.794227877733,-40.740584621086796 285.6893734232221,-40.87611705118253 285.582381814351,-41.00996880451284 285.47327998568494,-41.14210618461462 285.362095403026,-41.27249592660908 285.2488560564982,-41.40110520557595 285.13359045350137,-41.52790164481703 285.01632761153473,-41.652853324006806 284.8970970508917,-41.77592878722827 284.7759287872283,-41.897097050891716 284.6528533240068,-42.01632761153475 284.52790164481706,-42.133590453501355 284.40110520557596,-42.24885605649815 284.2724959266091,-42.36209540302599 284.14210618461465,-42.47327998568497 284.0099688045129,-42.58238181435097 283.8761170511825,-42.68937342322211 283.7405846210868,-42.794227877732986 283.60340563379015,-42.89691878133544 283.46461462336896,-42.99742028214363 283.3242465297179,-43.095707079442185 283.182336689754,-43.191754430055525 283.0389208285205,-43.285538154576756 282.89403505019345,-43.37703464345475 282.7477158289928,-43.46622086293775 282.6,-43.55307436087194 282.4509247498851,-43.63757327235368 282.300527607545,-43.71969632523388 282.14884643465604,-43.79942284547317 281.9959194161424,-43.87673276234642 281.8417850505631,-43.95160661349551 281.68648214042037,-44.0240255498288 281.5300497823914,-44.09397134026635 281.3725273574858,-44.16142637632948 281.21395452113154,-44.22637367657359 281.0543711931922,-44.288796890863146 280.8938175479172,-44.348680304487814 280.73233400382816,-44.40600884211842 280.56996121354365,-44.46076807160221 280.4067400535454,-44.512944207596 280.2427116138874,-44.562524115036574 280.0779171878524,-44.60949531244737 279.91239826155567,-44.65384597508064 279.74619650350184,-44.69556493789425 279.57935375409465,-44.734641698362395 279.41191201510406,-44.771066419119606 279.24391343909247,-44.804829930437236 279.07540031880285,-44.835923732531846 278.9064150765122,-44.86433999770506 278.7370002533515,-44.89007157231407 278.5671984985965,-44.91311197857259 278.3970525589309,-44.933455416181545 278.22660526768516,-44.951096763789316 278.0558995340533,-44.966031580280976 277.8849783322909,-44.97825610589635 277.7138846908964,-44.98776726317649 277.5426616817791,-44.99456265773839 277.3713524094159,-44.99864057887785 277.2,-45.0 190.79999999999998,-45.0 190.62864759058405,-44.99864057887785 190.45733831822088,-44.99456265773839 190.28611530910356,-44.98776726317649 190.1150216677091,-44.97825610589635 189.9441004659467,-44.966031580280976 189.77339473231484,-44.951096763789316 189.60294744106906,-44.933455416181545 189.4328015014035,-44.91311197857259 189.26299974664852,-44.89007157231407 189.0935849234878,-44.86433999770506 188.92459968119715,-44.835923732531846 188.75608656090756,-44.804829930437236 188.58808798489594,-44.771066419119606 188.42064624590537,-44.734641698362395 188.2538034964982,-44.69556493789425 188.08760173844433,-44.65384597508064 187.9220828121476,-44.60949531244737 187.75728838611255,-44.562524115036574 187.59325994645465,-44.512944207596 187.43003878645632,-44.46076807160221 187.26766599617181,-44.40600884211842 187.10618245208278,-44.348680304487814 186.9456288068078,-44.288796890863146 186.78604547886846,-44.22637367657359 186.6274726425142,-44.16142637632948 186.46995021760856,-44.09397134026635 186.31351785957963,-44.0240255498288 186.15821494943694,-43.95160661349551 186.00408058385764,-43.87673276234642 185.85115356534396,-43.79942284547317 185.69947239245502,-43.71969632523388 185.54907525011492,-43.63757327235368 185.39999999999998,-43.55307436087193 185.2522841710072,-43.46622086293775 185.10596494980658,-43.37703464345475 184.96107917147955,-43.285538154576756 184.81766331024602,-43.191754430055525 184.67575347028207,-43.09570707944219 184.53538537663104,-42.99742028214363 184.39659436620988,-42.89691878133544 184.2594153789132,-42.794227877732986 184.12388294881745,-42.68937342322211 183.99003119548715,-42.58238181435097 183.85789381538538,-42.47327998568497 183.7275040733909,-42.36209540302599 183.59889479442404,-42.24885605649815 183.47209835518296,-42.133590453501355 183.34714667599317,-42.01632761153476 183.22407121277172,-41.897097050891716 183.10290294910828,-41.77592878722827 182.98367238846524,-41.652853324006806 182.86640954649863,-41.52790164481703 182.75114394350186,-41.40110520557595 182.63790459697398,-41.27249592660908 182.52672001431503,-41.14210618461462 182.41761818564902,-41.00996880451284 182.3106265767779,-40.87611705118254 182.205772122267,-40.740584621086796 182.10308121866458,-40.60340563379011 182.00257971785638,-40.46461462336894 181.9042929205578,-40.324246529717925 181.80824556994446,-40.182336689753996 181.71446184542322,-40.03892082852045 181.62296535654525,-39.89403505019343 181.53377913706225,-39.74771582899278 181.44692563912804,-39.599999999999994 181.36242672764632,-39.45092474988506 181.28030367476612,-39.30052760754497 181.20057715452683,-39.14884643465603 181.12326723765355,-38.99591941614236 181.04839338650447,-38.841785050563054 180.97597445017118,-38.68648214042037 180.90602865973364,-38.53004978239143 180.8385736236705,-38.37252735748579 180.7736263234264,-38.213954521131534 180.71120310913685,-38.05437119319222 180.65131969551217,-37.89381754791722 180.59399115788156,-37.73233400382815 180.53923192839778,-37.56996121354366 180.487055792404,-37.40674005354537 180.43747588496345,-37.24271161388744 180.3905046875526,-37.07791718785238 180.34615402491934,-36.91239826155566 180.30443506210574,-36.74619650350182 180.2653583016376,-36.57935375409464 180.22893358088038,-36.41191201510405 180.19517006956278,-36.24391343909243 180.16407626746815,-36.07540031880285 180.13566000229494,-35.906415076512175 180.10992842768593,-35.73700025335148 180.08688802142743,-35.56719849859649 180.06654458381843,-35.397052558930916 180.0489032362107,-35.22660526768517 180.03396841971903,-35.05589953405332 180.02174389410365,-34.88497833229089 180.01223273682348,-34.713884690896414 180.0054373422616,-34.54266168177913 180.00135942112215,-34.37135240941593 180.0,-34.199999999999996 180.0,-1.7999999999999983 180.00135942112215,-1.6286475905840734 180.0054373422616,-1.457338318220869 180.01223273682348,-1.2861153091035833 180.02174389410365,-1.1150216677090994 180.03396841971903,-0.9441004659466814 180.0489032362107,-0.7733947323148246 180.06654458381843,-0.602947441069079 180.08688802142743,-0.4328015014035064 180.10992842768593,-0.26299974664851977 180.13566000229494,-0.09358492348782074 180.16407626746815,0.07540031880284723 180.19517006956278,0.24391343909243351 180.2289335808804,0.4119120151040623 180.2653583016376,0.5793537540946412 180.30443506210574,0.7461965035018159 180.34615402491934,0.9123982615556566 180.3905046875526,1.0779171878523786 180.43747588496345,1.242711613887441 180.487055792404,1.4067400535453722 180.53923192839778,1.5699612135436634 180.59399115788156,1.7323340038281558 180.65131969551217,1.8938175479172243 180.71120310913685,2.0543711931922175 180.7736263234264,2.213954521131538 180.8385736236705,2.3725273574857892 180.90602865973364,2.5300497823914316 180.97597445017118,2.6864821404203765 181.04839338650447,2.8417850505630557 181.12326723765355,2.995919416142362 181.20057715452683,3.148846434656034 181.28030367476612,3.3005276075449737 181.36242672764632,3.450924749885062 181.44692563912807,3.600000000000004 181.53377913706225,3.747715828992788 181.62296535654525,3.8940350501934295 181.71446184542322,4.038920828520456 181.80824556994446,4.182336689753992 181.9042929205578,4.324246529717925 182.00257971785638,4.464614623368941 182.10308121866458,4.603405633790116 182.205772122267,4.7405846210868 182.3106265767779,4.87611705118254 182.41761818564902,5.009968804512845 182.52672001431503,5.142106184614626 182.63790459697398,5.27249592660908 182.75114394350186,5.401105205575951 182.86640954649863,5.527901644817028 182.98367238846524,5.652853324006809 183.10290294910828,5.775928787228272 183.22407121277172,5.8970970508917215 183.34714667599317,6.016327611534759 183.47209835518296,6.133590453501361 183.59889479442404,6.248856056498152 183.7275040733909,6.3620954030259895 183.85789381538538,6.473279985684963 183.99003119548718,6.582381814350977 184.12388294881745,6.689373423222104 184.2594153789132,6.794227877732989 184.39659436620988,6.896918781335434 184.53538537663104,6.997420282143627 184.67575347028207,7.095707079442194 184.81766331024602,7.19175443005553 184.96107917147955,7.285538154576755 185.10596494980658,7.377034643454754 185.2522841710072,7.466220862937753 185.39999999999998,7.553074360871939 185.54907525011492,7.637573272353679 185.69947239245502,7.719696325233887 185.85115356534396,7.799422845473174 186.00408058385764,7.876732762346429 186.15821494943694,7.9516066134955095 186.31351785957963,8.0240255498288 186.46995021760856,8.093971340266352 186.6274726425142,8.16142637632948 186.78604547886846,8.226373676573585 186.9456288068078,8.288796890863154 187.10618245208278,8.34868030448781 187.26766599617184,8.406008842118421 187.43003878645632,8.46076807160221 187.59325994645465,8.512944207595998 187.75728838611255,8.562524115036574 187.9220828121476,8.609495312447375 188.08760173844433,8.653845975080646 188.2538034964982,8.69556493789425 188.42064624590537,8.734641698362397 188.58808798489594,8.771066419119611 188.75608656090756,8.804829930437233 188.92459968119715,8.835923732531846 189.0935849234878,8.864339997705061 189.26299974664852,8.890071572314074 189.4328015014035,8.91311197857259 189.60294744106906,8.933455416181545 189.77339473231484,8.951096763789314 189.9441004659467,8.966031580280978 190.1150216677091,8.978256105896351 190.2861153091036,8.987767263176487 190.45733831822088,8.994562657738399 190.62864759058405,8.99864057887785 190.79999999999998,9.0 277.2,9.000000000000007 " style="stroke:#FFFFFF;fill:none;stroke-width:2;stroke-dasharray:-;stroke-linecap:round;stroke-linejoin:round;" /><path d="M 0.0,-0.0 L 0.0,-0.0 M 2.204364238465236e-15,-36.0 L 2.204364238465236e-15,-36.0" style="stroke:#FFFFFF;fill:none;stroke-width:2;stroke-dasharray:-;stroke-linecap:round;stroke-linejoin:round;" /><path d="M 9.000000000000002,-18.0 L 8.25,-19.863497124738156 L 7.500000000000002,-21.599999999999998 L 6.750000000000001,-23.091168824543143 L 6.000000000000002,-24.235382907247956 L 5.250000000000003,-24.95466594928129 L 4.500000000000002,-25.2 L 3.750000000000002,-24.954665949281292 L 3.0000000000000018,-24.23538290724796 L 2.2500000000000013,-23.09116882454314 L 1.500000000000002,-21.6 L 0.7500000000000016,-19.863497124738153 L 1.102182119232618e-15,-18.0 L -0.7499999999999983,-16.13650287526185 L -1.4999999999999978,-14.400000000000002 L -2.249999999999999,-12.908831175456855 L -2.9999999999999987,-11.764617092752044 L -3.7499999999999982,-11.045334050718708 L -4.499999999999999,-10.799999999999999 L -5.249999999999998,-11.045334050718706 L -5.999999999999997,-11.76461709275204 L -6.749999999999999,-12.908831175456857 L -7.499999999999998,-14.399999999999999 L -8.249999999999998,-16.136502875261847 L -8.999999999999998,-18.0" style="stroke:#FFFFFF;fill:none;stroke-width:2;stroke-dasharray:-;stroke-linecap:round;stroke-linejoin:round;" /><path d="M 2.204364238465236e-15,-36.0 L 3.3065463576978533e-15,-54.0 L 4.408728476930472e-15,-72.0" style="stroke:#FFFFFF;fill:none;stroke-width:2;stroke-dasharray:-;stroke-linecap:round;stroke-linejoin:round;" /><path d="M 4.408728476930472e-15,-72.0 L 18.000000000000004,-72.0 L 36.00000000000001,-72.0" style="stroke:#FFFFFF;fill:none;stroke-width:2;stroke-dasharray:-;stroke-linecap:round;stroke-linejoin:round;" /><path d="M 36.00000000000001,-72.0 L 72.0,-72.0 L 108.0,-72.0" style="stroke:#FFFFFF;fill:none;stroke-width:2;stroke-dasharray:-;stroke-linecap:round;stroke-linejoin:round;" /><path d="M 108.0,-72.0 L 126.0,-72.0 L 144.0,-72.0" style="stroke:#FFFFFF;fill:none;stroke-width:2;stroke-dasharray:-;stroke-linecap:round;stroke-linejoin:round;" /><path d="M 144.0,-72.0 L 144.0,-85.5 L 144.0,-99.0" style="stroke:#FFFFFF;fill:none;stroke-width:2;stroke-dasharray:-;stroke-linecap:round;stroke-linejoin:round;" /><path d="M 144.0,-99.0 L 162.0,-99.0 L 180.0,-99.0" style="stroke:#FFFFFF;fill:none;stroke-width:2;stroke-dasharray:-;stroke-linecap:round;stroke-linejoin:round;" /><path d="M 288.0,-99.0 L 306.0,-99.0 L 324.0,-99.0" style="stroke:#FFFFFF;fill:none;stroke-width:2;stroke-dasharray:-;stroke-linecap:round;stroke-linejoin:round;" /><path d="M 324.0,-99.0 L 324.0,-45.0 L 324.0,9.0" style="stroke:#FFFFFF;fill:none;stroke-width:2;stroke-dasharray:-;stroke-linecap:round;stroke-linejoin:round;" /><path d="M 144.0,-72.0 L 144.0,-45.0 L 143.99999999999997,-18.0" style="stroke:#FFFFFF;fill:none;stroke-width:2;stroke-dasharray:-;stroke-linecap:round;stroke-linejoin:round;" /><path d="M 143.99999999999997,-18.0 L 162.0,-18.0 L 180.0,-18.0" style="stroke:#FFFFFF;fill:none;stroke-width:2;stroke-dasharray:-;stroke-linecap:round;stroke-linejoin:round;" /><path d="M 288.0,-18.0 L 306.0,-18.0 L 324.0,-18.0" style="stroke:#FFFFFF;fill:none;stroke-width:2;stroke-dasharray:-;stroke-linecap:round;stroke-linejoin:round;" /><path d="M 324.0,-18.0 L 324.0,9.0 L 324.0,36.0" style="stroke:#FFFFFF;fill:none;stroke-width:2;stroke-dasharray:-;stroke-linecap:round;stroke-linejoin:round;" /><path d="M 324.0,36.0 L 162.0,35.99999999999998 L 0.0,35.99999999999996" style="stroke:#FFFFFF;fill:none;stroke-width:2;stroke-dasharray:-;stroke-linecap:round;stroke-linejoin:round;" /><path d="M 0.0,35.99999999999996 L 1.1021821192326165e-15,17.99999999999998 L 2.204364238465233e-15,-0.0" style="stroke:#FFFFFF;fill:none;stroke-width:2;stroke-dasharray:-;stroke-linecap:round;stroke-linejoin:round;" /><text x="-21.599999999999998" y="-31.0" dominant-baseline="central" fill="#FFFFFF" font-size="13" font-family="sans" text-anchor="end"><tspan x="-21.599999999999998" dy="13">V<tspan baseline-shift="-2" font-size="smaller">s</tspan></tspan></text><text x="234.0" y="-112.0" dominant-baseline="central" fill="#FFFFFF" font-size="13" font-family="sans" text-anchor="middle"><tspan x="234.0" dy="13">Appliance A</tspan></text><text x="234.0" y="-31.0" dominant-baseline="central" fill="#FFFFFF" font-size="13" font-family="sans" text-anchor="middle"><tspan x="234.0" dy="13">Appliance A</tspan></text></svg>