<svg xmlns="http://www.w3.org/2000/svg" xmlns:xlink="http://www.w3.org/1999/xlink" xml:lang="en" height="176.99999999999997pt" width="398.25199999999995pt" viewBox="-44.45199999999999 -136.4 398.25199999999995 176.99999999999997"><circle cx="1.102182119232618e-15" cy="-18.0" r="18.0" style="stroke:#FFFFFF;fill:none;stroke-width:2;stroke-dasharray:-;" /><polygon points="75.60000000000002,-108.0 75.59909371925193,-108.11423493961061 75.59637510515896,-108.22844112118608 75.59184484211768,-108.34258979393094 75.58550407059758,-108.45665222152726 75.577354386854,-108.57059968936888 75.56739784252623,-108.68440351179011 75.55563694412106,-108.79803503928729 75.54207465238174,-108.91146566573099 75.52671438154273,-109.02466683556766 75.50955999847005,-109.13761005100812 75.49061582168792,-109.25026687920189 75.46988662029152,-109.36260895939496 75.44737761274642,-109.47460801006937 75.42309446557496,-109.5862358360631 75.39704329192952,-109.69746433566787 75.36923065005378,-109.80826550770377 75.33966354163161,-109.91861145856825 75.30834941002439,-110.0284744092583 75.27529613839735,-110.13782670236358 75.24051204773482,-110.24664080902912 75.20400589474563,-110.35488933588545 75.16578686965856,-110.46254503194483 75.1258645939088,-110.56958079546148 75.08424911771574,-110.67596968075436 75.040950917553,-110.78168490499053 74.99598089351092,-110.88669985492763 74.94935036655255,-110.9909880936136 74.90107107566368,-111.09452336704204 74.85115517489764,-111.19727961076157 74.79961523031545,-111.29923095643737 74.7464642168226,-111.40035173836333 74.69171551490247,-111.50061649992337 74.63538290724799,-111.60000000000001 74.57748057529184,-111.69847721932852 74.51802309563652,-111.79602336679562 74.45702543638451,-111.8926138856803 74.39450295337038,-111.988224459836 74.33047138629482,-112.08283101981195 74.26494685476243,-112.17640974891263 74.19794585422363,-112.26893708919341 74.12948525182202,-112.3603897473912 74.0595822821481,-112.45074470078836 73.98825454290068,-112.53997920300857 73.91551999045666,-112.62807078974308 73.84139693535067,-112.71499728440605 73.76590403766545,-112.8007368037173 73.68906030233427,-112.88526776321136 73.61088507435652,-112.9685688826712 73.53139803392783,-113.05061919148551 73.45061919148553,-113.13139803392781 73.36856888267121,-113.21088507435651 73.28526776321138,-113.28906030233424 73.20073680371732,-113.36590403766544 73.11499728440607,-113.44139693535067 73.0280707897431,-113.51551999045664 72.93997920300858,-113.58825454290066 72.85074470078837,-113.65958228214807 72.76038974739122,-113.729485251822 72.66893708919342,-113.79794585422363 72.57640974891264,-113.86494685476242 72.48283101981197,-113.9304713862948 72.38822445983601,-113.99450295337036 72.29261388568031,-114.0570254363845 72.19602336679564,-114.1180230956365 72.09847721932854,-114.17748057529184 72.00000000000001,-114.23538290724795 71.90061649992339,-114.29171551490245 71.80035173836333,-114.3464642168226 71.69923095643738,-114.39961523031545 71.59727961076159,-114.45115517489762 71.49452336704205,-114.50107107566367 71.3909880936136,-114.54935036655253 71.28669985492763,-114.5959808935109 71.18168490499055,-114.64095091755298 71.07596968075437,-114.68424911771572 70.9695807954615,-114.72586459390877 70.86254503194483,-114.76578686965854 70.75488933588545,-114.80400589474561 70.64664080902912,-114.8405120477348 70.5378267023636,-114.87529613839733 70.42847440925831,-114.90834941002439 70.31861145856827,-114.93966354163159 70.20826550770379,-114.96923065005377 70.0974643356679,-114.9970432919295 69.9862358360631,-115.02309446557493 69.87460801006938,-115.04737761274642 69.76260895939497,-115.06988662029148 69.65026687920191,-115.0906158216879 69.53761005100813,-115.10955999847005 69.42466683556766,-115.12671438154273 69.311465665731,-115.14207465238172 69.19803503928729,-115.15563694412103 69.08440351179013,-115.16739784252621 68.9705996893689,-115.17735438685399 68.85665222152727,-115.18550407059757 68.74258979393096,-115.19184484211765 68.6284411211861,-115.19637510515894 68.51423493961063,-115.19909371925189 68.4,-115.2 28.80000000000001,-115.2 28.685765060389393,-115.19909371925189 28.57155887881392,-115.19637510515894 28.457410206069063,-115.19184484211765 28.343347778472747,-115.18550407059757 28.229400310631135,-115.17735438685399 28.115596488209892,-115.16739784252621 28.00196496071273,-115.15563694412103 27.888534334269014,-115.14207465238172 27.775333164432354,-115.12671438154273 27.66238994899189,-115.10955999847005 27.549733120798113,-115.0906158216879 27.437391040605057,-115.06988662029148 27.325391989930633,-115.04737761274642 27.213764163936915,-115.02309446557493 27.10253566433213,-114.9970432919295 26.991734492296242,-114.96923065005377 26.881388541431757,-114.93966354163159 26.771525590741717,-114.90834941002439 26.66217329763643,-114.87529613839733 26.5533591909709,-114.8405120477348 26.445110664114573,-114.80400589474561 26.337454968055194,-114.76578686965854 26.230419204538535,-114.72586459390877 26.12403031924565,-114.68424911771572 26.01831509500948,-114.64095091755298 25.91330014507239,-114.5959808935109 25.809011906386424,-114.54935036655253 25.70547663295797,-114.50107107566367 25.60272038923843,-114.45115517489762 25.500769043562652,-114.39961523031545 25.399648261636695,-114.3464642168226 25.29938350007663,-114.29171551490245 25.200000000000006,-114.23538290724795 25.10152278067148,-114.17748057529184 25.003976633204392,-114.1180230956365 24.907386114319706,-114.0570254363845 24.811775540164014,-113.99450295337036 24.717168980188056,-113.9304713862948 24.62359025108738,-113.86494685476242 24.531062910806597,-113.79794585422363 24.43961025260881,-113.729485251822 24.34925529921165,-113.65958228214807 24.260020796991444,-113.58825454290064 24.171929210256923,-113.51551999045664 24.08500271559396,-113.44139693535067 23.99926319628271,-113.36590403766544 23.91473223678866,-113.28906030233424 23.831431117328798,-113.21088507435651 23.749380808514495,-113.13139803392781 23.668601966072195,-113.05061919148551 23.5891149256435,-112.9685688826712 23.510939697665766,-112.88526776321136 23.43409596233457,-112.8007368037173 23.358603064649348,-112.71499728440605 23.284480009543365,-112.62807078974308 23.211745457099358,-112.53997920300857 23.140417717851935,-112.45074470078836 23.070514748178017,-112.3603897473912 23.002054145776384,-112.26893708919341 22.935053145237585,-112.17640974891263 22.869528613705214,-112.08283101981195 22.80549704662965,-111.988224459836 22.7429745636155,-111.8926138856803 22.681976904363502,-111.79602336679562 22.622519424708173,-111.69847721932852 22.564617092752048,-111.60000000000001 22.508284485097555,-111.50061649992337 22.453535783177415,-111.40035173836333 22.400384769684557,-111.29923095643736 22.348844825102386,-111.19727961076157 22.298928924336337,-111.09452336704204 22.250649633447473,-110.9909880936136 22.204019106489106,-110.88669985492763 22.15904908244702,-110.78168490499053 22.11575088228428,-110.67596968075436 22.074135406091237,-110.56958079546148 22.034213130341463,-110.46254503194483 21.995994105254393,-110.35488933588545 21.9594879522652,-110.24664080902912 21.924703861602673,-110.13782670236358 21.891650589975622,-110.0284744092583 21.860336458368423,-109.91861145856825 21.83076934994624,-109.80826550770377 21.802956708070504,-109.69746433566787 21.776905534425072,-109.5862358360631 21.7526223872536,-109.47460801006937 21.730113379708516,-109.36260895939496 21.70938417831211,-109.25026687920189 21.690440001529964,-109.13761005100812 21.673285618457292,-109.02466683556766 21.657925347618278,-108.91146566573099 21.644363055878976,-108.79803503928729 21.632602157473798,-108.68440351179011 21.62264561314602,-108.57059968936888 21.614495929402437,-108.45665222152726 21.60815515788235,-108.34258979393094 21.603624894841072,-108.22844112118608 21.600906280748106,-108.11423493961063 21.6,-108.0 21.600000000000012,-68.39999999999999 21.600906280748106,-68.28576506038938 21.603624894841076,-68.17155887881391 21.60815515788235,-68.05741020606905 21.614495929402437,-67.94334777847273 21.622645613146023,-67.82940031063112 21.6326021574738,-67.71559648820988 21.64436305587898,-67.60196496071272 21.65792534761828,-67.488534334269 21.673285618457296,-67.37533316443235 21.690440001529968,-67.26238994899188 21.709384178312114,-67.1497331207981 21.73011337970852,-67.03739104060504 21.752622387253602,-66.92539198993063 21.776905534425076,-66.81376416393691 21.80295670807051,-66.70253566433212 21.830769349946245,-66.59173449229623 21.860336458368426,-66.48138854143174 21.891650589975626,-66.3715255907417 21.924703861602676,-66.26217329763642 21.959487952265203,-66.15335919097089 21.995994105254397,-66.04511066411456 22.034213130341467,-65.93745496805518 22.074135406091244,-65.83041920453852 22.115750882284285,-65.72403031924564 22.159049082447023,-65.61831509500948 22.204019106489106,-65.51330014507238 22.250649633447477,-65.40901190638641 22.298928924336337,-65.30547663295796 22.34884482510239,-65.20272038923842 22.400384769684557,-65.10076904356265 22.453535783177415,-64.99964826163668 22.508284485097555,-64.89938350007662 22.564617092752048,-64.8 22.622519424708173,-64.70152278067147 22.681976904363502,-64.60397663320438 22.7429745636155,-64.5073861143197 22.805497046629654,-64.411775540164 22.869528613705214,-64.31716898018806 22.93505314523759,-64.22359025108737 23.002054145776384,-64.13106291080659 23.070514748178017,-64.0396102526088 23.140417717851935,-63.94925529921164 23.211745457099358,-63.86002079699144 23.284480009543365,-63.771929210256914 23.358603064649348,-63.685002715593946 23.43409596233457,-63.599263196282706 23.510939697665766,-63.514732236788646 23.5891149256435,-63.43143111732879 23.668601966072192,-63.34938080851449 23.749380808514495,-63.26860196607218 23.831431117328798,-63.189114925643494 23.914732236788655,-63.11093969766576 23.99926319628271,-63.03409596233457 24.085002715593955,-62.958603064649346 24.17192921025692,-62.88448000954336 24.260020796991444,-62.811745457099356 24.34925529921165,-62.74041771785193 24.4396102526088,-62.67051474817801 24.531062910806597,-62.60205414577637 24.623590251087375,-62.53505314523758 24.717168980188056,-62.4695286137052 24.811775540164007,-62.40549704662965 24.907386114319703,-62.34297456361549 25.003976633204392,-62.281976904363496 25.101522780671477,-62.22251942470816 25.2,-62.16461709275204 25.29938350007663,-62.10828448509755 25.399648261636692,-62.05353578317741 25.50076904356265,-62.00038476968455 25.60272038923843,-61.94884482510238 25.70547663295797,-61.898928924336325 25.80901190638642,-61.85064963344746 25.91330014507238,-61.8040191064891 26.018315095009477,-61.75904908244701 26.124030319245648,-61.715750882284276 26.230419204538524,-61.67413540609123 26.33745496805519,-61.63421313034146 26.445110664114566,-61.595994105254384 26.553359190970895,-61.559487952265194 26.66217329763642,-61.52470386160267 26.771525590741707,-61.49165058997561 26.881388541431754,-61.46033645836842 26.99173449229623,-61.43076934994623 27.102535664332123,-61.4029567080705 27.213764163936908,-61.37690553442507 27.32539198993063,-61.3526223872536 27.437391040605046,-61.330113379708514 27.549733120798106,-61.3093841783121 27.66238994899188,-61.29044000152996 27.775333164432347,-61.27328561845728 27.888534334269004,-61.25792534761827 28.001964960712723,-61.244363055878964 28.11559648820989,-61.232602157473785 28.229400310631124,-61.222645613146014 28.343347778472737,-61.214495929402425 28.457410206069056,-61.20815515788234 28.571558878813917,-61.20362489484107 28.68576506038938,-61.20090628074809 28.8,-61.199999999999996 68.4,-61.199999999999996 68.51423493961063,-61.20090628074809 68.6284411211861,-61.20362489484107 68.74258979393096,-61.20815515788234 68.85665222152727,-61.214495929402425 68.9705996893689,-61.22264561314601 69.08440351179013,-61.232602157473785 69.19803503928729,-61.244363055878964 69.311465665731,-61.25792534761827 69.42466683556766,-61.27328561845728 69.53761005100813,-61.29044000152996 69.65026687920191,-61.3093841783121 69.76260895939497,-61.330113379708514 69.87460801006938,-61.35262238725359 69.9862358360631,-61.37690553442507 70.0974643356679,-61.4029567080705 70.20826550770379,-61.43076934994623 70.31861145856826,-61.46033645836842 70.42847440925831,-61.49165058997561 70.53782670236359,-61.52470386160267 70.64664080902912,-61.559487952265194 70.75488933588545,-61.595994105254384 70.86254503194483,-61.63421313034146 70.9695807954615,-61.67413540609123 71.07596968075437,-61.715750882284276 71.18168490499053,-61.75904908244701 71.28669985492763,-61.80401910648909 71.3909880936136,-61.85064963344746 71.49452336704205,-61.898928924336325 71.59727961076159,-61.94884482510238 71.69923095643738,-62.00038476968455 71.80035173836333,-62.05353578317741 71.90061649992339,-62.10828448509754 72.00000000000001,-62.16461709275204 72.09847721932854,-62.22251942470816 72.19602336679564,-62.28197690436349 72.29261388568031,-62.34297456361549 72.38822445983601,-62.40549704662964 72.48283101981197,-62.4695286137052 72.57640974891264,-62.535053145237576 72.66893708919342,-62.60205414577637 72.76038974739122,-62.67051474817801 72.85074470078837,-62.740417717851926 72.93997920300858,-62.81174545709935 73.0280707897431,-62.88448000954335 73.11499728440607,-62.95860306464934 73.20073680371732,-63.03409596233457 73.28526776321138,-63.11093969766576 73.36856888267121,-63.18911492564349 73.45061919148553,-63.26860196607218 73.53139803392783,-63.34938080851448 73.61088507435652,-63.43143111732879 73.68906030233424,-63.514732236788646 73.76590403766545,-63.59926319628269 73.84139693535067,-63.685002715593946 73.91551999045666,-63.771929210256914 73.98825454290065,-63.860020796991435 74.05958228214809,-63.94925529921164 74.12948525182202,-64.0396102526088 74.19794585422363,-64.13106291080659 74.26494685476243,-64.22359025108737 74.33047138629482,-64.31716898018804 74.39450295337036,-64.411775540164 74.45702543638451,-64.5073861143197 74.51802309563652,-64.60397663320438 74.57748057529184,-64.70152278067147 74.63538290724797,-64.8 74.69171551490246,-64.89938350007662 74.7464642168226,-64.99964826163668 74.79961523031545,-65.10076904356264 74.85115517489763,-65.20272038923842 74.90107107566368,-65.30547663295796 74.94935036655255,-65.40901190638641 74.99598089351092,-65.51330014507238 75.040950917553,-65.61831509500948 75.08424911771573,-65.72403031924564 75.12586459390877,-65.83041920453852 75.16578686965855,-65.93745496805518 75.20400589474563,-66.04511066411456 75.24051204773481,-66.15335919097089 75.27529613839734,-66.26217329763642 75.30834941002439,-66.3715255907417 75.3396635416316,-66.48138854143174 75.36923065005378,-66.59173449229623 75.39704329192952,-66.70253566433212 75.42309446557493,-66.81376416393691 75.44737761274642,-66.92539198993063 75.4698866202915,-67.03739104060504 75.49061582168792,-67.14973312079809 75.50955999847005,-67.26238994899188 75.52671438154273,-67.37533316443235 75.54207465238174,-67.488534334269 75.55563694412105,-67.60196496071272 75.56739784252623,-67.71559648820988 75.577354386854,-67.82940031063112 75.58550407059758,-67.94334777847273 75.59184484211767,-68.05741020606905 75.59637510515894,-68.17155887881391 75.59909371925191,-68.28576506038938 75.60000000000002,-68.39999999999999 75.60000000000002,-108.0 " style="stroke:#FFFFFF;fill:none;stroke-width:2;stroke-dasharray:-;stroke-linecap:round;stroke-linejoin:round;" /><polygon points="29.700000000000006,-87.12000000000002 29.700000000000006,-109.8 67.5,-109.8 67.5,-87.12000000000002 " style="stroke:#FFFFFF;fill:none;stroke-width:1;stroke-dasharray:-;stroke-linecap:round;stroke-linejoin:round;" /><polygon points="302.4,-71.99999999999999 302.5713524094159,-72.00135942112213 302.7426616817791,-72.00543734226159 302.9138846908964,-72.0122327368235 303.08497833229086,-72.02174389410364 303.25589953405324,-72.03396841971902 303.4266052676851,-72.04890323621069 303.5970525589309,-72.06654458381844 303.7671984985965,-72.0868880214274 303.9370002533514,-72.10992842768593 304.1064150765121,-72.13566000229494 304.2754003188028,-72.16407626746815 304.44391343909234,-72.19517006956276 304.611912015104,-72.22893358088038 304.7793537540946,-72.2653583016376 304.94619650350177,-72.30443506210574 305.1123982615556,-72.34615402491934 305.2779171878523,-72.39050468755262 305.4427116138874,-72.43747588496342 305.6067400535453,-72.487055792404 305.7699612135436,-72.53923192839778 305.93233400382815,-72.59399115788158 306.0938175479172,-72.65131969551219 306.2543711931922,-72.71120310913685 306.41395452113153,-72.77362632342641 306.57252735748574,-72.83857362367053 306.73004978239135,-72.90602865973365 306.88648214042036,-72.97597445017121 307.041785050563,-73.04839338650449 307.1959194161423,-73.12326723765356 307.348846434656,-73.20057715452683 307.5005276075449,-73.28030367476612 307.650924749885,-73.36242672764631 307.79999999999995,-73.44692563912805 307.9477158289927,-73.53377913706225 308.0940350501934,-73.62296535654524 308.2389208285204,-73.71446184542324 308.3823366897539,-73.80824556994446 308.5242465297179,-73.9042929205578 308.6646146233689,-74.00257971785636 308.8034056337901,-74.10308121866456 308.9405846210867,-74.205772122267 309.0761170511825,-74.31062657677789 309.2099688045128,-74.41761818564902 309.3421061846146,-74.52672001431503 309.472495926609,-74.63790459697401 309.6011052055759,-74.75114394350184 309.727901644817,-74.86640954649864 309.8528533240068,-74.98367238846524 309.9759287872282,-75.10290294910827 310.09709705089165,-75.22407121277173 310.21632761153467,-75.34714667599319 310.3335904535013,-75.47209835518296 310.44885605649813,-75.59889479442406 310.562095403026,-75.72750407339092 310.6732799856849,-75.85789381538538 310.7823818143509,-75.99003119548715 310.889373423222,-76.12388294881745 310.99422787773295,-76.25941537891319 311.0969187813354,-76.39659436620987 311.1974202821436,-76.53538537663106 311.29570707944214,-76.67575347028206 311.39175443005547,-76.817663310246 311.4855381545767,-76.96107917147955 311.5770346434547,-77.10596494980658 311.66622086293773,-77.2522841710072 311.7530743608719,-77.39999999999999 311.8375732723536,-77.54907525011494 311.9196963252339,-77.69947239245502 311.99942284547313,-77.85115356534395 312.0767327623464,-78.00408058385764 312.15160661349546,-78.15821494943694 312.22402554982875,-78.31351785957962 312.2939713402663,-78.46995021760856 312.3614263763294,-78.6274726425142 312.4263736765735,-78.78604547886846 312.4887968908631,-78.94562880680778 312.54868030448773,-79.10618245208276 312.60600884211834,-79.26766599617184 312.6607680716022,-79.43003878645632 312.7129442075959,-79.59325994645462 312.7625241150365,-79.75728838611255 312.8094953124473,-79.92208281214762 312.85384597508056,-80.08760173844433 312.8955649378942,-80.25380349649818 312.9346416983623,-80.42064624590536 312.97106641911955,-80.58808798489594 313.00482993043715,-80.75608656090756 313.0359237325318,-80.92459968119715 313.06433999770496,-81.09358492348782 313.090071572314,-81.26299974664852 313.11311197857253,-81.4328015014035 313.13345541618145,-81.60294744106908 313.15109676378927,-81.77339473231481 313.16603158028096,-81.94410046594668 313.1782561058963,-82.1150216677091 313.1877672631764,-82.28611530910358 313.19456265773835,-82.45733831822086 313.1986405788778,-82.62864759058407 313.2,-82.8 313.2,-115.2 313.1986405788778,-115.37135240941593 313.19456265773835,-115.54266168177914 313.1877672631764,-115.71388469089642 313.1782561058963,-115.8849783322909 313.16603158028096,-116.05589953405332 313.15109676378927,-116.22660526768519 313.13345541618145,-116.39705255893092 313.11311197857253,-116.5671984985965 313.090071572314,-116.73700025335148 313.06433999770496,-116.90641507651219 313.0359237325318,-117.07540031880285 313.00482993043715,-117.24391343909244 312.97106641911955,-117.41191201510406 312.9346416983623,-117.57935375409464 312.8955649378942,-117.74619650350182 312.85384597508056,-117.91239826155567 312.8094953124473,-118.07791718785238 312.7625241150365,-118.24271161388745 312.7129442075959,-118.40674005354538 312.6607680716022,-118.56996121354368 312.60600884211834,-118.73233400382816 312.54868030448773,-118.89381754791724 312.4887968908631,-119.05437119319222 312.4263736765735,-119.21395452113154 312.3614263763294,-119.3725273574858 312.2939713402663,-119.53004978239144 312.22402554982875,-119.68648214042038 312.15160661349546,-119.84178505056306 312.0767327623464,-119.99591941614236 311.99942284547313,-120.14884643465605 311.9196963252339,-120.30052760754498 311.8375732723536,-120.45092474988506 311.7530743608719,-120.60000000000001 311.66622086293773,-120.7477158289928 311.5770346434547,-120.89403505019342 311.4855381545767,-121.03892082852045 311.39175443005547,-121.182336689754 311.29570707944214,-121.32424652971794 311.1974202821436,-121.46461462336894 311.0969187813354,-121.60340563379013 310.99422787773295,-121.74058462108681 310.889373423222,-121.87611705118255 310.7823818143509,-122.00996880451285 310.6732799856849,-122.14210618461462 310.562095403026,-122.27249592660908 310.44885605649813,-122.40110520557594 310.3335904535013,-122.52790164481704 310.21632761153467,-122.65285332400681 310.09709705089165,-122.77592878722827 309.9759287872282,-122.89709705089173 309.8528533240068,-123.01632761153476 309.727901644817,-123.13359045350136 309.6011052055759,-123.24885605649816 309.472495926609,-123.36209540302599 309.3421061846146,-123.47327998568497 309.2099688045128,-123.58238181435098 309.0761170511825,-123.68937342322211 308.9405846210867,-123.794227877733 308.8034056337901,-123.89691878133544 308.6646146233689,-123.99742028214364 308.5242465297179,-124.0957070794422 308.3823366897539,-124.19175443005554 308.2389208285204,-124.28553815457676 308.0940350501934,-124.37703464345476 307.9477158289927,-124.46622086293775 307.79999999999995,-124.55307436087195 307.650924749885,-124.63757327235369 307.5005276075449,-124.71969632523388 307.348846434656,-124.79942284547317 307.1959194161423,-124.87673276234644 307.041785050563,-124.95160661349551 306.88648214042036,-125.02402554982879 306.73004978239135,-125.09397134026635 306.57252735748574,-125.1614263763295 306.41395452113153,-125.22637367657359 306.2543711931922,-125.28879689086315 306.0938175479172,-125.34868030448781 305.93233400382815,-125.40600884211842 305.7699612135436,-125.46076807160222 305.6067400535453,-125.512944207596 305.4427116138874,-125.56252411503658 305.2779171878523,-125.60949531244738 305.1123982615556,-125.65384597508066 304.94619650350177,-125.69556493789426 304.7793537540946,-125.7346416983624 304.611912015104,-125.77106641911962 304.44391343909234,-125.80482993043724 304.2754003188028,-125.83592373253185 304.1064150765121,-125.86433999770506 303.9370002533514,-125.89007157231407 303.7671984985965,-125.9131119785726 303.5970525589309,-125.93345541618156 303.4266052676851,-125.95109676378931 303.25589953405324,-125.96603158028098 303.08497833229086,-125.97825610589636 302.9138846908964,-125.9877672631765 302.74266168177905,-125.99456265773841 302.5713524094159,-125.99864057887787 302.4,-126.0 216.0,-126.0 215.82864759058407,-125.99864057887787 215.65733831822087,-125.99456265773841 215.48611530910358,-125.9877672631765 215.31502166770912,-125.97825610589636 215.14410046594668,-125.96603158028098 214.97339473231483,-125.95109676378931 214.80294744106908,-125.93345541618156 214.63280150140352,-125.9131119785726 214.46299974664853,-125.89007157231407 214.2935849234878,-125.86433999770506 214.12459968119717,-125.83592373253185 213.95608656090758,-125.80482993043724 213.78808798489592,-125.77106641911962 213.6206462459054,-125.7346416983624 213.45380349649818,-125.69556493789426 213.28760173844435,-125.65384597508066 213.12208281214762,-125.6094953124474 212.95728838611257,-125.56252411503658 212.79325994645464,-125.512944207596 212.63003878645634,-125.46076807160222 212.46766599617183,-125.40600884211842 212.3061824520828,-125.34868030448781 212.1456288068078,-125.28879689086315 211.98604547886848,-125.22637367657359 211.8274726425142,-125.16142637632947 211.66995021760857,-125.09397134026635 211.51351785957965,-125.02402554982882 211.35821494943693,-124.95160661349551 211.20408058385766,-124.87673276234644 211.05115356534398,-124.79942284547317 210.899472392455,-124.71969632523388 210.7490752501149,-124.63757327235369 210.6,-124.55307436087195 210.45228417100722,-124.46622086293775 210.30596494980657,-124.37703464345476 210.16107917147954,-124.28553815457676 210.017663310246,-124.19175443005554 209.8757534702821,-124.0957070794422 209.73538537663106,-123.99742028214364 209.59659436620987,-123.89691878133544 209.4594153789132,-123.794227877733 209.32388294881747,-123.68937342322211 209.19003119548714,-123.58238181435098 209.0578938153854,-123.47327998568497 208.9275040733909,-123.36209540302599 208.79889479442403,-123.24885605649816 208.67209835518295,-123.13359045350136 208.5471466759932,-123.01632761153476 208.42407121277174,-122.89709705089173 208.30290294910827,-122.77592878722827 208.18367238846525,-122.65285332400681 208.06640954649865,-122.52790164481704 207.95114394350188,-122.40110520557594 207.837904596974,-122.27249592660908 207.72672001431505,-122.14210618461463 207.61761818564904,-122.00996880451285 207.5106265767779,-121.87611705118255 207.405772122267,-121.74058462108681 207.30308121866457,-121.60340563379013 207.2025797178564,-121.46461462336896 207.1042929205578,-121.32424652971794 207.00824556994445,-121.182336689754 206.91446184542326,-121.03892082852047 206.82296535654524,-120.89403505019342 206.73377913706224,-120.7477158289928 206.64692563912806,-120.60000000000001 206.5624267276463,-120.45092474988506 206.4803036747661,-120.30052760754498 206.40057715452684,-120.14884643465605 206.32326723765357,-119.99591941614236 206.2483933865045,-119.84178505056306 206.1759744501712,-119.68648214042038 206.10602865973365,-119.53004978239144 206.03857362367052,-119.3725273574858 205.9736263234264,-119.21395452113154 205.91120310913686,-119.05437119319222 205.8513196955122,-118.89381754791724 205.79399115788158,-118.73233400382816 205.7392319283978,-118.56996121354368 205.68705579240398,-118.40674005354538 205.63747588496344,-118.24271161388745 205.59050468755262,-118.07791718785239 205.54615402491936,-117.91239826155567 205.50443506210576,-117.74619650350182 205.4653583016376,-117.57935375409464 205.42893358088037,-117.41191201510406 205.39517006956277,-117.24391343909244 205.36407626746814,-117.07540031880285 205.33566000229493,-116.90641507651219 205.30992842768592,-116.73700025335148 205.2868880214274,-116.5671984985965 205.26654458381844,-116.39705255893094 205.24890323621068,-116.22660526768517 205.23396841971902,-116.05589953405332 205.22174389410367,-115.8849783322909 205.21223273682352,-115.71388469089642 205.2054373422616,-115.54266168177914 205.20135942112213,-115.37135240941593 205.20000000000002,-115.2 205.20000000000002,-82.8 205.20135942112213,-82.62864759058407 205.2054373422616,-82.45733831822086 205.21223273682352,-82.28611530910358 205.22174389410367,-82.1150216677091 205.23396841971902,-81.94410046594668 205.24890323621068,-81.77339473231481 205.26654458381844,-81.60294744106908 205.2868880214274,-81.4328015014035 205.30992842768592,-81.26299974664852 205.33566000229493,-81.09358492348782 205.36407626746814,-80.92459968119715 205.39517006956277,-80.75608656090756 205.42893358088037,-80.58808798489594 205.4653583016376,-80.42064624590536 205.50443506210576,-80.25380349649818 205.54615402491936,-80.08760173844433 205.59050468755262,-79.92208281214762 205.63747588496344,-79.75728838611255 205.68705579240398,-79.59325994645462 205.7392319283978,-79.43003878645632 205.79399115788158,-79.26766599617184 205.8513196955122,-79.10618245208276 205.91120310913686,-78.94562880680778 205.9736263234264,-78.78604547886846 206.03857362367052,-78.6274726425142 206.10602865973365,-78.46995021760856 206.1759744501712,-78.31351785957962 206.2483933865045,-78.15821494943694 206.32326723765357,-78.00408058385764 206.40057715452684,-77.85115356534396 206.4803036747661,-77.69947239245502 206.5624267276463,-77.54907525011494 206.64692563912806,-77.39999999999999 206.73377913706224,-77.2522841710072 206.82296535654524,-77.10596494980658 206.91446184542323,-76.96107917147955 207.00824556994445,-76.817663310246 207.1042929205578,-76.67575347028206 207.2025797178564,-76.53538537663106 207.30308121866457,-76.39659436620987 207.405772122267,-76.25941537891319 207.5106265767779,-76.12388294881745 207.61761818564904,-75.99003119548715 207.72672001431505,-75.85789381538538 207.837904596974,-75.72750407339092 207.95114394350185,-75.59889479442406 208.06640954649865,-75.47209835518296 208.18367238846525,-75.34714667599319 208.30290294910827,-75.22407121277173 208.42407121277174,-75.10290294910827 208.5471466759932,-74.98367238846524 208.67209835518295,-74.86640954649864 208.79889479442403,-74.75114394350184 208.9275040733909,-74.63790459697401 209.0578938153854,-74.52672001431503 209.19003119548714,-74.41761818564902 209.32388294881747,-74.31062657677789 209.4594153789132,-74.205772122267 209.59659436620987,-74.10308121866456 209.73538537663106,-74.00257971785636 209.87575347028206,-73.9042929205578 210.017663310246,-73.80824556994446 210.16107917147954,-73.71446184542324 210.30596494980657,-73.62296535654524 210.45228417100722,-73.53377913706225 210.60000000000002,-73.44692563912805 210.7490752501149,-73.36242672764631 210.899472392455,-73.28030367476612 211.05115356534398,-73.20057715452683 211.20408058385766,-73.12326723765356 211.35821494943693,-73.04839338650449 211.51351785957965,-72.97597445017118 211.66995021760857,-72.90602865973365 211.8274726425142,-72.83857362367053 211.98604547886848,-72.77362632342641 212.1456288068078,-72.71120310913685 212.3061824520828,-72.65131969551219 212.46766599617183,-72.59399115788158 212.63003878645634,-72.53923192839778 212.7932599464546,-72.487055792404 212.95728838611257,-72.43747588496342 213.12208281214762,-72.39050468755262 213.28760173844435,-72.34615402491934 213.45380349649818,-72.30443506210574 213.62064624590533,-72.2653583016376 213.78808798489592,-72.22893358088038 213.95608656090758,-72.19517006956276 214.12459968119717,-72.16407626746815 214.2935849234878,-72.13566000229494 214.46299974664853,-72.10992842768593 214.63280150140352,-72.0868880214274 214.80294744106908,-72.06654458381844 214.97339473231483,-72.04890323621069 215.14410046594668,-72.03396841971902 215.31502166770912,-72.02174389410364 215.48611530910358,-72.0122327368235 215.65733831822087,-72.00543734226159 215.8286475905841,-72.00135942112213 216.0,-71.99999999999999 302.4,-71.99999999999999 " style="stroke:#FFFFFF;fill:none;stroke-width:2;stroke-dasharray:-;stroke-linecap:round;stroke-linejoin:round;" /><polygon points="302.4,9.000000000000007 302.5713524094159,8.99864057887786 302.7426616817791,8.994562657738408 302.9138846908964,8.987767263176494 303.08497833229086,8.97825610589636 303.25589953405324,8.966031580280985 303.4266052676851,8.951096763789321 303.5970525589309,8.933455416181554 303.7671984985965,8.913111978572598 303.9370002533514,8.89007157231408 304.1064150765121,8.864339997705066 304.2754003188028,8.835923732531853 304.4439134390924,8.80482993043724 304.611912015104,8.771066419119618 304.7793537540946,8.734641698362404 304.94619650350177,8.695564937894257 305.1123982615556,8.653845975080655 305.2779171878523,8.609495312447383 305.4427116138874,8.56252411503658 305.6067400535453,8.512944207596004 305.7699612135436,8.460768071602217 305.93233400382815,8.406008842118426 306.0938175479172,8.348680304487818 306.2543711931922,8.288796890863159 306.41395452113153,8.22637367657359 306.57252735748574,8.161426376329487 306.73004978239135,8.093971340266357 306.88648214042036,8.024025549828806 307.041785050563,7.9516066134955175 307.1959194161423,7.876732762346435 307.348846434656,7.799422845473179 307.5005276075449,7.719696325233892 307.650924749885,7.637573272353683 307.79999999999995,7.553074360871943 307.9477158289927,7.466220862937757 308.0940350501934,7.377034643454762 308.2389208285204,7.285538154576763 308.3823366897539,7.1917544300555365 308.5242465297179,7.0957070794422 308.6646146233689,6.997420282143632 308.8034056337901,6.896918781335439 308.9405846210867,6.794227877732994 309.0761170511825,6.6893734232221105 309.2099688045128,6.582381814350979 309.3421061846146,6.473279985684968 309.472495926609,6.362095403025995 309.6011052055759,6.248856056498156 309.727901644817,6.133590453501364 309.8528533240068,6.016327611534765 309.9759287872282,5.897097050891724 310.09709705089165,5.775928787228274 310.21632761153467,5.652853324006815 310.3335904535013,5.527901644817032 310.44885605649813,5.401105205575954 310.562095403026,5.272495926609083 310.6732799856849,5.1421061846146285 310.7823818143509,5.009968804512847 310.889373423222,4.876117051182541 310.99422787773295,4.740584621086805 311.0969187813354,4.603405633790121 311.1974202821436,4.464614623368943 311.29570707944214,4.324246529717929 311.39175443005547,4.182336689753994 311.4855381545767,4.0389208285204585 311.5770346434547,3.8940350501934304 311.66622086293773,3.747715828992793 311.7530743608719,3.6000000000000023 311.8375732723536,3.450924749885065 311.9196963252339,3.3005276075449768 311.99942284547313,3.1488464346560363 312.0767327623464,2.995919416142362 312.15160661349546,2.8417850505630566 312.22402554982875,2.6864821404203765 312.2939713402663,2.53004978239143 312.3614263763294,2.372527357485792 312.4263736765735,2.2139545211315403 312.4887968908631,2.0543711931922175 312.54868030448773,1.8938175479172243 312.60600884211834,1.7323340038281565 312.6607680716022,1.5699612135436638 312.7129442075959,1.4067400535453698 312.7625241150365,1.242711613887443 312.8094953124473,1.0779171878523806 312.8538459750806,0.9123982615556561 312.8955649378942,0.7461965035018154 312.9346416983623,0.5793537540946406 312.97106641911955,0.4119120151040595 313.00482993043715,0.24391343909243102 313.0359237325318,0.07540031880284923 313.06433999770496,-0.09358492348781924 313.090071572314,-0.2629997466485203 313.11311197857253,-0.43280150140350715 313.13345541618145,-0.6029474410690796 313.15109676378927,-0.7733947323148275 313.16603158028096,-0.9441004659466843 313.1782561058963,-1.1150216677091023 313.1877672631764,-1.2861153091035815 313.19456265773835,-1.4573383182208695 313.1986405788778,-1.6286475905840738 313.2,-1.799999999999999 313.2,-34.199999999999996 313.1986405788778,-34.37135240941593 313.19456265773835,-34.54266168177913 313.1877672631764,-34.713884690896414 313.1782561058963,-34.88497833229089 313.16603158028096,-35.05589953405331 313.15109676378927,-35.22660526768517 313.13345541618145,-35.397052558930916 313.11311197857253,-35.56719849859649 313.090071572314,-35.73700025335148 313.06433999770496,-35.906415076512175 313.0359237325318,-36.07540031880285 313.00482993043715,-36.24391343909243 312.97106641911955,-36.41191201510406 312.9346416983623,-36.57935375409464 312.8955649378942,-36.74619650350182 312.8538459750806,-36.91239826155566 312.8094953124473,-37.07791718785238 312.7625241150365,-37.24271161388744 312.7129442075959,-37.40674005354537 312.6607680716022,-37.569961213543664 312.60600884211834,-37.73233400382815 312.54868030448773,-37.89381754791722 312.4887968908631,-38.05437119319222 312.4263736765735,-38.21395452113154 312.3614263763294,-38.372527357485794 312.2939713402663,-38.53004978239143 312.22402554982875,-38.686482140420374 312.15160661349546,-38.841785050563054 312.0767327623464,-38.99591941614236 311.99942284547313,-39.148846434656036 311.9196963252339,-39.30052760754498 311.8375732723536,-39.45092474988506 311.7530743608719,-39.6 311.66622086293773,-39.747715828992796 311.5770346434547,-39.89403505019343 311.4855381545767,-40.03892082852045 311.39175443005547,-40.182336689753996 311.29570707944214,-40.324246529717925 311.1974202821436,-40.46461462336894 311.0969187813354,-40.60340563379012 310.99422787773295,-40.7405846210868 310.889373423222,-40.87611705118254 310.7823818143509,-41.009968804512845 310.6732799856849,-41.14210618461462 310.562095403026,-41.27249592660908 310.44885605649813,-41.40110520557595 310.3335904535013,-41.52790164481703 310.21632761153467,-41.652853324006806 310.09709705089165,-41.77592878722827 309.9759287872282,-41.89709705089172 309.8528533240068,-42.01632761153476 309.727901644817,-42.133590453501355 309.6011052055759,-42.248856056498155 309.472495926609,-42.36209540302599 309.3421061846146,-42.47327998568497 309.2099688045128,-42.58238181435098 309.0761170511825,-42.68937342322211 308.94058462108677,-42.794227877732986 308.8034056337901,-42.89691878133544 308.6646146233689,-42.99742028214363 308.5242465297179,-43.09570707944219 308.3823366897539,-43.19175443005553 308.2389208285204,-43.28553815457676 308.0940350501934,-43.37703464345476 307.9477158289927,-43.46622086293775 307.79999999999995,-43.55307436087194 307.650924749885,-43.637573272353684 307.5005276075449,-43.71969632523389 307.348846434656,-43.799422845473174 307.1959194161423,-43.87673276234643 307.041785050563,-43.951606613495514 306.88648214042036,-44.02402554982881 306.73004978239135,-44.09397134026635 306.57252735748574,-44.16142637632949 306.41395452113153,-44.22637367657359 306.2543711931922,-44.28879689086315 306.0938175479172,-44.348680304487814 305.93233400382815,-44.406008842118425 305.7699612135436,-44.46076807160222 305.6067400535453,-44.51294420759601 305.4427116138874,-44.56252411503658 305.2779171878523,-44.60949531244738 305.1123982615556,-44.65384597508066 304.94619650350177,-44.69556493789426 304.7793537540946,-44.734641698362395 304.611912015104,-44.77106641911961 304.44391343909234,-44.80482993043724 304.2754003188028,-44.835923732531846 304.1064150765121,-44.864339997705066 303.9370002533514,-44.89007157231407 303.7671984985965,-44.913111978572594 303.5970525589309,-44.93345541618155 303.4266052676851,-44.951096763789316 303.25589953405324,-44.96603158028098 303.08497833229086,-44.978256105896364 302.9138846908964,-44.987767263176494 302.74266168177905,-44.99456265773841 302.5713524094159,-44.998640578877854 302.4,-45.00000000000001 216.0,-45.0 215.82864759058407,-44.99864057887785 215.65733831822087,-44.99456265773839 215.48611530910358,-44.98776726317649 215.31502166770912,-44.97825610589635 215.14410046594668,-44.966031580280976 214.97339473231483,-44.951096763789316 214.80294744106908,-44.933455416181545 214.63280150140352,-44.91311197857259 214.46299974664853,-44.89007157231407 214.2935849234878,-44.86433999770506 214.12459968119717,-44.835923732531846 213.95608656090758,-44.804829930437236 213.78808798489592,-44.771066419119606 213.6206462459054,-44.734641698362395 213.45380349649818,-44.69556493789425 213.28760173844435,-44.65384597508064 213.12208281214762,-44.60949531244737 212.95728838611257,-44.562524115036574 212.79325994645464,-44.512944207596 212.63003878645634,-44.46076807160221 212.46766599617183,-44.40600884211842 212.3061824520828,-44.348680304487814 212.1456288068078,-44.288796890863146 211.98604547886848,-44.22637367657359 211.8274726425142,-44.16142637632948 211.66995021760857,-44.09397134026635 211.51351785957965,-44.0240255498288 211.35821494943693,-43.95160661349551 211.20408058385766,-43.87673276234642 211.05115356534398,-43.79942284547317 210.899472392455,-43.71969632523388 210.7490752501149,-43.63757327235368 210.6,-43.55307436087193 210.45228417100722,-43.46622086293775 210.30596494980657,-43.37703464345475 210.16107917147954,-43.285538154576756 210.017663310246,-43.191754430055525 209.8757534702821,-43.09570707944219 209.73538537663106,-42.99742028214363 209.59659436620987,-42.89691878133544 209.4594153789132,-42.794227877732986 209.32388294881747,-42.68937342322211 209.19003119548714,-42.58238181435097 209.0578938153854,-42.47327998568497 208.9275040733909,-42.36209540302599 208.79889479442403,-42.24885605649815 208.67209835518295,-42.133590453501355 208.5471466759932,-42.01632761153476 208.42407121277174,-41.897097050891716 208.30290294910827,-41.77592878722827 208.18367238846525,-41.652853324006806 208.06640954649865,-41.52790164481703 207.95114394350188,-41.40110520557595 207.837904596974,-41.27249592660908 207.72672001431505,-41.14210618461462 207.61761818564904,-41.00996880451284 207.5106265767779,-40.87611705118254 207.405772122267,-40.740584621086796 207.30308121866457,-40.60340563379011 207.2025797178564,-40.46461462336894 207.1042929205578,-40.324246529717925 207.00824556994445,-40.182336689753996 206.91446184542326,-40.03892082852045 206.82296535654524,-39.89403505019343 206.73377913706224,-39.74771582899278 206.64692563912806,-39.599999999999994 206.5624267276463,-39.45092474988506 206.4803036747661,-39.30052760754497 206.40057715452684,-39.14884643465603 206.32326723765357,-38.99591941614236 206.2483933865045,-38.841785050563054 206.1759744501712,-38.68648214042037 206.10602865973365,-38.53004978239143 206.03857362367052,-38.37252735748579 205.9736263234264,-38.213954521131534 205.91120310913686,-38.05437119319222 205.8513196955122,-37.89381754791722 205.79399115788158,-37.73233400382815 205.7392319283978,-37.56996121354366 205.68705579240398,-37.40674005354537 205.63747588496344,-37.24271161388744 205.59050468755262,-37.07791718785238 205.54615402491936,-36.91239826155566 205.50443506210576,-36.74619650350182 205.4653583016376,-36.57935375409464 205.42893358088037,-36.41191201510405 205.39517006956277,-36.24391343909243 205.36407626746814,-36.07540031880285 205.33566000229493,-35.906415076512175 205.30992842768592,-35.73700025335148 205.2868880214274,-35.56719849859649 205.26654458381844,-35.397052558930916 205.24890323621068,-35.22660526768517 205.23396841971902,-35.05589953405332 205.22174389410367,-34.88497833229089 205.21223273682352,-34.713884690896414 205.2054373422616,-34.54266168177913 205.20135942112213,-34.37135240941593 205.20000000000002,-34.199999999999996 205.20000000000002,-1.7999999999999983 205.20135942112213,-1.6286475905840734 205.2054373422616,-1.457338318220869 205.21223273682352,-1.2861153091035833 205.22174389410367,-1.1150216677090994 205.23396841971902,-0.9441004659466814 205.24890323621068,-0.7733947323148246 205.26654458381844,-0.602947441069079 205.2868880214274,-0.4328015014035064 205.30992842768592,-0.26299974664851977 205.33566000229493,-0.09358492348782074 205.36407626746814,0.07540031880284723 205.39517006956277,0.24391343909243351 205.42893358088037,0.4119120151040623 205.4653583016376,0.5793537540946412 205.50443506210576,0.7461965035018159 205.54615402491936,0.9123982615556566 205.59050468755262,1.0779171878523786 205.63747588496344,1.242711613887441 205.68705579240398,1.4067400535453722 205.7392319283978,1.5699612135436634 205.79399115788158,1.7323340038281558 205.8513196955122,1.8938175479172243 205.91120310913686,2.0543711931922175 205.9736263234264,2.213954521131538 206.03857362367052,2.3725273574857892 206.10602865973365,2.5300497823914316 206.1759744501712,2.6864821404203765 206.2483933865045,2.8417850505630557 206.32326723765357,2.995919416142362 206.40057715452684,3.148846434656034 206.4803036747661,3.3005276075449737 206.5624267276463,3.450924749885062 206.64692563912806,3.600000000000004 206.73377913706224,3.747715828992788 206.82296535654524,3.8940350501934295 206.91446184542326,4.038920828520456 207.00824556994445,4.182336689753992 207.1042929205578,4.324246529717925 207.2025797178564,4.464614623368941 207.30308121866457,4.603405633790116 207.405772122267,4.7405846210868 207.5106265767779,4.87611705118254 207.61761818564904,5.009968804512845 207.72672001431505,5.142106184614626 207.837904596974,5.27249592660908 207.95114394350188,5.401105205575951 208.06640954649865,5.527901644817028 208.18367238846525,5.652853324006809 208.30290294910827,5.775928787228272 208.42407121277174,5.8970970508917215 208.5471466759932,6.016327611534759 208.67209835518295,6.133590453501361 208.79889479442403,6.248856056498152 208.9275040733909,6.3620954030259895 209.0578938153854,6.473279985684963 209.19003119548717,6.582381814350977 209.32388294881747,6.689373423222104 209.4594153789132,6.794227877732989 209.59659436620987,6.896918781335434 209.73538537663106,6.997420282143627 209.8757534702821,7.095707079442194 210.017663310246,7.19175443005553 210.16107917147954,7.285538154576755 210.30596494980657,7.377034643454754 210.45228417100722,7.466220862937753 210.6,7.553074360871939 210.7490752501149,7.637573272353679 210.899472392455,7.719696325233887 211.05115356534398,7.799422845473174 211.20408058385766,7.876732762346429 211.35821494943693,7.9516066134955095 211.51351785957965,8.0240255498288 211.66995021760857,8.093971340266352 211.8274726425142,8.16142637632948 211.98604547886848,8.226373676573585 212.1456288068078,8.288796890863154 212.3061824520828,8.34868030448781 212.46766599617186,8.406008842118421 212.63003878645634,8.46076807160221 212.79325994645464,8.512944207595998 212.95728838611257,8.562524115036574 213.12208281214762,8.609495312447375 213.28760173844435,8.653845975080646 213.45380349649818,8.69556493789425 213.6206462459054,8.734641698362397 213.78808798489592,8.771066419119611 213.95608656090758,8.804829930437233 214.12459968119717,8.835923732531846 214.2935849234878,8.864339997705061 214.46299974664853,8.890071572314074 214.63280150140352,8.91311197857259 214.80294744106908,8.933455416181545 214.97339473231483,8.951096763789314 215.14410046594668,8.966031580280978 215.31502166770912,8.978256105896351 215.4861153091036,8.987767263176487 215.65733831822087,8.994562657738399 215.82864759058407,8.99864057887785 216.0,9.0 302.4,9.000000000000007 " style="stroke:#FFFFFF;fill:none;stroke-width:2;stroke-dasharray:-;stroke-linecap:round;stroke-linejoin:round;" /><path d="M 0.0,-0.0 L 0.0,-0.0 M 2.204364238465236e-15,-36.0 L 2.204364238465236e-15,-36.0" style="stroke:#FFFFFF;fill:none;stroke-width:2;stroke-dasharray:-;stroke-linecap:round;stroke-linejoin:round;" /><path d="M 9.000000000000002,-18.0 L 8.25,-19.863497124738156 L 7.500000000000002,-21.599999999999998 L 6.750000000000001,-23.091168824543143 L 6.000000000000002,-24.235382907247956 L 5.250000000000003,-24.95466594928129 L 4.500000000000002,-25.2 L 3.750000000000002,-24.954665949281292 L 3.0000000000000018,-24.23538290724796 L 2.2500000000000013,-23.09116882454314 L 1.500000000000002,-21.6 L 0.7500000000000016,-19.863497124738153 L 1.102182119232618e-15,-18.0 L -0.7499999999999983,-16.13650287526185 L -1.4999999999999978,-14.400000000000002 L -2.249999999999999,-12.908831175456855 L -2.9999999999999987,-11.764617092752044 L -3.7499999999999982,-11.045334050718708 L -4.499999999999999,-10.799999999999999 L -5.249999999999998,-11.045334050718706 L -5.999999999999997,-11.76461709275204 L -6.749999999999999,-12.908831175456857 L -7.499999999999998,-14.399999999999999 L -8.249999999999998,-16.136502875261847 L -8.999999999999998,-18.0" style="stroke:#FFFFFF;fill:none;stroke-width:2;stroke-dasharray:-;stroke-linecap:round;stroke-linejoin:round;" /><path d="M 2.204364238465236e-15,-36.0 L 3.3065463576978533e-15,-54.0 L 4.408728476930472e-15,-72.0" style="stroke:#FFFFFF;fill:none;stroke-width:2;stroke-dasharray:-;stroke-linecap:round;stroke-linejoin:round;" /><path d="M 4.408728476930472e-15,-72.0 L 18.000000000000004,-72.0 L 36.00000000000001,-72.0" style="stroke:#FFFFFF;fill:none;stroke-width:2;stroke-dasharray:-;stroke-linecap:round;stroke-linejoin:round;" /><path d="M 37.260000000000005,-87.12000000000002 L 37.260000000000005,-109.8" style="stroke:#666666;fill:none;stroke-width:0.3;stroke-dasharray:-;stroke-linecap:round;stroke-linejoin:round;" /><path d="M 44.82000000000001,-87.12000000000002 L 44.82000000000001,-109.8" style="stroke:#666666;fill:none;stroke-width:0.3;stroke-dasharray:-;stroke-linecap:round;stroke-linejoin:round;" /><path d="M 52.38,-87.12000000000002 L 52.38,-109.8" style="stroke:#666666;fill:none;stroke-width:0.3;stroke-dasharray:-;stroke-linecap:round;stroke-linejoin:round;" /><path d="M 59.94,-87.12000000000002 L 59.94,-109.8" style="stroke:#666666;fill:none;stroke-width:0.3;stroke-dasharray:-;stroke-linecap:round;stroke-linejoin:round;" /><path d="M 29.700000000000006,-94.67999999999999 L 67.5,-94.67999999999999" style="stroke:#666666;fill:none;stroke-width:0.3;stroke-dasharray:-;stroke-linecap:round;stroke-linejoin:round;" /><path d="M 29.700000000000006,-102.24 L 67.5,-102.24" style="stroke:#666666;fill:none;stroke-width:0.3;stroke-dasharray:-;stroke-linecap:round;stroke-linejoin:round;" /><path d="M 29.700000000000006,-98.46000000000001 L 31.689473684210533,-101.22156898558583 L 33.678947368421056,-103.68387912142562 L 35.66842105263159,-105.5801008976228 L 37.65789473684211,-106.70474926181402 L 39.64736842105263,-106.93595111302173 L 41.63684210526316,-106.24865214320127 L 43.62631578947369,-104.717331860275 L 45.61578947368422,-102.50793257778031 L 47.60526315789475,-99.85987699033765 L 49.59473684210527,-97.06012300966236 L 51.584210526315786,-94.41206742221969 L 53.57368421052632,-92.20266813972502 L 55.56315789473685,-90.67134785679875 L 57.55263157894737,-89.98404888697829 L 59.5421052631579,-90.215250738186 L 61.531578947368416,-91.3398991023772 L 63.52105263157894,-93.23612087857438 L 65.51052631578948,-95.69843101441417 L 67.5,-98.46000000000001" style="stroke:#e0213b;fill:none;stroke-width:1;stroke-dasharray:-;stroke-linecap:round;stroke-linejoin:round;" /><path d="M 61.2,-72.0 L 97.2,-72.0 L 133.20000000000002,-72.0" style="stroke:#FFFFFF;fill:none;stroke-width:2;stroke-dasharray:-;stroke-linecap:round;stroke-linejoin:round;" /><path d="M 133.20000000000002,-72.0 L 151.20000000000002,-72.0 L 169.20000000000002,-72.0" style="stroke:#FFFFFF;fill:none;stroke-width:2;stroke-dasharray:-;stroke-linecap:round;stroke-linejoin:round;" /><path d="M 169.20000000000002,-72.0 L 169.20000000000002,-85.5 L 169.20000000000002,-99.0" style="stroke:#FFFFFF;fill:none;stroke-width:2;stroke-dasharray:-;stroke-linecap:round;stroke-linejoin:round;" /><path d="M 169.20000000000002,-99.0 L 187.20000000000002,-99.0 L 205.20000000000002,-99.0" style="stroke:#FFFFFF;fill:none;stroke-width:2;stroke-dasharray:-;stroke-linecap:round;stroke-linejoin:round;" /><path d="M 313.2,-99.0 L 331.2,-99.0 L 349.2,-99.0" style="stroke:#FFFFFF;fill:none;stroke-width:2;stroke-dasharray:-;stroke-linecap:round;stroke-linejoin:round;" /><path d="M 349.2,-99.0 L 349.2,-45.0 L 349.2,9.0" style="stroke:#FFFFFF;fill:none;stroke-width:2;stroke-dasharray:-;stroke-linecap:round;stroke-linejoin:round;" /><path d="M 169.20000000000002,-72.0 L 169.20000000000002,-45.0 L 169.20000000000002,-18.0" style="stroke:#FFFFFF;fill:none;stroke-width:2;stroke-dasharray:-;stroke-linecap:round;stroke-linejoin:round;" /><path d="M 169.20000000000002,-18.0 L 187.20000000000002,-18.0 L 205.20000000000002,-18.0" style="stroke:#FFFFFF;fill:none;stroke-width:2;stroke-dasharray:-;stroke-linecap:round;stroke-linejoin:round;" /><path d="M 313.2,-18.0 L 331.2,-18.0 L 349.2,-18.0" style="stroke:#FFFFFF;fill:none;stroke-width:2;stroke-dasharray:-;stroke-linecap:round;stroke-linejoin:round;" /><path d="M 349.2,-18.0 L 349.2,9.0 L 349.2,36.0" style="stroke:#FFFFFF;fill:none;stroke-width:2;stroke-dasharray:-;stroke-linecap:round;stroke-linejoin:round;" /><path d="M 349.2,36.0 L 174.6,35.99999999999998 L 0.0,35.99999999999996" style="stroke:#FFFFFF;fill:none;stroke-width:2;stroke-dasharray:-;stroke-linecap:round;stroke-linejoin:round;" /><path d="M 0.0,35.99999999999996 L 1.1021821192326165e-15,17.99999999999998 L 2.204364238465233e-15,-0.0" style="stroke:#FFFFFF;fill:none;stroke-width:2;stroke-dasharray:-;stroke-linecap:round;stroke-linejoin:round;" /><text x="-21.599999999999998" y="-31.0" dominant-baseline="central" fill="#FFFFFF" font-size="13" font-family="sans" text-anchor="end"><tspan x="-21.599999999999998" dy="13">V<tspan baseline-shift="-2" font-size="smaller">s</tspan></tspan></text><text x="48.6" y="-131.8" dominant-baseline="ideographic" fill="#FFFFFF" font-size="13" font-family="sans" text-anchor="middle"><tspan x="48.6" dy="13">Measurement Device</tspan></text><text x="259.2" y="-112.0" dominant-baseline="central" fill="#FFFFFF" font-size="13" font-family="sans" text-anchor="middle"><tspan x="259.2" dy="13">Appliance A</tspan></text><text x="259.2" y="-31.0" dominant-baseline="central" fill="#FFFFFF" font-size="13" font-family="sans" text-anchor="middle"><tspan x="259.2" dy="13">Appliance A</tspan></text><circle cx="36.00000000000001" cy="-72.0" r="3.6" style="stroke:#FFFFFF;fill:none;stroke-width:1;stroke-dasharray:-;" /><circle cx="61.2" cy="-72.0" r="3.6" style="stroke:#FFFFFF;fill:none;stroke-width:1;stroke-dasharray:-;" /></svg>